%TF.GenerationSoftware,KiCad,Pcbnew,8.0.1*%
%TF.CreationDate,2024-04-05T09:22:38+02:00*%
%TF.ProjectId,zx-interface-2-rom,7a782d69-6e74-4657-9266-6163652d322d,rev?*%
%TF.SameCoordinates,Original*%
%TF.FileFunction,Copper,L1,Top*%
%TF.FilePolarity,Positive*%
%FSLAX46Y46*%
G04 Gerber Fmt 4.6, Leading zero omitted, Abs format (unit mm)*
G04 Created by KiCad (PCBNEW 8.0.1) date 2024-04-05 09:22:38*
%MOMM*%
%LPD*%
G01*
G04 APERTURE LIST*
G04 Aperture macros list*
%AMRoundRect*
0 Rectangle with rounded corners*
0 $1 Rounding radius*
0 $2 $3 $4 $5 $6 $7 $8 $9 X,Y pos of 4 corners*
0 Add a 4 corners polygon primitive as box body*
4,1,4,$2,$3,$4,$5,$6,$7,$8,$9,$2,$3,0*
0 Add four circle primitives for the rounded corners*
1,1,$1+$1,$2,$3*
1,1,$1+$1,$4,$5*
1,1,$1+$1,$6,$7*
1,1,$1+$1,$8,$9*
0 Add four rect primitives between the rounded corners*
20,1,$1+$1,$2,$3,$4,$5,0*
20,1,$1+$1,$4,$5,$6,$7,0*
20,1,$1+$1,$6,$7,$8,$9,0*
20,1,$1+$1,$8,$9,$2,$3,0*%
G04 Aperture macros list end*
%TA.AperFunction,ComponentPad*%
%ADD10C,1.600000*%
%TD*%
%TA.AperFunction,ComponentPad*%
%ADD11O,1.600000X1.600000*%
%TD*%
%TA.AperFunction,ComponentPad*%
%ADD12R,1.600000X1.600000*%
%TD*%
%TA.AperFunction,ConnectorPad*%
%ADD13RoundRect,0.381000X0.381000X3.175000X-0.381000X3.175000X-0.381000X-3.175000X0.381000X-3.175000X0*%
%TD*%
%TA.AperFunction,ViaPad*%
%ADD14C,0.600000*%
%TD*%
%TA.AperFunction,Conductor*%
%ADD15C,0.200000*%
%TD*%
G04 APERTURE END LIST*
D10*
%TO.P,R2,1*%
%TO.N,+5V*%
X120600000Y-61025000D03*
D11*
%TO.P,R2,2*%
%TO.N,Net-(U1-A14)*%
X110440000Y-61025000D03*
%TD*%
D10*
%TO.P,C2,1*%
%TO.N,+5V*%
X86525000Y-61000000D03*
%TO.P,C2,2*%
%TO.N,GND*%
X89025000Y-61000000D03*
%TD*%
D12*
%TO.P,U1,1,A15*%
%TO.N,Net-(U1-A15)*%
X120230000Y-65300000D03*
D11*
%TO.P,U1,2,A12*%
%TO.N,A12*%
X117690000Y-65300000D03*
%TO.P,U1,3,A7*%
%TO.N,A7*%
X115150000Y-65300000D03*
%TO.P,U1,4,A6*%
%TO.N,A6*%
X112610000Y-65300000D03*
%TO.P,U1,5,A5*%
%TO.N,A5*%
X110070000Y-65300000D03*
%TO.P,U1,6,A4*%
%TO.N,A4*%
X107530000Y-65300000D03*
%TO.P,U1,7,A3*%
%TO.N,A3*%
X104990000Y-65300000D03*
%TO.P,U1,8,A2*%
%TO.N,A2*%
X102450000Y-65300000D03*
%TO.P,U1,9,A1*%
%TO.N,A1*%
X99910000Y-65300000D03*
%TO.P,U1,10,A0*%
%TO.N,A0*%
X97370000Y-65300000D03*
%TO.P,U1,11,D0*%
%TO.N,D0*%
X94830000Y-65300000D03*
%TO.P,U1,12,D1*%
%TO.N,D1*%
X92290000Y-65300000D03*
%TO.P,U1,13,D2*%
%TO.N,D2*%
X89750000Y-65300000D03*
%TO.P,U1,14,GND*%
%TO.N,GND*%
X87210000Y-65300000D03*
%TO.P,U1,15,D3*%
%TO.N,D3*%
X87210000Y-80540000D03*
%TO.P,U1,16,D4*%
%TO.N,D4*%
X89750000Y-80540000D03*
%TO.P,U1,17,D5*%
%TO.N,D5*%
X92290000Y-80540000D03*
%TO.P,U1,18,D6*%
%TO.N,D6*%
X94830000Y-80540000D03*
%TO.P,U1,19,D7*%
%TO.N,D7*%
X97370000Y-80540000D03*
%TO.P,U1,20,~{CE}*%
%TO.N,Net-(U1-~{CE})*%
X99910000Y-80540000D03*
%TO.P,U1,21,A10*%
%TO.N,A10*%
X102450000Y-80540000D03*
%TO.P,U1,22,~{OE/Vpp}*%
%TO.N,Net-(J1-~{MREQ})*%
X104990000Y-80540000D03*
%TO.P,U1,23,A11*%
%TO.N,A11*%
X107530000Y-80540000D03*
%TO.P,U1,24,A9*%
%TO.N,A9*%
X110070000Y-80540000D03*
%TO.P,U1,25,A8*%
%TO.N,A8*%
X112610000Y-80540000D03*
%TO.P,U1,26,A13*%
%TO.N,A13*%
X115150000Y-80540000D03*
%TO.P,U1,27,A14*%
%TO.N,Net-(U1-A14)*%
X117690000Y-80540000D03*
%TO.P,U1,28,VCC*%
%TO.N,+5V*%
X120230000Y-80540000D03*
%TD*%
D10*
%TO.P,C1,1*%
%TO.N,+5V*%
X87000000Y-51875000D03*
%TO.P,C1,2*%
%TO.N,GND*%
X87000000Y-54375000D03*
%TD*%
D12*
%TO.P,SW1,1*%
%TO.N,GND*%
X116735000Y-56750000D03*
D11*
%TO.P,SW1,2*%
X119275000Y-56750000D03*
%TO.P,SW1,3*%
%TO.N,Net-(U1-A15)*%
X119275000Y-49130000D03*
%TO.P,SW1,4*%
%TO.N,Net-(U1-A14)*%
X116735000Y-49130000D03*
%TD*%
D10*
%TO.P,R1,1*%
%TO.N,+5V*%
X106830000Y-61000000D03*
D11*
%TO.P,R1,2*%
%TO.N,Net-(U1-A15)*%
X96670000Y-61000000D03*
%TD*%
D12*
%TO.P,U2,1*%
%TO.N,Net-(J1-A15)*%
X90610000Y-56770000D03*
D11*
%TO.P,U2,2*%
%TO.N,Net-(J1-A14)*%
X93150000Y-56770000D03*
%TO.P,U2,3*%
%TO.N,Net-(U2-Pad3)*%
X95690000Y-56770000D03*
%TO.P,U2,4*%
X98230000Y-56770000D03*
%TO.P,U2,5*%
%TO.N,Net-(J1-~{MREQ})*%
X100770000Y-56770000D03*
%TO.P,U2,6*%
%TO.N,Net-(U1-~{CE})*%
X103310000Y-56770000D03*
%TO.P,U2,7,GND*%
%TO.N,GND*%
X105850000Y-56770000D03*
%TO.P,U2,8*%
%TO.N,unconnected-(U2-Pad8)*%
X105850000Y-49150000D03*
%TO.P,U2,9*%
%TO.N,GND*%
X103310000Y-49150000D03*
%TO.P,U2,10*%
X100770000Y-49150000D03*
%TO.P,U2,11*%
%TO.N,unconnected-(U2-Pad11)*%
X98230000Y-49150000D03*
%TO.P,U2,12*%
%TO.N,GND*%
X95690000Y-49150000D03*
%TO.P,U2,13*%
X93150000Y-49150000D03*
%TO.P,U2,14,VCC*%
%TO.N,+5V*%
X90610000Y-49150000D03*
%TD*%
D13*
%TO.P,J1,2,Vcc*%
%TO.N,+5V*%
X121310000Y-92275000D03*
%TO.P,J1,4,A15*%
%TO.N,Net-(J1-A15)*%
X118770000Y-92275000D03*
%TO.P,J1,6,A13*%
%TO.N,A13*%
X116230000Y-92275000D03*
%TO.P,J1,8,A8*%
%TO.N,A8*%
X113690000Y-92275000D03*
%TO.P,J1,10,A9*%
%TO.N,A9*%
X108610000Y-92275000D03*
%TO.P,J1,12,A11*%
%TO.N,A11*%
X106070000Y-92275000D03*
%TO.P,J1,14,~{MREQ}*%
%TO.N,Net-(J1-~{MREQ})*%
X103530000Y-92275000D03*
%TO.P,J1,16,A10*%
%TO.N,A10*%
X100990000Y-92275000D03*
%TO.P,J1,18,A14*%
%TO.N,Net-(J1-A14)*%
X98450000Y-92275000D03*
%TO.P,J1,20,D7*%
%TO.N,D7*%
X95910000Y-92275000D03*
%TO.P,J1,22,D6*%
%TO.N,D6*%
X93370000Y-92275000D03*
%TO.P,J1,24,D5*%
%TO.N,D5*%
X90830000Y-92275000D03*
%TO.P,J1,26,D4*%
%TO.N,D4*%
X88290000Y-92275000D03*
%TO.P,J1,28,D3*%
%TO.N,D3*%
X85750000Y-92275000D03*
%TD*%
D14*
%TO.N,A2*%
X101786900Y-88269000D03*
%TO.N,A1*%
X99720000Y-91720500D03*
%TO.N,A0*%
X97180000Y-91720500D03*
%TO.N,A5*%
X109900700Y-92148200D03*
%TO.N,A4*%
X104800000Y-91720500D03*
%TO.N,A3*%
X104800000Y-89554700D03*
%TD*%
D15*
%TO.N,+5V*%
X121310000Y-82721700D02*
X120230000Y-81641700D01*
X120230000Y-80540000D02*
X120230000Y-81641700D01*
X121310000Y-92275000D02*
X121310000Y-82721700D01*
%TO.N,Net-(J1-A15)*%
X90610000Y-56770000D02*
X91711700Y-56770000D01*
X118770000Y-92275000D02*
X118770000Y-86620000D01*
X116278500Y-84128500D02*
X116278500Y-80096400D01*
X101180000Y-65620500D02*
X101180000Y-63857700D01*
X94412600Y-56417300D02*
X93634200Y-55638900D01*
X92705100Y-55638900D02*
X91711700Y-56632300D01*
X113934500Y-78375000D02*
X101180000Y-65620500D01*
X101180000Y-63857700D02*
X94412600Y-57090300D01*
X114557100Y-78375000D02*
X113934500Y-78375000D01*
X94412600Y-57090300D02*
X94412600Y-56417300D01*
X91711700Y-56632300D02*
X91711700Y-56770000D01*
X93634200Y-55638900D02*
X92705100Y-55638900D01*
X118770000Y-86620000D02*
X116278500Y-84128500D01*
X116278500Y-80096400D02*
X114557100Y-78375000D01*
%TO.N,A13*%
X115150000Y-84450000D02*
X115150000Y-80540000D01*
X116125000Y-85425000D02*
X115150000Y-84450000D01*
X116230000Y-85730000D02*
X116125000Y-85625000D01*
X116230000Y-92275000D02*
X116230000Y-85730000D01*
X116125000Y-85625000D02*
X116125000Y-85425000D01*
%TO.N,D3*%
X85750000Y-83101700D02*
X85750000Y-92275000D01*
X87210000Y-80540000D02*
X87210000Y-81641700D01*
X87210000Y-81641700D02*
X85750000Y-83101700D01*
%TO.N,D6*%
X94830000Y-81641700D02*
X93370000Y-83101700D01*
X93370000Y-83101700D02*
X93370000Y-92275000D01*
X94830000Y-80540000D02*
X94830000Y-81641700D01*
%TO.N,D7*%
X97370000Y-81641700D02*
X95910000Y-83101700D01*
X95910000Y-83101700D02*
X95910000Y-92275000D01*
X97370000Y-80540000D02*
X97370000Y-81641700D01*
%TO.N,D4*%
X89750000Y-80540000D02*
X89750000Y-81641700D01*
X88290000Y-83101700D02*
X88290000Y-92275000D01*
X89750000Y-81641700D02*
X88290000Y-83101700D01*
%TO.N,A8*%
X113690000Y-92275000D02*
X113690000Y-81620000D01*
X113690000Y-81620000D02*
X112610000Y-80540000D01*
%TO.N,A9*%
X108610000Y-82000000D02*
X110070000Y-80540000D01*
X108610000Y-92275000D02*
X108610000Y-82000000D01*
%TO.N,A10*%
X102450000Y-81641700D02*
X100990000Y-83101700D01*
X102450000Y-80540000D02*
X102450000Y-81641700D01*
X100990000Y-83101700D02*
X100990000Y-92275000D01*
%TO.N,D5*%
X90830000Y-83101700D02*
X90830000Y-92275000D01*
X92290000Y-80540000D02*
X92290000Y-81641700D01*
X92290000Y-81641700D02*
X90830000Y-83101700D01*
%TO.N,Net-(J1-A14)*%
X93150000Y-59320000D02*
X98526600Y-64696600D01*
X93150000Y-56770000D02*
X93150000Y-59320000D01*
X98526600Y-64696600D02*
X98526600Y-92198400D01*
X98526600Y-92198400D02*
X98450000Y-92275000D01*
%TO.N,A11*%
X106070000Y-92275000D02*
X106070000Y-82000000D01*
X106070000Y-82000000D02*
X107530000Y-80540000D01*
%TO.N,Net-(J1-~{MREQ})*%
X104990000Y-81641700D02*
X103530000Y-83101700D01*
X104990000Y-80540000D02*
X104990000Y-81641700D01*
X103530000Y-83101700D02*
X103530000Y-92275000D01*
%TD*%
M02*
