%TF.GenerationSoftware,KiCad,Pcbnew,8.0.1*%
%TF.CreationDate,2024-04-05T09:22:38+02:00*%
%TF.ProjectId,zx-interface-2-rom,7a782d69-6e74-4657-9266-6163652d322d,rev?*%
%TF.SameCoordinates,Original*%
%TF.FileFunction,Legend,Top*%
%TF.FilePolarity,Positive*%
%FSLAX46Y46*%
G04 Gerber Fmt 4.6, Leading zero omitted, Abs format (unit mm)*
G04 Created by KiCad (PCBNEW 8.0.1) date 2024-04-05 09:22:38*
%MOMM*%
%LPD*%
G01*
G04 APERTURE LIST*
%ADD10C,0.150000*%
%ADD11C,0.100000*%
%ADD12C,0.120000*%
G04 APERTURE END LIST*
D10*
X114864285Y-60913152D02*
X114864285Y-61579819D01*
X114626190Y-60532200D02*
X114388095Y-61246485D01*
X114388095Y-61246485D02*
X115007142Y-61246485D01*
X115388095Y-61579819D02*
X115388095Y-60579819D01*
X115959523Y-61579819D02*
X115530952Y-61008390D01*
X115959523Y-60579819D02*
X115388095Y-61151247D01*
X116292857Y-60579819D02*
X116959523Y-60579819D01*
X116959523Y-60579819D02*
X116530952Y-61579819D01*
X86227380Y-63504819D02*
X85655952Y-63504819D01*
X85941666Y-63504819D02*
X85941666Y-62504819D01*
X85941666Y-62504819D02*
X85846428Y-62647676D01*
X85846428Y-62647676D02*
X85751190Y-62742914D01*
X85751190Y-62742914D02*
X85655952Y-62790533D01*
X86846428Y-62504819D02*
X86941666Y-62504819D01*
X86941666Y-62504819D02*
X87036904Y-62552438D01*
X87036904Y-62552438D02*
X87084523Y-62600057D01*
X87084523Y-62600057D02*
X87132142Y-62695295D01*
X87132142Y-62695295D02*
X87179761Y-62885771D01*
X87179761Y-62885771D02*
X87179761Y-63123866D01*
X87179761Y-63123866D02*
X87132142Y-63314342D01*
X87132142Y-63314342D02*
X87084523Y-63409580D01*
X87084523Y-63409580D02*
X87036904Y-63457200D01*
X87036904Y-63457200D02*
X86941666Y-63504819D01*
X86941666Y-63504819D02*
X86846428Y-63504819D01*
X86846428Y-63504819D02*
X86751190Y-63457200D01*
X86751190Y-63457200D02*
X86703571Y-63409580D01*
X86703571Y-63409580D02*
X86655952Y-63314342D01*
X86655952Y-63314342D02*
X86608333Y-63123866D01*
X86608333Y-63123866D02*
X86608333Y-62885771D01*
X86608333Y-62885771D02*
X86655952Y-62695295D01*
X86655952Y-62695295D02*
X86703571Y-62600057D01*
X86703571Y-62600057D02*
X86751190Y-62552438D01*
X86751190Y-62552438D02*
X86846428Y-62504819D01*
X87798809Y-62504819D02*
X87894047Y-62504819D01*
X87894047Y-62504819D02*
X87989285Y-62552438D01*
X87989285Y-62552438D02*
X88036904Y-62600057D01*
X88036904Y-62600057D02*
X88084523Y-62695295D01*
X88084523Y-62695295D02*
X88132142Y-62885771D01*
X88132142Y-62885771D02*
X88132142Y-63123866D01*
X88132142Y-63123866D02*
X88084523Y-63314342D01*
X88084523Y-63314342D02*
X88036904Y-63409580D01*
X88036904Y-63409580D02*
X87989285Y-63457200D01*
X87989285Y-63457200D02*
X87894047Y-63504819D01*
X87894047Y-63504819D02*
X87798809Y-63504819D01*
X87798809Y-63504819D02*
X87703571Y-63457200D01*
X87703571Y-63457200D02*
X87655952Y-63409580D01*
X87655952Y-63409580D02*
X87608333Y-63314342D01*
X87608333Y-63314342D02*
X87560714Y-63123866D01*
X87560714Y-63123866D02*
X87560714Y-62885771D01*
X87560714Y-62885771D02*
X87608333Y-62695295D01*
X87608333Y-62695295D02*
X87655952Y-62600057D01*
X87655952Y-62600057D02*
X87703571Y-62552438D01*
X87703571Y-62552438D02*
X87798809Y-62504819D01*
X88560714Y-62838152D02*
X88560714Y-63504819D01*
X88560714Y-62933390D02*
X88608333Y-62885771D01*
X88608333Y-62885771D02*
X88703571Y-62838152D01*
X88703571Y-62838152D02*
X88846428Y-62838152D01*
X88846428Y-62838152D02*
X88941666Y-62885771D01*
X88941666Y-62885771D02*
X88989285Y-62981009D01*
X88989285Y-62981009D02*
X88989285Y-63504819D01*
X89798809Y-62981009D02*
X89465476Y-62981009D01*
X89465476Y-63504819D02*
X89465476Y-62504819D01*
X89465476Y-62504819D02*
X89941666Y-62504819D01*
X100415476Y-72479819D02*
X100653571Y-73479819D01*
X100653571Y-73479819D02*
X100844047Y-72765533D01*
X100844047Y-72765533D02*
X101034523Y-73479819D01*
X101034523Y-73479819D02*
X101272619Y-72479819D01*
X101605952Y-72575057D02*
X101653571Y-72527438D01*
X101653571Y-72527438D02*
X101748809Y-72479819D01*
X101748809Y-72479819D02*
X101986904Y-72479819D01*
X101986904Y-72479819D02*
X102082142Y-72527438D01*
X102082142Y-72527438D02*
X102129761Y-72575057D01*
X102129761Y-72575057D02*
X102177380Y-72670295D01*
X102177380Y-72670295D02*
X102177380Y-72765533D01*
X102177380Y-72765533D02*
X102129761Y-72908390D01*
X102129761Y-72908390D02*
X101558333Y-73479819D01*
X101558333Y-73479819D02*
X102177380Y-73479819D01*
X102510714Y-72479819D02*
X103177380Y-72479819D01*
X103177380Y-72479819D02*
X102748809Y-73479819D01*
X104129761Y-73384580D02*
X104082142Y-73432200D01*
X104082142Y-73432200D02*
X103939285Y-73479819D01*
X103939285Y-73479819D02*
X103844047Y-73479819D01*
X103844047Y-73479819D02*
X103701190Y-73432200D01*
X103701190Y-73432200D02*
X103605952Y-73336961D01*
X103605952Y-73336961D02*
X103558333Y-73241723D01*
X103558333Y-73241723D02*
X103510714Y-73051247D01*
X103510714Y-73051247D02*
X103510714Y-72908390D01*
X103510714Y-72908390D02*
X103558333Y-72717914D01*
X103558333Y-72717914D02*
X103605952Y-72622676D01*
X103605952Y-72622676D02*
X103701190Y-72527438D01*
X103701190Y-72527438D02*
X103844047Y-72479819D01*
X103844047Y-72479819D02*
X103939285Y-72479819D01*
X103939285Y-72479819D02*
X104082142Y-72527438D01*
X104082142Y-72527438D02*
X104129761Y-72575057D01*
X105034523Y-72479819D02*
X104558333Y-72479819D01*
X104558333Y-72479819D02*
X104510714Y-72956009D01*
X104510714Y-72956009D02*
X104558333Y-72908390D01*
X104558333Y-72908390D02*
X104653571Y-72860771D01*
X104653571Y-72860771D02*
X104891666Y-72860771D01*
X104891666Y-72860771D02*
X104986904Y-72908390D01*
X104986904Y-72908390D02*
X105034523Y-72956009D01*
X105034523Y-72956009D02*
X105082142Y-73051247D01*
X105082142Y-73051247D02*
X105082142Y-73289342D01*
X105082142Y-73289342D02*
X105034523Y-73384580D01*
X105034523Y-73384580D02*
X104986904Y-73432200D01*
X104986904Y-73432200D02*
X104891666Y-73479819D01*
X104891666Y-73479819D02*
X104653571Y-73479819D01*
X104653571Y-73479819D02*
X104558333Y-73432200D01*
X104558333Y-73432200D02*
X104510714Y-73384580D01*
X106034523Y-73479819D02*
X105463095Y-73479819D01*
X105748809Y-73479819D02*
X105748809Y-72479819D01*
X105748809Y-72479819D02*
X105653571Y-72622676D01*
X105653571Y-72622676D02*
X105558333Y-72717914D01*
X105558333Y-72717914D02*
X105463095Y-72765533D01*
X106415476Y-72575057D02*
X106463095Y-72527438D01*
X106463095Y-72527438D02*
X106558333Y-72479819D01*
X106558333Y-72479819D02*
X106796428Y-72479819D01*
X106796428Y-72479819D02*
X106891666Y-72527438D01*
X106891666Y-72527438D02*
X106939285Y-72575057D01*
X106939285Y-72575057D02*
X106986904Y-72670295D01*
X106986904Y-72670295D02*
X106986904Y-72765533D01*
X106986904Y-72765533D02*
X106939285Y-72908390D01*
X106939285Y-72908390D02*
X106367857Y-73479819D01*
X106367857Y-73479819D02*
X106986904Y-73479819D01*
X85404819Y-54672619D02*
X85404819Y-55244047D01*
X85404819Y-54958333D02*
X84404819Y-54958333D01*
X84404819Y-54958333D02*
X84547676Y-55053571D01*
X84547676Y-55053571D02*
X84642914Y-55148809D01*
X84642914Y-55148809D02*
X84690533Y-55244047D01*
X84404819Y-54053571D02*
X84404819Y-53958333D01*
X84404819Y-53958333D02*
X84452438Y-53863095D01*
X84452438Y-53863095D02*
X84500057Y-53815476D01*
X84500057Y-53815476D02*
X84595295Y-53767857D01*
X84595295Y-53767857D02*
X84785771Y-53720238D01*
X84785771Y-53720238D02*
X85023866Y-53720238D01*
X85023866Y-53720238D02*
X85214342Y-53767857D01*
X85214342Y-53767857D02*
X85309580Y-53815476D01*
X85309580Y-53815476D02*
X85357200Y-53863095D01*
X85357200Y-53863095D02*
X85404819Y-53958333D01*
X85404819Y-53958333D02*
X85404819Y-54053571D01*
X85404819Y-54053571D02*
X85357200Y-54148809D01*
X85357200Y-54148809D02*
X85309580Y-54196428D01*
X85309580Y-54196428D02*
X85214342Y-54244047D01*
X85214342Y-54244047D02*
X85023866Y-54291666D01*
X85023866Y-54291666D02*
X84785771Y-54291666D01*
X84785771Y-54291666D02*
X84595295Y-54244047D01*
X84595295Y-54244047D02*
X84500057Y-54196428D01*
X84500057Y-54196428D02*
X84452438Y-54148809D01*
X84452438Y-54148809D02*
X84404819Y-54053571D01*
X84404819Y-53101190D02*
X84404819Y-53005952D01*
X84404819Y-53005952D02*
X84452438Y-52910714D01*
X84452438Y-52910714D02*
X84500057Y-52863095D01*
X84500057Y-52863095D02*
X84595295Y-52815476D01*
X84595295Y-52815476D02*
X84785771Y-52767857D01*
X84785771Y-52767857D02*
X85023866Y-52767857D01*
X85023866Y-52767857D02*
X85214342Y-52815476D01*
X85214342Y-52815476D02*
X85309580Y-52863095D01*
X85309580Y-52863095D02*
X85357200Y-52910714D01*
X85357200Y-52910714D02*
X85404819Y-53005952D01*
X85404819Y-53005952D02*
X85404819Y-53101190D01*
X85404819Y-53101190D02*
X85357200Y-53196428D01*
X85357200Y-53196428D02*
X85309580Y-53244047D01*
X85309580Y-53244047D02*
X85214342Y-53291666D01*
X85214342Y-53291666D02*
X85023866Y-53339285D01*
X85023866Y-53339285D02*
X84785771Y-53339285D01*
X84785771Y-53339285D02*
X84595295Y-53291666D01*
X84595295Y-53291666D02*
X84500057Y-53244047D01*
X84500057Y-53244047D02*
X84452438Y-53196428D01*
X84452438Y-53196428D02*
X84404819Y-53101190D01*
X84738152Y-52339285D02*
X85404819Y-52339285D01*
X84833390Y-52339285D02*
X84785771Y-52291666D01*
X84785771Y-52291666D02*
X84738152Y-52196428D01*
X84738152Y-52196428D02*
X84738152Y-52053571D01*
X84738152Y-52053571D02*
X84785771Y-51958333D01*
X84785771Y-51958333D02*
X84881009Y-51910714D01*
X84881009Y-51910714D02*
X85404819Y-51910714D01*
X84881009Y-51101190D02*
X84881009Y-51434523D01*
X85404819Y-51434523D02*
X84404819Y-51434523D01*
X84404819Y-51434523D02*
X84404819Y-50958333D01*
X114032200Y-54273332D02*
X114079819Y-54130475D01*
X114079819Y-54130475D02*
X114079819Y-53892380D01*
X114079819Y-53892380D02*
X114032200Y-53797142D01*
X114032200Y-53797142D02*
X113984580Y-53749523D01*
X113984580Y-53749523D02*
X113889342Y-53701904D01*
X113889342Y-53701904D02*
X113794104Y-53701904D01*
X113794104Y-53701904D02*
X113698866Y-53749523D01*
X113698866Y-53749523D02*
X113651247Y-53797142D01*
X113651247Y-53797142D02*
X113603628Y-53892380D01*
X113603628Y-53892380D02*
X113556009Y-54082856D01*
X113556009Y-54082856D02*
X113508390Y-54178094D01*
X113508390Y-54178094D02*
X113460771Y-54225713D01*
X113460771Y-54225713D02*
X113365533Y-54273332D01*
X113365533Y-54273332D02*
X113270295Y-54273332D01*
X113270295Y-54273332D02*
X113175057Y-54225713D01*
X113175057Y-54225713D02*
X113127438Y-54178094D01*
X113127438Y-54178094D02*
X113079819Y-54082856D01*
X113079819Y-54082856D02*
X113079819Y-53844761D01*
X113079819Y-53844761D02*
X113127438Y-53701904D01*
X113079819Y-53368570D02*
X114079819Y-53130475D01*
X114079819Y-53130475D02*
X113365533Y-52939999D01*
X113365533Y-52939999D02*
X114079819Y-52749523D01*
X114079819Y-52749523D02*
X113079819Y-52511428D01*
X114079819Y-51606666D02*
X114079819Y-52178094D01*
X114079819Y-51892380D02*
X113079819Y-51892380D01*
X113079819Y-51892380D02*
X113222676Y-51987618D01*
X113222676Y-51987618D02*
X113317914Y-52082856D01*
X113317914Y-52082856D02*
X113365533Y-52178094D01*
X101114285Y-60763152D02*
X101114285Y-61429819D01*
X100876190Y-60382200D02*
X100638095Y-61096485D01*
X100638095Y-61096485D02*
X101257142Y-61096485D01*
X101638095Y-61429819D02*
X101638095Y-60429819D01*
X102209523Y-61429819D02*
X101780952Y-60858390D01*
X102209523Y-60429819D02*
X101638095Y-61001247D01*
X102542857Y-60429819D02*
X103209523Y-60429819D01*
X103209523Y-60429819D02*
X102780952Y-61429819D01*
X95507143Y-52414819D02*
X96173809Y-52414819D01*
X96173809Y-52414819D02*
X95745238Y-53414819D01*
X96983333Y-52748152D02*
X96983333Y-53414819D01*
X96745238Y-52367200D02*
X96507143Y-53081485D01*
X96507143Y-53081485D02*
X97126190Y-53081485D01*
X97983333Y-53414819D02*
X97507143Y-53414819D01*
X97507143Y-53414819D02*
X97507143Y-52414819D01*
X98269048Y-53367200D02*
X98411905Y-53414819D01*
X98411905Y-53414819D02*
X98650000Y-53414819D01*
X98650000Y-53414819D02*
X98745238Y-53367200D01*
X98745238Y-53367200D02*
X98792857Y-53319580D01*
X98792857Y-53319580D02*
X98840476Y-53224342D01*
X98840476Y-53224342D02*
X98840476Y-53129104D01*
X98840476Y-53129104D02*
X98792857Y-53033866D01*
X98792857Y-53033866D02*
X98745238Y-52986247D01*
X98745238Y-52986247D02*
X98650000Y-52938628D01*
X98650000Y-52938628D02*
X98459524Y-52891009D01*
X98459524Y-52891009D02*
X98364286Y-52843390D01*
X98364286Y-52843390D02*
X98316667Y-52795771D01*
X98316667Y-52795771D02*
X98269048Y-52700533D01*
X98269048Y-52700533D02*
X98269048Y-52605295D01*
X98269048Y-52605295D02*
X98316667Y-52510057D01*
X98316667Y-52510057D02*
X98364286Y-52462438D01*
X98364286Y-52462438D02*
X98459524Y-52414819D01*
X98459524Y-52414819D02*
X98697619Y-52414819D01*
X98697619Y-52414819D02*
X98840476Y-52462438D01*
X99173810Y-52414819D02*
X99792857Y-52414819D01*
X99792857Y-52414819D02*
X99459524Y-52795771D01*
X99459524Y-52795771D02*
X99602381Y-52795771D01*
X99602381Y-52795771D02*
X99697619Y-52843390D01*
X99697619Y-52843390D02*
X99745238Y-52891009D01*
X99745238Y-52891009D02*
X99792857Y-52986247D01*
X99792857Y-52986247D02*
X99792857Y-53224342D01*
X99792857Y-53224342D02*
X99745238Y-53319580D01*
X99745238Y-53319580D02*
X99697619Y-53367200D01*
X99697619Y-53367200D02*
X99602381Y-53414819D01*
X99602381Y-53414819D02*
X99316667Y-53414819D01*
X99316667Y-53414819D02*
X99221429Y-53367200D01*
X99221429Y-53367200D02*
X99173810Y-53319580D01*
X100173810Y-52510057D02*
X100221429Y-52462438D01*
X100221429Y-52462438D02*
X100316667Y-52414819D01*
X100316667Y-52414819D02*
X100554762Y-52414819D01*
X100554762Y-52414819D02*
X100650000Y-52462438D01*
X100650000Y-52462438D02*
X100697619Y-52510057D01*
X100697619Y-52510057D02*
X100745238Y-52605295D01*
X100745238Y-52605295D02*
X100745238Y-52700533D01*
X100745238Y-52700533D02*
X100697619Y-52843390D01*
X100697619Y-52843390D02*
X100126191Y-53414819D01*
X100126191Y-53414819D02*
X100745238Y-53414819D01*
D11*
X98736704Y-87831265D02*
X98736704Y-88307455D01*
X99022419Y-87736027D02*
X98022419Y-88069360D01*
X98022419Y-88069360D02*
X99022419Y-88402693D01*
X99022419Y-89259836D02*
X99022419Y-88688408D01*
X99022419Y-88974122D02*
X98022419Y-88974122D01*
X98022419Y-88974122D02*
X98165276Y-88878884D01*
X98165276Y-88878884D02*
X98260514Y-88783646D01*
X98260514Y-88783646D02*
X98308133Y-88688408D01*
X98355752Y-90116979D02*
X99022419Y-90116979D01*
X97974800Y-89878884D02*
X98689085Y-89640789D01*
X98689085Y-89640789D02*
X98689085Y-90259836D01*
X96422419Y-87978884D02*
X95422419Y-87978884D01*
X95422419Y-87978884D02*
X95422419Y-88216979D01*
X95422419Y-88216979D02*
X95470038Y-88359836D01*
X95470038Y-88359836D02*
X95565276Y-88455074D01*
X95565276Y-88455074D02*
X95660514Y-88502693D01*
X95660514Y-88502693D02*
X95850990Y-88550312D01*
X95850990Y-88550312D02*
X95993847Y-88550312D01*
X95993847Y-88550312D02*
X96184323Y-88502693D01*
X96184323Y-88502693D02*
X96279561Y-88455074D01*
X96279561Y-88455074D02*
X96374800Y-88359836D01*
X96374800Y-88359836D02*
X96422419Y-88216979D01*
X96422419Y-88216979D02*
X96422419Y-87978884D01*
X95422419Y-88883646D02*
X95422419Y-89550312D01*
X95422419Y-89550312D02*
X96422419Y-89121741D01*
X101236704Y-87831265D02*
X101236704Y-88307455D01*
X101522419Y-87736027D02*
X100522419Y-88069360D01*
X100522419Y-88069360D02*
X101522419Y-88402693D01*
X101522419Y-89259836D02*
X101522419Y-88688408D01*
X101522419Y-88974122D02*
X100522419Y-88974122D01*
X100522419Y-88974122D02*
X100665276Y-88878884D01*
X100665276Y-88878884D02*
X100760514Y-88783646D01*
X100760514Y-88783646D02*
X100808133Y-88688408D01*
X100522419Y-89878884D02*
X100522419Y-89974122D01*
X100522419Y-89974122D02*
X100570038Y-90069360D01*
X100570038Y-90069360D02*
X100617657Y-90116979D01*
X100617657Y-90116979D02*
X100712895Y-90164598D01*
X100712895Y-90164598D02*
X100903371Y-90212217D01*
X100903371Y-90212217D02*
X101141466Y-90212217D01*
X101141466Y-90212217D02*
X101331942Y-90164598D01*
X101331942Y-90164598D02*
X101427180Y-90116979D01*
X101427180Y-90116979D02*
X101474800Y-90069360D01*
X101474800Y-90069360D02*
X101522419Y-89974122D01*
X101522419Y-89974122D02*
X101522419Y-89878884D01*
X101522419Y-89878884D02*
X101474800Y-89783646D01*
X101474800Y-89783646D02*
X101427180Y-89736027D01*
X101427180Y-89736027D02*
X101331942Y-89688408D01*
X101331942Y-89688408D02*
X101141466Y-89640789D01*
X101141466Y-89640789D02*
X100903371Y-89640789D01*
X100903371Y-89640789D02*
X100712895Y-89688408D01*
X100712895Y-89688408D02*
X100617657Y-89736027D01*
X100617657Y-89736027D02*
X100570038Y-89783646D01*
X100570038Y-89783646D02*
X100522419Y-89878884D01*
X93822419Y-87578884D02*
X92822419Y-87578884D01*
X92822419Y-87578884D02*
X92822419Y-87816979D01*
X92822419Y-87816979D02*
X92870038Y-87959836D01*
X92870038Y-87959836D02*
X92965276Y-88055074D01*
X92965276Y-88055074D02*
X93060514Y-88102693D01*
X93060514Y-88102693D02*
X93250990Y-88150312D01*
X93250990Y-88150312D02*
X93393847Y-88150312D01*
X93393847Y-88150312D02*
X93584323Y-88102693D01*
X93584323Y-88102693D02*
X93679561Y-88055074D01*
X93679561Y-88055074D02*
X93774800Y-87959836D01*
X93774800Y-87959836D02*
X93822419Y-87816979D01*
X93822419Y-87816979D02*
X93822419Y-87578884D01*
X92822419Y-89007455D02*
X92822419Y-88816979D01*
X92822419Y-88816979D02*
X92870038Y-88721741D01*
X92870038Y-88721741D02*
X92917657Y-88674122D01*
X92917657Y-88674122D02*
X93060514Y-88578884D01*
X93060514Y-88578884D02*
X93250990Y-88531265D01*
X93250990Y-88531265D02*
X93631942Y-88531265D01*
X93631942Y-88531265D02*
X93727180Y-88578884D01*
X93727180Y-88578884D02*
X93774800Y-88626503D01*
X93774800Y-88626503D02*
X93822419Y-88721741D01*
X93822419Y-88721741D02*
X93822419Y-88912217D01*
X93822419Y-88912217D02*
X93774800Y-89007455D01*
X93774800Y-89007455D02*
X93727180Y-89055074D01*
X93727180Y-89055074D02*
X93631942Y-89102693D01*
X93631942Y-89102693D02*
X93393847Y-89102693D01*
X93393847Y-89102693D02*
X93298609Y-89055074D01*
X93298609Y-89055074D02*
X93250990Y-89007455D01*
X93250990Y-89007455D02*
X93203371Y-88912217D01*
X93203371Y-88912217D02*
X93203371Y-88721741D01*
X93203371Y-88721741D02*
X93250990Y-88626503D01*
X93250990Y-88626503D02*
X93298609Y-88578884D01*
X93298609Y-88578884D02*
X93393847Y-88531265D01*
X118936704Y-87831265D02*
X118936704Y-88307455D01*
X119222419Y-87736027D02*
X118222419Y-88069360D01*
X118222419Y-88069360D02*
X119222419Y-88402693D01*
X119222419Y-89259836D02*
X119222419Y-88688408D01*
X119222419Y-88974122D02*
X118222419Y-88974122D01*
X118222419Y-88974122D02*
X118365276Y-88878884D01*
X118365276Y-88878884D02*
X118460514Y-88783646D01*
X118460514Y-88783646D02*
X118508133Y-88688408D01*
X118222419Y-90164598D02*
X118222419Y-89688408D01*
X118222419Y-89688408D02*
X118698609Y-89640789D01*
X118698609Y-89640789D02*
X118650990Y-89688408D01*
X118650990Y-89688408D02*
X118603371Y-89783646D01*
X118603371Y-89783646D02*
X118603371Y-90021741D01*
X118603371Y-90021741D02*
X118650990Y-90116979D01*
X118650990Y-90116979D02*
X118698609Y-90164598D01*
X118698609Y-90164598D02*
X118793847Y-90212217D01*
X118793847Y-90212217D02*
X119031942Y-90212217D01*
X119031942Y-90212217D02*
X119127180Y-90164598D01*
X119127180Y-90164598D02*
X119174800Y-90116979D01*
X119174800Y-90116979D02*
X119222419Y-90021741D01*
X119222419Y-90021741D02*
X119222419Y-89783646D01*
X119222419Y-89783646D02*
X119174800Y-89688408D01*
X119174800Y-89688408D02*
X119127180Y-89640789D01*
X116436704Y-87831265D02*
X116436704Y-88307455D01*
X116722419Y-87736027D02*
X115722419Y-88069360D01*
X115722419Y-88069360D02*
X116722419Y-88402693D01*
X116722419Y-89259836D02*
X116722419Y-88688408D01*
X116722419Y-88974122D02*
X115722419Y-88974122D01*
X115722419Y-88974122D02*
X115865276Y-88878884D01*
X115865276Y-88878884D02*
X115960514Y-88783646D01*
X115960514Y-88783646D02*
X116008133Y-88688408D01*
X115722419Y-89593170D02*
X115722419Y-90212217D01*
X115722419Y-90212217D02*
X116103371Y-89878884D01*
X116103371Y-89878884D02*
X116103371Y-90021741D01*
X116103371Y-90021741D02*
X116150990Y-90116979D01*
X116150990Y-90116979D02*
X116198609Y-90164598D01*
X116198609Y-90164598D02*
X116293847Y-90212217D01*
X116293847Y-90212217D02*
X116531942Y-90212217D01*
X116531942Y-90212217D02*
X116627180Y-90164598D01*
X116627180Y-90164598D02*
X116674800Y-90116979D01*
X116674800Y-90116979D02*
X116722419Y-90021741D01*
X116722419Y-90021741D02*
X116722419Y-89736027D01*
X116722419Y-89736027D02*
X116674800Y-89640789D01*
X116674800Y-89640789D02*
X116627180Y-89593170D01*
X86322419Y-87578884D02*
X85322419Y-87578884D01*
X85322419Y-87578884D02*
X85322419Y-87816979D01*
X85322419Y-87816979D02*
X85370038Y-87959836D01*
X85370038Y-87959836D02*
X85465276Y-88055074D01*
X85465276Y-88055074D02*
X85560514Y-88102693D01*
X85560514Y-88102693D02*
X85750990Y-88150312D01*
X85750990Y-88150312D02*
X85893847Y-88150312D01*
X85893847Y-88150312D02*
X86084323Y-88102693D01*
X86084323Y-88102693D02*
X86179561Y-88055074D01*
X86179561Y-88055074D02*
X86274800Y-87959836D01*
X86274800Y-87959836D02*
X86322419Y-87816979D01*
X86322419Y-87816979D02*
X86322419Y-87578884D01*
X85322419Y-88483646D02*
X85322419Y-89102693D01*
X85322419Y-89102693D02*
X85703371Y-88769360D01*
X85703371Y-88769360D02*
X85703371Y-88912217D01*
X85703371Y-88912217D02*
X85750990Y-89007455D01*
X85750990Y-89007455D02*
X85798609Y-89055074D01*
X85798609Y-89055074D02*
X85893847Y-89102693D01*
X85893847Y-89102693D02*
X86131942Y-89102693D01*
X86131942Y-89102693D02*
X86227180Y-89055074D01*
X86227180Y-89055074D02*
X86274800Y-89007455D01*
X86274800Y-89007455D02*
X86322419Y-88912217D01*
X86322419Y-88912217D02*
X86322419Y-88626503D01*
X86322419Y-88626503D02*
X86274800Y-88531265D01*
X86274800Y-88531265D02*
X86227180Y-88483646D01*
X104022419Y-88078884D02*
X103022419Y-88078884D01*
X103022419Y-88078884D02*
X103736704Y-88412217D01*
X103736704Y-88412217D02*
X103022419Y-88745550D01*
X103022419Y-88745550D02*
X104022419Y-88745550D01*
X104022419Y-89793169D02*
X103546228Y-89459836D01*
X104022419Y-89221741D02*
X103022419Y-89221741D01*
X103022419Y-89221741D02*
X103022419Y-89602693D01*
X103022419Y-89602693D02*
X103070038Y-89697931D01*
X103070038Y-89697931D02*
X103117657Y-89745550D01*
X103117657Y-89745550D02*
X103212895Y-89793169D01*
X103212895Y-89793169D02*
X103355752Y-89793169D01*
X103355752Y-89793169D02*
X103450990Y-89745550D01*
X103450990Y-89745550D02*
X103498609Y-89697931D01*
X103498609Y-89697931D02*
X103546228Y-89602693D01*
X103546228Y-89602693D02*
X103546228Y-89221741D01*
X103498609Y-90221741D02*
X103498609Y-90555074D01*
X104022419Y-90697931D02*
X104022419Y-90221741D01*
X104022419Y-90221741D02*
X103022419Y-90221741D01*
X103022419Y-90221741D02*
X103022419Y-90697931D01*
X104117657Y-91793169D02*
X104070038Y-91697931D01*
X104070038Y-91697931D02*
X103974800Y-91602693D01*
X103974800Y-91602693D02*
X103831942Y-91459836D01*
X103831942Y-91459836D02*
X103784323Y-91364598D01*
X103784323Y-91364598D02*
X103784323Y-91269360D01*
X104022419Y-91316979D02*
X103974800Y-91221741D01*
X103974800Y-91221741D02*
X103879561Y-91126503D01*
X103879561Y-91126503D02*
X103689085Y-91078884D01*
X103689085Y-91078884D02*
X103355752Y-91078884D01*
X103355752Y-91078884D02*
X103165276Y-91126503D01*
X103165276Y-91126503D02*
X103070038Y-91221741D01*
X103070038Y-91221741D02*
X103022419Y-91316979D01*
X103022419Y-91316979D02*
X103022419Y-91507455D01*
X103022419Y-91507455D02*
X103070038Y-91602693D01*
X103070038Y-91602693D02*
X103165276Y-91697931D01*
X103165276Y-91697931D02*
X103355752Y-91745550D01*
X103355752Y-91745550D02*
X103689085Y-91745550D01*
X103689085Y-91745550D02*
X103879561Y-91697931D01*
X103879561Y-91697931D02*
X103974800Y-91602693D01*
X103974800Y-91602693D02*
X104022419Y-91507455D01*
X104022419Y-91507455D02*
X104022419Y-91316979D01*
X102744800Y-87940789D02*
X102744800Y-91836027D01*
X88822419Y-87578884D02*
X87822419Y-87578884D01*
X87822419Y-87578884D02*
X87822419Y-87816979D01*
X87822419Y-87816979D02*
X87870038Y-87959836D01*
X87870038Y-87959836D02*
X87965276Y-88055074D01*
X87965276Y-88055074D02*
X88060514Y-88102693D01*
X88060514Y-88102693D02*
X88250990Y-88150312D01*
X88250990Y-88150312D02*
X88393847Y-88150312D01*
X88393847Y-88150312D02*
X88584323Y-88102693D01*
X88584323Y-88102693D02*
X88679561Y-88055074D01*
X88679561Y-88055074D02*
X88774800Y-87959836D01*
X88774800Y-87959836D02*
X88822419Y-87816979D01*
X88822419Y-87816979D02*
X88822419Y-87578884D01*
X88155752Y-89007455D02*
X88822419Y-89007455D01*
X87774800Y-88769360D02*
X88489085Y-88531265D01*
X88489085Y-88531265D02*
X88489085Y-89150312D01*
X121241466Y-87978884D02*
X121241466Y-88740789D01*
X121622419Y-88359836D02*
X120860514Y-88359836D01*
X120622419Y-89693169D02*
X120622419Y-89216979D01*
X120622419Y-89216979D02*
X121098609Y-89169360D01*
X121098609Y-89169360D02*
X121050990Y-89216979D01*
X121050990Y-89216979D02*
X121003371Y-89312217D01*
X121003371Y-89312217D02*
X121003371Y-89550312D01*
X121003371Y-89550312D02*
X121050990Y-89645550D01*
X121050990Y-89645550D02*
X121098609Y-89693169D01*
X121098609Y-89693169D02*
X121193847Y-89740788D01*
X121193847Y-89740788D02*
X121431942Y-89740788D01*
X121431942Y-89740788D02*
X121527180Y-89693169D01*
X121527180Y-89693169D02*
X121574800Y-89645550D01*
X121574800Y-89645550D02*
X121622419Y-89550312D01*
X121622419Y-89550312D02*
X121622419Y-89312217D01*
X121622419Y-89312217D02*
X121574800Y-89216979D01*
X121574800Y-89216979D02*
X121527180Y-89169360D01*
X120622419Y-90026503D02*
X121622419Y-90359836D01*
X121622419Y-90359836D02*
X120622419Y-90693169D01*
X91222419Y-87578884D02*
X90222419Y-87578884D01*
X90222419Y-87578884D02*
X90222419Y-87816979D01*
X90222419Y-87816979D02*
X90270038Y-87959836D01*
X90270038Y-87959836D02*
X90365276Y-88055074D01*
X90365276Y-88055074D02*
X90460514Y-88102693D01*
X90460514Y-88102693D02*
X90650990Y-88150312D01*
X90650990Y-88150312D02*
X90793847Y-88150312D01*
X90793847Y-88150312D02*
X90984323Y-88102693D01*
X90984323Y-88102693D02*
X91079561Y-88055074D01*
X91079561Y-88055074D02*
X91174800Y-87959836D01*
X91174800Y-87959836D02*
X91222419Y-87816979D01*
X91222419Y-87816979D02*
X91222419Y-87578884D01*
X90222419Y-89055074D02*
X90222419Y-88578884D01*
X90222419Y-88578884D02*
X90698609Y-88531265D01*
X90698609Y-88531265D02*
X90650990Y-88578884D01*
X90650990Y-88578884D02*
X90603371Y-88674122D01*
X90603371Y-88674122D02*
X90603371Y-88912217D01*
X90603371Y-88912217D02*
X90650990Y-89007455D01*
X90650990Y-89007455D02*
X90698609Y-89055074D01*
X90698609Y-89055074D02*
X90793847Y-89102693D01*
X90793847Y-89102693D02*
X91031942Y-89102693D01*
X91031942Y-89102693D02*
X91127180Y-89055074D01*
X91127180Y-89055074D02*
X91174800Y-89007455D01*
X91174800Y-89007455D02*
X91222419Y-88912217D01*
X91222419Y-88912217D02*
X91222419Y-88674122D01*
X91222419Y-88674122D02*
X91174800Y-88578884D01*
X91174800Y-88578884D02*
X91127180Y-88531265D01*
X106336704Y-87831265D02*
X106336704Y-88307455D01*
X106622419Y-87736027D02*
X105622419Y-88069360D01*
X105622419Y-88069360D02*
X106622419Y-88402693D01*
X106622419Y-89259836D02*
X106622419Y-88688408D01*
X106622419Y-88974122D02*
X105622419Y-88974122D01*
X105622419Y-88974122D02*
X105765276Y-88878884D01*
X105765276Y-88878884D02*
X105860514Y-88783646D01*
X105860514Y-88783646D02*
X105908133Y-88688408D01*
X106622419Y-90212217D02*
X106622419Y-89640789D01*
X106622419Y-89926503D02*
X105622419Y-89926503D01*
X105622419Y-89926503D02*
X105765276Y-89831265D01*
X105765276Y-89831265D02*
X105860514Y-89736027D01*
X105860514Y-89736027D02*
X105908133Y-89640789D01*
X111622419Y-87878884D02*
X110622419Y-87878884D01*
X110622419Y-87878884D02*
X111622419Y-88450312D01*
X111622419Y-88450312D02*
X110622419Y-88450312D01*
X110574800Y-89640788D02*
X111860514Y-88783646D01*
X111527180Y-90545550D02*
X111574800Y-90497931D01*
X111574800Y-90497931D02*
X111622419Y-90355074D01*
X111622419Y-90355074D02*
X111622419Y-90259836D01*
X111622419Y-90259836D02*
X111574800Y-90116979D01*
X111574800Y-90116979D02*
X111479561Y-90021741D01*
X111479561Y-90021741D02*
X111384323Y-89974122D01*
X111384323Y-89974122D02*
X111193847Y-89926503D01*
X111193847Y-89926503D02*
X111050990Y-89926503D01*
X111050990Y-89926503D02*
X110860514Y-89974122D01*
X110860514Y-89974122D02*
X110765276Y-90021741D01*
X110765276Y-90021741D02*
X110670038Y-90116979D01*
X110670038Y-90116979D02*
X110622419Y-90259836D01*
X110622419Y-90259836D02*
X110622419Y-90355074D01*
X110622419Y-90355074D02*
X110670038Y-90497931D01*
X110670038Y-90497931D02*
X110717657Y-90545550D01*
X113936704Y-87831265D02*
X113936704Y-88307455D01*
X114222419Y-87736027D02*
X113222419Y-88069360D01*
X113222419Y-88069360D02*
X114222419Y-88402693D01*
X113650990Y-88878884D02*
X113603371Y-88783646D01*
X113603371Y-88783646D02*
X113555752Y-88736027D01*
X113555752Y-88736027D02*
X113460514Y-88688408D01*
X113460514Y-88688408D02*
X113412895Y-88688408D01*
X113412895Y-88688408D02*
X113317657Y-88736027D01*
X113317657Y-88736027D02*
X113270038Y-88783646D01*
X113270038Y-88783646D02*
X113222419Y-88878884D01*
X113222419Y-88878884D02*
X113222419Y-89069360D01*
X113222419Y-89069360D02*
X113270038Y-89164598D01*
X113270038Y-89164598D02*
X113317657Y-89212217D01*
X113317657Y-89212217D02*
X113412895Y-89259836D01*
X113412895Y-89259836D02*
X113460514Y-89259836D01*
X113460514Y-89259836D02*
X113555752Y-89212217D01*
X113555752Y-89212217D02*
X113603371Y-89164598D01*
X113603371Y-89164598D02*
X113650990Y-89069360D01*
X113650990Y-89069360D02*
X113650990Y-88878884D01*
X113650990Y-88878884D02*
X113698609Y-88783646D01*
X113698609Y-88783646D02*
X113746228Y-88736027D01*
X113746228Y-88736027D02*
X113841466Y-88688408D01*
X113841466Y-88688408D02*
X114031942Y-88688408D01*
X114031942Y-88688408D02*
X114127180Y-88736027D01*
X114127180Y-88736027D02*
X114174800Y-88783646D01*
X114174800Y-88783646D02*
X114222419Y-88878884D01*
X114222419Y-88878884D02*
X114222419Y-89069360D01*
X114222419Y-89069360D02*
X114174800Y-89164598D01*
X114174800Y-89164598D02*
X114127180Y-89212217D01*
X114127180Y-89212217D02*
X114031942Y-89259836D01*
X114031942Y-89259836D02*
X113841466Y-89259836D01*
X113841466Y-89259836D02*
X113746228Y-89212217D01*
X113746228Y-89212217D02*
X113698609Y-89164598D01*
X113698609Y-89164598D02*
X113650990Y-89069360D01*
X108836704Y-87831265D02*
X108836704Y-88307455D01*
X109122419Y-87736027D02*
X108122419Y-88069360D01*
X108122419Y-88069360D02*
X109122419Y-88402693D01*
X109122419Y-88783646D02*
X109122419Y-88974122D01*
X109122419Y-88974122D02*
X109074800Y-89069360D01*
X109074800Y-89069360D02*
X109027180Y-89116979D01*
X109027180Y-89116979D02*
X108884323Y-89212217D01*
X108884323Y-89212217D02*
X108693847Y-89259836D01*
X108693847Y-89259836D02*
X108312895Y-89259836D01*
X108312895Y-89259836D02*
X108217657Y-89212217D01*
X108217657Y-89212217D02*
X108170038Y-89164598D01*
X108170038Y-89164598D02*
X108122419Y-89069360D01*
X108122419Y-89069360D02*
X108122419Y-88878884D01*
X108122419Y-88878884D02*
X108170038Y-88783646D01*
X108170038Y-88783646D02*
X108217657Y-88736027D01*
X108217657Y-88736027D02*
X108312895Y-88688408D01*
X108312895Y-88688408D02*
X108550990Y-88688408D01*
X108550990Y-88688408D02*
X108646228Y-88736027D01*
X108646228Y-88736027D02*
X108693847Y-88783646D01*
X108693847Y-88783646D02*
X108741466Y-88878884D01*
X108741466Y-88878884D02*
X108741466Y-89069360D01*
X108741466Y-89069360D02*
X108693847Y-89164598D01*
X108693847Y-89164598D02*
X108646228Y-89212217D01*
X108646228Y-89212217D02*
X108550990Y-89259836D01*
D12*
%TO.C,R2*%
X111480000Y-61025000D02*
X112250000Y-61025000D01*
X112250000Y-59655000D02*
X112250000Y-62395000D01*
X112250000Y-62395000D02*
X118790000Y-62395000D01*
X118790000Y-59655000D02*
X112250000Y-59655000D01*
X118790000Y-62395000D02*
X118790000Y-59655000D01*
X119560000Y-61025000D02*
X118790000Y-61025000D01*
%TO.C,C2*%
X87146000Y-60080000D02*
X88404000Y-60080000D01*
X87146000Y-61920000D02*
X88404000Y-61920000D01*
%TO.C,U1*%
X85820000Y-63970000D02*
X85820000Y-81870000D01*
X85820000Y-81870000D02*
X121620000Y-81870000D01*
X85880000Y-66460000D02*
X85880000Y-79380000D01*
X85880000Y-79380000D02*
X121560000Y-79380000D01*
X121560000Y-66460000D02*
X85880000Y-66460000D01*
X121560000Y-71920000D02*
X121560000Y-66460000D01*
X121560000Y-79380000D02*
X121560000Y-73920000D01*
X121620000Y-63970000D02*
X85820000Y-63970000D01*
X121620000Y-81870000D02*
X121620000Y-63970000D01*
X121560000Y-73920000D02*
G75*
G02*
X121560000Y-71920000I0J1000000D01*
G01*
%TO.C,C1*%
X86080000Y-52496000D02*
X86080000Y-53754000D01*
X87920000Y-52496000D02*
X87920000Y-53754000D01*
%TO.C,SW1*%
X114385000Y-56590000D02*
X114385000Y-55207000D01*
X114385000Y-56590000D02*
X115695000Y-56590000D01*
X114625000Y-49529000D02*
X115745000Y-49529000D01*
X114625000Y-56350000D02*
X114625000Y-49529000D01*
X114625000Y-56350000D02*
X115695000Y-56350000D01*
X116100000Y-51130000D02*
X116100000Y-54750000D01*
X116100000Y-53543333D02*
X117370000Y-53543333D01*
X116100000Y-54750000D02*
X117370000Y-54750000D01*
X116220000Y-54750000D02*
X116220000Y-53543333D01*
X116340000Y-54750000D02*
X116340000Y-53543333D01*
X116460000Y-54750000D02*
X116460000Y-53543333D01*
X116580000Y-54750000D02*
X116580000Y-53543333D01*
X116700000Y-54750000D02*
X116700000Y-53543333D01*
X116820000Y-54750000D02*
X116820000Y-53543333D01*
X116940000Y-54750000D02*
X116940000Y-53543333D01*
X117060000Y-54750000D02*
X117060000Y-53543333D01*
X117180000Y-54750000D02*
X117180000Y-53543333D01*
X117300000Y-54750000D02*
X117300000Y-53543333D01*
X117370000Y-51130000D02*
X116100000Y-51130000D01*
X117370000Y-54750000D02*
X117370000Y-51130000D01*
X117725000Y-49529000D02*
X118286000Y-49529000D01*
X117775000Y-56350000D02*
X118286000Y-56350000D01*
X118640000Y-51130000D02*
X118640000Y-54750000D01*
X118640000Y-53543333D02*
X119910000Y-53543333D01*
X118640000Y-54750000D02*
X119910000Y-54750000D01*
X118760000Y-54750000D02*
X118760000Y-53543333D01*
X118880000Y-54750000D02*
X118880000Y-53543333D01*
X119000000Y-54750000D02*
X119000000Y-53543333D01*
X119120000Y-54750000D02*
X119120000Y-53543333D01*
X119240000Y-54750000D02*
X119240000Y-53543333D01*
X119360000Y-54750000D02*
X119360000Y-53543333D01*
X119480000Y-54750000D02*
X119480000Y-53543333D01*
X119600000Y-54750000D02*
X119600000Y-53543333D01*
X119720000Y-54750000D02*
X119720000Y-53543333D01*
X119840000Y-54750000D02*
X119840000Y-53543333D01*
X119910000Y-51130000D02*
X118640000Y-51130000D01*
X119910000Y-54750000D02*
X119910000Y-51130000D01*
X120265000Y-49529000D02*
X121385000Y-49529000D01*
X120265000Y-56350000D02*
X121385000Y-56350000D01*
X121385000Y-56350000D02*
X121385000Y-49529000D01*
%TO.C,R1*%
X97710000Y-61000000D02*
X98480000Y-61000000D01*
X98480000Y-59630000D02*
X98480000Y-62370000D01*
X98480000Y-62370000D02*
X105020000Y-62370000D01*
X105020000Y-59630000D02*
X98480000Y-59630000D01*
X105020000Y-62370000D02*
X105020000Y-59630000D01*
X105790000Y-61000000D02*
X105020000Y-61000000D01*
%TO.C,U2*%
X89220000Y-47820000D02*
X89220000Y-58100000D01*
X89220000Y-58100000D02*
X107240000Y-58100000D01*
X89280000Y-50310000D02*
X89280000Y-51960000D01*
X89280000Y-53960000D02*
X89280000Y-55610000D01*
X89280000Y-55610000D02*
X107180000Y-55610000D01*
X107180000Y-50310000D02*
X89280000Y-50310000D01*
X107180000Y-55610000D02*
X107180000Y-50310000D01*
X107240000Y-47820000D02*
X89220000Y-47820000D01*
X107240000Y-58100000D02*
X107240000Y-47820000D01*
X89280000Y-51960000D02*
G75*
G02*
X89280000Y-53960000I0J-1000000D01*
G01*
%TD*%
M02*
