%TF.GenerationSoftware,KiCad,Pcbnew,8.0.2*%
%TF.CreationDate,2024-05-18T22:44:16+02:00*%
%TF.ProjectId,zx-interface-2-rom,7a782d69-6e74-4657-9266-6163652d322d,rev?*%
%TF.SameCoordinates,Original*%
%TF.FileFunction,Soldermask,Bot*%
%TF.FilePolarity,Negative*%
%FSLAX46Y46*%
G04 Gerber Fmt 4.6, Leading zero omitted, Abs format (unit mm)*
G04 Created by KiCad (PCBNEW 8.0.2) date 2024-05-18 22:44:16*
%MOMM*%
%LPD*%
G01*
G04 APERTURE LIST*
G04 Aperture macros list*
%AMRoundRect*
0 Rectangle with rounded corners*
0 $1 Rounding radius*
0 $2 $3 $4 $5 $6 $7 $8 $9 X,Y pos of 4 corners*
0 Add a 4 corners polygon primitive as box body*
4,1,4,$2,$3,$4,$5,$6,$7,$8,$9,$2,$3,0*
0 Add four circle primitives for the rounded corners*
1,1,$1+$1,$2,$3*
1,1,$1+$1,$4,$5*
1,1,$1+$1,$6,$7*
1,1,$1+$1,$8,$9*
0 Add four rect primitives between the rounded corners*
20,1,$1+$1,$2,$3,$4,$5,0*
20,1,$1+$1,$4,$5,$6,$7,0*
20,1,$1+$1,$6,$7,$8,$9,0*
20,1,$1+$1,$8,$9,$2,$3,0*%
G04 Aperture macros list end*
%ADD10RoundRect,0.381000X0.381000X4.175000X-0.381000X4.175000X-0.381000X-4.175000X0.381000X-4.175000X0*%
%ADD11C,1.600000*%
%ADD12O,1.600000X1.600000*%
%ADD13R,1.600000X1.600000*%
G04 APERTURE END LIST*
D10*
%TO.C,J1*%
X121260000Y-91260000D03*
X118720000Y-91260000D03*
X116180000Y-91260000D03*
X113640000Y-91260000D03*
X108560000Y-91260000D03*
X106020000Y-91260000D03*
X103480000Y-91260000D03*
X100940000Y-91260000D03*
X98400000Y-91260000D03*
X95860000Y-91260000D03*
X93320000Y-91260000D03*
X90780000Y-91260000D03*
X88240000Y-91260000D03*
X85700000Y-91260000D03*
%TD*%
D11*
%TO.C,R2*%
X120600000Y-61025000D03*
D12*
X110440000Y-61025000D03*
%TD*%
D13*
%TO.C,SW1*%
X116750000Y-56330000D03*
D12*
X119290000Y-56330000D03*
X119290000Y-48710000D03*
X116750000Y-48710000D03*
%TD*%
D11*
%TO.C,C2*%
X86525000Y-61000000D03*
X89025000Y-61000000D03*
%TD*%
D13*
%TO.C,U1*%
X87120000Y-80715000D03*
D12*
X89660000Y-80715000D03*
X92200000Y-80715000D03*
X94740000Y-80715000D03*
X97280000Y-80715000D03*
X99820000Y-80715000D03*
X102360000Y-80715000D03*
X104900000Y-80715000D03*
X107440000Y-80715000D03*
X109980000Y-80715000D03*
X112520000Y-80715000D03*
X115060000Y-80715000D03*
X117600000Y-80715000D03*
X120140000Y-80715000D03*
X120140000Y-65475000D03*
X117600000Y-65475000D03*
X115060000Y-65475000D03*
X112520000Y-65475000D03*
X109980000Y-65475000D03*
X107440000Y-65475000D03*
X104900000Y-65475000D03*
X102360000Y-65475000D03*
X99820000Y-65475000D03*
X97280000Y-65475000D03*
X94740000Y-65475000D03*
X92200000Y-65475000D03*
X89660000Y-65475000D03*
X87120000Y-65475000D03*
%TD*%
D11*
%TO.C,C1*%
X87000000Y-51875000D03*
X87000000Y-54375000D03*
%TD*%
%TO.C,R1*%
X106830000Y-61000000D03*
D12*
X96670000Y-61000000D03*
%TD*%
D13*
%TO.C,U2*%
X90610000Y-56770000D03*
D12*
X93150000Y-56770000D03*
X95690000Y-56770000D03*
X98230000Y-56770000D03*
X100770000Y-56770000D03*
X103310000Y-56770000D03*
X105850000Y-56770000D03*
X105850000Y-49150000D03*
X103310000Y-49150000D03*
X100770000Y-49150000D03*
X98230000Y-49150000D03*
X95690000Y-49150000D03*
X93150000Y-49150000D03*
X90610000Y-49150000D03*
%TD*%
M02*
