M48
; DRILL file {KiCad 8.0.1} date 2024-04-19T22:52:33+0200
; FORMAT={-:-/ absolute / inch / decimal}
; #@! TF.CreationDate,2024-04-19T22:52:33+02:00
; #@! TF.GenerationSoftware,Kicad,Pcbnew,8.0.1
; #@! TF.FileFunction,Plated,1,2,PTH
FMAT,2
INCH
; #@! TA.AperFunction,Plated,PTH,ViaDrill
T1C0.0118
; #@! TA.AperFunction,Plated,PTH,ComponentDrill
T2C0.0315
%
G90
G05
T1
X3.604Y-2.9124
X3.6507Y-2.8308
X3.6712Y-2.4372
X3.7761Y-2.5265
X3.9299Y-3.2762
X4.106Y-3.2762
X4.1229Y-2.6726
X4.137Y-3.4618
X4.1543Y-2.7082
X4.1898Y-2.7082
X4.2795Y-2.7082
X4.2947Y-3.1122
X4.4415Y-3.4658
T2
X3.4065Y-2.4016
X3.4252Y-2.0423
X3.4252Y-2.1407
X3.4299Y-2.5778
X3.4299Y-3.1778
X3.5049Y-2.4016
X3.5299Y-2.5778
X3.5299Y-3.1778
X3.5673Y-1.935
X3.5673Y-2.235
X3.6299Y-2.5778
X3.6299Y-3.1778
X3.6673Y-1.935
X3.6673Y-2.235
X3.7299Y-2.5778
X3.7299Y-3.1778
X3.7673Y-1.935
X3.7673Y-2.235
X3.8059Y-2.4016
X3.8299Y-2.5778
X3.8299Y-3.1778
X3.8673Y-1.935
X3.8673Y-2.235
X3.9299Y-2.5778
X3.9299Y-3.1778
X3.9673Y-1.935
X3.9673Y-2.235
X4.0299Y-2.5778
X4.0299Y-3.1778
X4.0673Y-1.935
X4.0673Y-2.235
X4.1299Y-2.5778
X4.1299Y-3.1778
X4.1673Y-1.935
X4.1673Y-2.235
X4.2059Y-2.4016
X4.2299Y-2.5778
X4.2299Y-3.1778
X4.3299Y-2.5778
X4.3299Y-3.1778
X4.348Y-2.4026
X4.4299Y-2.5778
X4.4299Y-3.1778
X4.5299Y-2.5778
X4.5299Y-3.1778
X4.5878Y-1.9177
X4.5878Y-2.2177
X4.6299Y-2.5778
X4.6299Y-3.1778
X4.6878Y-1.9177
X4.6878Y-2.2177
X4.7299Y-2.5778
X4.7299Y-3.1778
X4.748Y-2.4026
M30
