%TF.GenerationSoftware,KiCad,Pcbnew,8.0.2*%
%TF.CreationDate,2024-05-18T22:44:16+02:00*%
%TF.ProjectId,zx-interface-2-rom,7a782d69-6e74-4657-9266-6163652d322d,rev?*%
%TF.SameCoordinates,Original*%
%TF.FileFunction,Legend,Bot*%
%TF.FilePolarity,Positive*%
%FSLAX46Y46*%
G04 Gerber Fmt 4.6, Leading zero omitted, Abs format (unit mm)*
G04 Created by KiCad (PCBNEW 8.0.2) date 2024-05-18 22:44:16*
%MOMM*%
%LPD*%
G01*
G04 APERTURE LIST*
%ADD10C,0.100000*%
G04 APERTURE END LIST*
D10*
X120187068Y-72946847D02*
X119610877Y-72946847D01*
X119610877Y-72946847D02*
X120187068Y-73680180D01*
X120187068Y-73680180D02*
X119610877Y-73680180D01*
X119296592Y-73680180D02*
X118720401Y-72946847D01*
X119296592Y-72946847D02*
X118720401Y-73680180D01*
X118301354Y-73261133D02*
X117463259Y-73261133D01*
X116939449Y-73680180D02*
X116939449Y-72946847D01*
X116939449Y-72580180D02*
X116991830Y-72632561D01*
X116991830Y-72632561D02*
X116939449Y-72684942D01*
X116939449Y-72684942D02*
X116887068Y-72632561D01*
X116887068Y-72632561D02*
X116939449Y-72580180D01*
X116939449Y-72580180D02*
X116939449Y-72684942D01*
X116415639Y-72946847D02*
X116415639Y-73680180D01*
X116415639Y-73051609D02*
X116363258Y-72999228D01*
X116363258Y-72999228D02*
X116258496Y-72946847D01*
X116258496Y-72946847D02*
X116101353Y-72946847D01*
X116101353Y-72946847D02*
X115996591Y-72999228D01*
X115996591Y-72999228D02*
X115944210Y-73103990D01*
X115944210Y-73103990D02*
X115944210Y-73680180D01*
X115577544Y-72946847D02*
X115158496Y-72946847D01*
X115420401Y-72580180D02*
X115420401Y-73523038D01*
X115420401Y-73523038D02*
X115368020Y-73627800D01*
X115368020Y-73627800D02*
X115263258Y-73680180D01*
X115263258Y-73680180D02*
X115158496Y-73680180D01*
X114372782Y-73627800D02*
X114477544Y-73680180D01*
X114477544Y-73680180D02*
X114687068Y-73680180D01*
X114687068Y-73680180D02*
X114791830Y-73627800D01*
X114791830Y-73627800D02*
X114844211Y-73523038D01*
X114844211Y-73523038D02*
X114844211Y-73103990D01*
X114844211Y-73103990D02*
X114791830Y-72999228D01*
X114791830Y-72999228D02*
X114687068Y-72946847D01*
X114687068Y-72946847D02*
X114477544Y-72946847D01*
X114477544Y-72946847D02*
X114372782Y-72999228D01*
X114372782Y-72999228D02*
X114320401Y-73103990D01*
X114320401Y-73103990D02*
X114320401Y-73208752D01*
X114320401Y-73208752D02*
X114844211Y-73313514D01*
X113848973Y-73680180D02*
X113848973Y-72946847D01*
X113848973Y-73156371D02*
X113796592Y-73051609D01*
X113796592Y-73051609D02*
X113744211Y-72999228D01*
X113744211Y-72999228D02*
X113639449Y-72946847D01*
X113639449Y-72946847D02*
X113534687Y-72946847D01*
X113325164Y-72946847D02*
X112906116Y-72946847D01*
X113168021Y-73680180D02*
X113168021Y-72737323D01*
X113168021Y-72737323D02*
X113115640Y-72632561D01*
X113115640Y-72632561D02*
X113010878Y-72580180D01*
X113010878Y-72580180D02*
X112906116Y-72580180D01*
X112068021Y-73680180D02*
X112068021Y-73103990D01*
X112068021Y-73103990D02*
X112120402Y-72999228D01*
X112120402Y-72999228D02*
X112225164Y-72946847D01*
X112225164Y-72946847D02*
X112434688Y-72946847D01*
X112434688Y-72946847D02*
X112539450Y-72999228D01*
X112068021Y-73627800D02*
X112172783Y-73680180D01*
X112172783Y-73680180D02*
X112434688Y-73680180D01*
X112434688Y-73680180D02*
X112539450Y-73627800D01*
X112539450Y-73627800D02*
X112591831Y-73523038D01*
X112591831Y-73523038D02*
X112591831Y-73418276D01*
X112591831Y-73418276D02*
X112539450Y-73313514D01*
X112539450Y-73313514D02*
X112434688Y-73261133D01*
X112434688Y-73261133D02*
X112172783Y-73261133D01*
X112172783Y-73261133D02*
X112068021Y-73208752D01*
X111072783Y-73627800D02*
X111177545Y-73680180D01*
X111177545Y-73680180D02*
X111387069Y-73680180D01*
X111387069Y-73680180D02*
X111491831Y-73627800D01*
X111491831Y-73627800D02*
X111544212Y-73575419D01*
X111544212Y-73575419D02*
X111596593Y-73470657D01*
X111596593Y-73470657D02*
X111596593Y-73156371D01*
X111596593Y-73156371D02*
X111544212Y-73051609D01*
X111544212Y-73051609D02*
X111491831Y-72999228D01*
X111491831Y-72999228D02*
X111387069Y-72946847D01*
X111387069Y-72946847D02*
X111177545Y-72946847D01*
X111177545Y-72946847D02*
X111072783Y-72999228D01*
X110182307Y-73627800D02*
X110287069Y-73680180D01*
X110287069Y-73680180D02*
X110496593Y-73680180D01*
X110496593Y-73680180D02*
X110601355Y-73627800D01*
X110601355Y-73627800D02*
X110653736Y-73523038D01*
X110653736Y-73523038D02*
X110653736Y-73103990D01*
X110653736Y-73103990D02*
X110601355Y-72999228D01*
X110601355Y-72999228D02*
X110496593Y-72946847D01*
X110496593Y-72946847D02*
X110287069Y-72946847D01*
X110287069Y-72946847D02*
X110182307Y-72999228D01*
X110182307Y-72999228D02*
X110129926Y-73103990D01*
X110129926Y-73103990D02*
X110129926Y-73208752D01*
X110129926Y-73208752D02*
X110653736Y-73313514D01*
X109658498Y-73261133D02*
X108820403Y-73261133D01*
X108348974Y-72684942D02*
X108296593Y-72632561D01*
X108296593Y-72632561D02*
X108191831Y-72580180D01*
X108191831Y-72580180D02*
X107929926Y-72580180D01*
X107929926Y-72580180D02*
X107825164Y-72632561D01*
X107825164Y-72632561D02*
X107772783Y-72684942D01*
X107772783Y-72684942D02*
X107720402Y-72789704D01*
X107720402Y-72789704D02*
X107720402Y-72894466D01*
X107720402Y-72894466D02*
X107772783Y-73051609D01*
X107772783Y-73051609D02*
X108401355Y-73680180D01*
X108401355Y-73680180D02*
X107720402Y-73680180D01*
X107248974Y-73261133D02*
X106410879Y-73261133D01*
X105887069Y-73680180D02*
X105887069Y-72946847D01*
X105887069Y-73156371D02*
X105834688Y-73051609D01*
X105834688Y-73051609D02*
X105782307Y-72999228D01*
X105782307Y-72999228D02*
X105677545Y-72946847D01*
X105677545Y-72946847D02*
X105572783Y-72946847D01*
X105048974Y-73680180D02*
X105153736Y-73627800D01*
X105153736Y-73627800D02*
X105206117Y-73575419D01*
X105206117Y-73575419D02*
X105258498Y-73470657D01*
X105258498Y-73470657D02*
X105258498Y-73156371D01*
X105258498Y-73156371D02*
X105206117Y-73051609D01*
X105206117Y-73051609D02*
X105153736Y-72999228D01*
X105153736Y-72999228D02*
X105048974Y-72946847D01*
X105048974Y-72946847D02*
X104891831Y-72946847D01*
X104891831Y-72946847D02*
X104787069Y-72999228D01*
X104787069Y-72999228D02*
X104734688Y-73051609D01*
X104734688Y-73051609D02*
X104682307Y-73156371D01*
X104682307Y-73156371D02*
X104682307Y-73470657D01*
X104682307Y-73470657D02*
X104734688Y-73575419D01*
X104734688Y-73575419D02*
X104787069Y-73627800D01*
X104787069Y-73627800D02*
X104891831Y-73680180D01*
X104891831Y-73680180D02*
X105048974Y-73680180D01*
X104210879Y-73680180D02*
X104210879Y-72946847D01*
X104210879Y-73051609D02*
X104158498Y-72999228D01*
X104158498Y-72999228D02*
X104053736Y-72946847D01*
X104053736Y-72946847D02*
X103896593Y-72946847D01*
X103896593Y-72946847D02*
X103791831Y-72999228D01*
X103791831Y-72999228D02*
X103739450Y-73103990D01*
X103739450Y-73103990D02*
X103739450Y-73680180D01*
X103739450Y-73103990D02*
X103687069Y-72999228D01*
X103687069Y-72999228D02*
X103582307Y-72946847D01*
X103582307Y-72946847D02*
X103425164Y-72946847D01*
X103425164Y-72946847D02*
X103320403Y-72999228D01*
X103320403Y-72999228D02*
X103268022Y-73103990D01*
X103268022Y-73103990D02*
X103268022Y-73680180D01*
X102010879Y-72946847D02*
X101748974Y-73680180D01*
X101748974Y-73680180D02*
X101487069Y-72946847D01*
X100491831Y-73680180D02*
X101120403Y-73680180D01*
X100806117Y-73680180D02*
X100806117Y-72580180D01*
X100806117Y-72580180D02*
X100910879Y-72737323D01*
X100910879Y-72737323D02*
X101015641Y-72842085D01*
X101015641Y-72842085D02*
X101120403Y-72894466D01*
X100020403Y-73575419D02*
X99968022Y-73627800D01*
X99968022Y-73627800D02*
X100020403Y-73680180D01*
X100020403Y-73680180D02*
X100072784Y-73627800D01*
X100072784Y-73627800D02*
X100020403Y-73575419D01*
X100020403Y-73575419D02*
X100020403Y-73680180D01*
X99548974Y-72684942D02*
X99496593Y-72632561D01*
X99496593Y-72632561D02*
X99391831Y-72580180D01*
X99391831Y-72580180D02*
X99129926Y-72580180D01*
X99129926Y-72580180D02*
X99025164Y-72632561D01*
X99025164Y-72632561D02*
X98972783Y-72684942D01*
X98972783Y-72684942D02*
X98920402Y-72789704D01*
X98920402Y-72789704D02*
X98920402Y-72894466D01*
X98920402Y-72894466D02*
X98972783Y-73051609D01*
X98972783Y-73051609D02*
X99601355Y-73680180D01*
X99601355Y-73680180D02*
X98920402Y-73680180D01*
X97610879Y-73261133D02*
X96772784Y-73261133D01*
X95410879Y-73680180D02*
X95410879Y-72580180D01*
X95410879Y-72999228D02*
X95306117Y-72946847D01*
X95306117Y-72946847D02*
X95096593Y-72946847D01*
X95096593Y-72946847D02*
X94991831Y-72999228D01*
X94991831Y-72999228D02*
X94939450Y-73051609D01*
X94939450Y-73051609D02*
X94887069Y-73156371D01*
X94887069Y-73156371D02*
X94887069Y-73470657D01*
X94887069Y-73470657D02*
X94939450Y-73575419D01*
X94939450Y-73575419D02*
X94991831Y-73627800D01*
X94991831Y-73627800D02*
X95096593Y-73680180D01*
X95096593Y-73680180D02*
X95306117Y-73680180D01*
X95306117Y-73680180D02*
X95410879Y-73627800D01*
X94520403Y-72946847D02*
X94258498Y-73680180D01*
X93996593Y-72946847D02*
X94258498Y-73680180D01*
X94258498Y-73680180D02*
X94363260Y-73942085D01*
X94363260Y-73942085D02*
X94415641Y-73994466D01*
X94415641Y-73994466D02*
X94520403Y-74046847D01*
X92844213Y-72580180D02*
X92110879Y-72580180D01*
X92110879Y-72580180D02*
X92844213Y-73680180D01*
X92844213Y-73680180D02*
X92110879Y-73680180D01*
X91796594Y-72580180D02*
X91063260Y-73680180D01*
X91063260Y-72580180D02*
X91796594Y-73680180D01*
X90644213Y-73680180D02*
X90644213Y-72580180D01*
X90120403Y-73680180D02*
X90120403Y-72580180D01*
X90120403Y-72580180D02*
X89491831Y-73680180D01*
X89491831Y-73680180D02*
X89491831Y-72580180D01*
X88601355Y-73103990D02*
X88968022Y-73103990D01*
X88968022Y-73680180D02*
X88968022Y-72580180D01*
X88968022Y-72580180D02*
X88444212Y-72580180D01*
X87815641Y-72580180D02*
X87606117Y-72580180D01*
X87606117Y-72580180D02*
X87501355Y-72632561D01*
X87501355Y-72632561D02*
X87396593Y-72737323D01*
X87396593Y-72737323D02*
X87344212Y-72946847D01*
X87344212Y-72946847D02*
X87344212Y-73313514D01*
X87344212Y-73313514D02*
X87396593Y-73523038D01*
X87396593Y-73523038D02*
X87501355Y-73627800D01*
X87501355Y-73627800D02*
X87606117Y-73680180D01*
X87606117Y-73680180D02*
X87815641Y-73680180D01*
X87815641Y-73680180D02*
X87920403Y-73627800D01*
X87920403Y-73627800D02*
X88025165Y-73523038D01*
X88025165Y-73523038D02*
X88077546Y-73313514D01*
X88077546Y-73313514D02*
X88077546Y-72946847D01*
X88077546Y-72946847D02*
X88025165Y-72737323D01*
X88025165Y-72737323D02*
X87920403Y-72632561D01*
X87920403Y-72632561D02*
X87815641Y-72580180D01*
X118655295Y-86247734D02*
X118655295Y-85771544D01*
X118369580Y-86342972D02*
X119369580Y-86009639D01*
X119369580Y-86009639D02*
X118369580Y-85676306D01*
X118369580Y-84819163D02*
X118369580Y-85390591D01*
X118369580Y-85104877D02*
X119369580Y-85104877D01*
X119369580Y-85104877D02*
X119226723Y-85200115D01*
X119226723Y-85200115D02*
X119131485Y-85295353D01*
X119131485Y-85295353D02*
X119083866Y-85390591D01*
X119274342Y-84438210D02*
X119321961Y-84390591D01*
X119321961Y-84390591D02*
X119369580Y-84295353D01*
X119369580Y-84295353D02*
X119369580Y-84057258D01*
X119369580Y-84057258D02*
X119321961Y-83962020D01*
X119321961Y-83962020D02*
X119274342Y-83914401D01*
X119274342Y-83914401D02*
X119179104Y-83866782D01*
X119179104Y-83866782D02*
X119083866Y-83866782D01*
X119083866Y-83866782D02*
X118941009Y-83914401D01*
X118941009Y-83914401D02*
X118369580Y-84485829D01*
X118369580Y-84485829D02*
X118369580Y-83866782D01*
X86321961Y-85676306D02*
X86369580Y-85771544D01*
X86369580Y-85771544D02*
X86369580Y-85914401D01*
X86369580Y-85914401D02*
X86321961Y-86057258D01*
X86321961Y-86057258D02*
X86226723Y-86152496D01*
X86226723Y-86152496D02*
X86131485Y-86200115D01*
X86131485Y-86200115D02*
X85941009Y-86247734D01*
X85941009Y-86247734D02*
X85798152Y-86247734D01*
X85798152Y-86247734D02*
X85607676Y-86200115D01*
X85607676Y-86200115D02*
X85512438Y-86152496D01*
X85512438Y-86152496D02*
X85417200Y-86057258D01*
X85417200Y-86057258D02*
X85369580Y-85914401D01*
X85369580Y-85914401D02*
X85369580Y-85819163D01*
X85369580Y-85819163D02*
X85417200Y-85676306D01*
X85417200Y-85676306D02*
X85464819Y-85628687D01*
X85464819Y-85628687D02*
X85798152Y-85628687D01*
X85798152Y-85628687D02*
X85798152Y-85819163D01*
X85369580Y-85200115D02*
X86369580Y-85200115D01*
X86369580Y-85200115D02*
X85369580Y-84628687D01*
X85369580Y-84628687D02*
X86369580Y-84628687D01*
X85369580Y-84152496D02*
X86369580Y-84152496D01*
X86369580Y-84152496D02*
X86369580Y-83914401D01*
X86369580Y-83914401D02*
X86321961Y-83771544D01*
X86321961Y-83771544D02*
X86226723Y-83676306D01*
X86226723Y-83676306D02*
X86131485Y-83628687D01*
X86131485Y-83628687D02*
X85941009Y-83581068D01*
X85941009Y-83581068D02*
X85798152Y-83581068D01*
X85798152Y-83581068D02*
X85607676Y-83628687D01*
X85607676Y-83628687D02*
X85512438Y-83676306D01*
X85512438Y-83676306D02*
X85417200Y-83771544D01*
X85417200Y-83771544D02*
X85369580Y-83914401D01*
X85369580Y-83914401D02*
X85369580Y-84152496D01*
X98455295Y-86247734D02*
X98455295Y-85771544D01*
X98169580Y-86342972D02*
X99169580Y-86009639D01*
X99169580Y-86009639D02*
X98169580Y-85676306D01*
X98169580Y-84819163D02*
X98169580Y-85390591D01*
X98169580Y-85104877D02*
X99169580Y-85104877D01*
X99169580Y-85104877D02*
X99026723Y-85200115D01*
X99026723Y-85200115D02*
X98931485Y-85295353D01*
X98931485Y-85295353D02*
X98883866Y-85390591D01*
X108455295Y-86247734D02*
X108455295Y-85771544D01*
X108169580Y-86342972D02*
X109169580Y-86009639D01*
X109169580Y-86009639D02*
X108169580Y-85676306D01*
X109169580Y-84866782D02*
X109169580Y-85342972D01*
X109169580Y-85342972D02*
X108693390Y-85390591D01*
X108693390Y-85390591D02*
X108741009Y-85342972D01*
X108741009Y-85342972D02*
X108788628Y-85247734D01*
X108788628Y-85247734D02*
X108788628Y-85009639D01*
X108788628Y-85009639D02*
X108741009Y-84914401D01*
X108741009Y-84914401D02*
X108693390Y-84866782D01*
X108693390Y-84866782D02*
X108598152Y-84819163D01*
X108598152Y-84819163D02*
X108360057Y-84819163D01*
X108360057Y-84819163D02*
X108264819Y-84866782D01*
X108264819Y-84866782D02*
X108217200Y-84914401D01*
X108217200Y-84914401D02*
X108169580Y-85009639D01*
X108169580Y-85009639D02*
X108169580Y-85247734D01*
X108169580Y-85247734D02*
X108217200Y-85342972D01*
X108217200Y-85342972D02*
X108264819Y-85390591D01*
X116155295Y-86247734D02*
X116155295Y-85771544D01*
X115869580Y-86342972D02*
X116869580Y-86009639D01*
X116869580Y-86009639D02*
X115869580Y-85676306D01*
X116869580Y-85438210D02*
X116869580Y-84771544D01*
X116869580Y-84771544D02*
X115869580Y-85200115D01*
X90427580Y-86276115D02*
X91427580Y-86276115D01*
X91427580Y-86276115D02*
X91427580Y-86038020D01*
X91427580Y-86038020D02*
X91379961Y-85895163D01*
X91379961Y-85895163D02*
X91284723Y-85799925D01*
X91284723Y-85799925D02*
X91189485Y-85752306D01*
X91189485Y-85752306D02*
X90999009Y-85704687D01*
X90999009Y-85704687D02*
X90856152Y-85704687D01*
X90856152Y-85704687D02*
X90665676Y-85752306D01*
X90665676Y-85752306D02*
X90570438Y-85799925D01*
X90570438Y-85799925D02*
X90475200Y-85895163D01*
X90475200Y-85895163D02*
X90427580Y-86038020D01*
X90427580Y-86038020D02*
X90427580Y-86276115D01*
X90427580Y-84752306D02*
X90427580Y-85323734D01*
X90427580Y-85038020D02*
X91427580Y-85038020D01*
X91427580Y-85038020D02*
X91284723Y-85133258D01*
X91284723Y-85133258D02*
X91189485Y-85228496D01*
X91189485Y-85228496D02*
X91141866Y-85323734D01*
X120769580Y-85628687D02*
X121245771Y-85962020D01*
X120769580Y-86200115D02*
X121769580Y-86200115D01*
X121769580Y-86200115D02*
X121769580Y-85819163D01*
X121769580Y-85819163D02*
X121721961Y-85723925D01*
X121721961Y-85723925D02*
X121674342Y-85676306D01*
X121674342Y-85676306D02*
X121579104Y-85628687D01*
X121579104Y-85628687D02*
X121436247Y-85628687D01*
X121436247Y-85628687D02*
X121341009Y-85676306D01*
X121341009Y-85676306D02*
X121293390Y-85723925D01*
X121293390Y-85723925D02*
X121245771Y-85819163D01*
X121245771Y-85819163D02*
X121245771Y-86200115D01*
X121769580Y-85009639D02*
X121769580Y-84819163D01*
X121769580Y-84819163D02*
X121721961Y-84723925D01*
X121721961Y-84723925D02*
X121626723Y-84628687D01*
X121626723Y-84628687D02*
X121436247Y-84581068D01*
X121436247Y-84581068D02*
X121102914Y-84581068D01*
X121102914Y-84581068D02*
X120912438Y-84628687D01*
X120912438Y-84628687D02*
X120817200Y-84723925D01*
X120817200Y-84723925D02*
X120769580Y-84819163D01*
X120769580Y-84819163D02*
X120769580Y-85009639D01*
X120769580Y-85009639D02*
X120817200Y-85104877D01*
X120817200Y-85104877D02*
X120912438Y-85200115D01*
X120912438Y-85200115D02*
X121102914Y-85247734D01*
X121102914Y-85247734D02*
X121436247Y-85247734D01*
X121436247Y-85247734D02*
X121626723Y-85200115D01*
X121626723Y-85200115D02*
X121721961Y-85104877D01*
X121721961Y-85104877D02*
X121769580Y-85009639D01*
X120769580Y-84152496D02*
X121769580Y-84152496D01*
X121769580Y-84152496D02*
X121055295Y-83819163D01*
X121055295Y-83819163D02*
X121769580Y-83485830D01*
X121769580Y-83485830D02*
X120769580Y-83485830D01*
X120864819Y-82438211D02*
X120817200Y-82485830D01*
X120817200Y-82485830D02*
X120769580Y-82628687D01*
X120769580Y-82628687D02*
X120769580Y-82723925D01*
X120769580Y-82723925D02*
X120817200Y-82866782D01*
X120817200Y-82866782D02*
X120912438Y-82962020D01*
X120912438Y-82962020D02*
X121007676Y-83009639D01*
X121007676Y-83009639D02*
X121198152Y-83057258D01*
X121198152Y-83057258D02*
X121341009Y-83057258D01*
X121341009Y-83057258D02*
X121531485Y-83009639D01*
X121531485Y-83009639D02*
X121626723Y-82962020D01*
X121626723Y-82962020D02*
X121721961Y-82866782D01*
X121721961Y-82866782D02*
X121769580Y-82723925D01*
X121769580Y-82723925D02*
X121769580Y-82628687D01*
X121769580Y-82628687D02*
X121721961Y-82485830D01*
X121721961Y-82485830D02*
X121674342Y-82438211D01*
X120817200Y-82057258D02*
X120769580Y-81914401D01*
X120769580Y-81914401D02*
X120769580Y-81676306D01*
X120769580Y-81676306D02*
X120817200Y-81581068D01*
X120817200Y-81581068D02*
X120864819Y-81533449D01*
X120864819Y-81533449D02*
X120960057Y-81485830D01*
X120960057Y-81485830D02*
X121055295Y-81485830D01*
X121055295Y-81485830D02*
X121150533Y-81533449D01*
X121150533Y-81533449D02*
X121198152Y-81581068D01*
X121198152Y-81581068D02*
X121245771Y-81676306D01*
X121245771Y-81676306D02*
X121293390Y-81866782D01*
X121293390Y-81866782D02*
X121341009Y-81962020D01*
X121341009Y-81962020D02*
X121388628Y-82009639D01*
X121388628Y-82009639D02*
X121483866Y-82057258D01*
X121483866Y-82057258D02*
X121579104Y-82057258D01*
X121579104Y-82057258D02*
X121674342Y-82009639D01*
X121674342Y-82009639D02*
X121721961Y-81962020D01*
X121721961Y-81962020D02*
X121769580Y-81866782D01*
X121769580Y-81866782D02*
X121769580Y-81628687D01*
X121769580Y-81628687D02*
X121721961Y-81485830D01*
X122047200Y-86338211D02*
X122047200Y-81395354D01*
X92927580Y-86276115D02*
X93927580Y-86276115D01*
X93927580Y-86276115D02*
X93927580Y-86038020D01*
X93927580Y-86038020D02*
X93879961Y-85895163D01*
X93879961Y-85895163D02*
X93784723Y-85799925D01*
X93784723Y-85799925D02*
X93689485Y-85752306D01*
X93689485Y-85752306D02*
X93499009Y-85704687D01*
X93499009Y-85704687D02*
X93356152Y-85704687D01*
X93356152Y-85704687D02*
X93165676Y-85752306D01*
X93165676Y-85752306D02*
X93070438Y-85799925D01*
X93070438Y-85799925D02*
X92975200Y-85895163D01*
X92975200Y-85895163D02*
X92927580Y-86038020D01*
X92927580Y-86038020D02*
X92927580Y-86276115D01*
X93927580Y-85085639D02*
X93927580Y-84990401D01*
X93927580Y-84990401D02*
X93879961Y-84895163D01*
X93879961Y-84895163D02*
X93832342Y-84847544D01*
X93832342Y-84847544D02*
X93737104Y-84799925D01*
X93737104Y-84799925D02*
X93546628Y-84752306D01*
X93546628Y-84752306D02*
X93308533Y-84752306D01*
X93308533Y-84752306D02*
X93118057Y-84799925D01*
X93118057Y-84799925D02*
X93022819Y-84847544D01*
X93022819Y-84847544D02*
X92975200Y-84895163D01*
X92975200Y-84895163D02*
X92927580Y-84990401D01*
X92927580Y-84990401D02*
X92927580Y-85085639D01*
X92927580Y-85085639D02*
X92975200Y-85180877D01*
X92975200Y-85180877D02*
X93022819Y-85228496D01*
X93022819Y-85228496D02*
X93118057Y-85276115D01*
X93118057Y-85276115D02*
X93308533Y-85323734D01*
X93308533Y-85323734D02*
X93546628Y-85323734D01*
X93546628Y-85323734D02*
X93737104Y-85276115D01*
X93737104Y-85276115D02*
X93832342Y-85228496D01*
X93832342Y-85228496D02*
X93879961Y-85180877D01*
X93879961Y-85180877D02*
X93927580Y-85085639D01*
X100955295Y-86247734D02*
X100955295Y-85771544D01*
X100669580Y-86342972D02*
X101669580Y-86009639D01*
X101669580Y-86009639D02*
X100669580Y-85676306D01*
X101574342Y-85390591D02*
X101621961Y-85342972D01*
X101621961Y-85342972D02*
X101669580Y-85247734D01*
X101669580Y-85247734D02*
X101669580Y-85009639D01*
X101669580Y-85009639D02*
X101621961Y-84914401D01*
X101621961Y-84914401D02*
X101574342Y-84866782D01*
X101574342Y-84866782D02*
X101479104Y-84819163D01*
X101479104Y-84819163D02*
X101383866Y-84819163D01*
X101383866Y-84819163D02*
X101241009Y-84866782D01*
X101241009Y-84866782D02*
X100669580Y-85438210D01*
X100669580Y-85438210D02*
X100669580Y-84819163D01*
X106055295Y-86247734D02*
X106055295Y-85771544D01*
X105769580Y-86342972D02*
X106769580Y-86009639D01*
X106769580Y-86009639D02*
X105769580Y-85676306D01*
X106436247Y-84914401D02*
X105769580Y-84914401D01*
X106817200Y-85152496D02*
X106102914Y-85390591D01*
X106102914Y-85390591D02*
X106102914Y-84771544D01*
X95755295Y-86247734D02*
X95755295Y-85771544D01*
X95469580Y-86342972D02*
X96469580Y-86009639D01*
X96469580Y-86009639D02*
X95469580Y-85676306D01*
X96469580Y-85152496D02*
X96469580Y-85057258D01*
X96469580Y-85057258D02*
X96421961Y-84962020D01*
X96421961Y-84962020D02*
X96374342Y-84914401D01*
X96374342Y-84914401D02*
X96279104Y-84866782D01*
X96279104Y-84866782D02*
X96088628Y-84819163D01*
X96088628Y-84819163D02*
X95850533Y-84819163D01*
X95850533Y-84819163D02*
X95660057Y-84866782D01*
X95660057Y-84866782D02*
X95564819Y-84914401D01*
X95564819Y-84914401D02*
X95517200Y-84962020D01*
X95517200Y-84962020D02*
X95469580Y-85057258D01*
X95469580Y-85057258D02*
X95469580Y-85152496D01*
X95469580Y-85152496D02*
X95517200Y-85247734D01*
X95517200Y-85247734D02*
X95564819Y-85295353D01*
X95564819Y-85295353D02*
X95660057Y-85342972D01*
X95660057Y-85342972D02*
X95850533Y-85390591D01*
X95850533Y-85390591D02*
X96088628Y-85390591D01*
X96088628Y-85390591D02*
X96279104Y-85342972D01*
X96279104Y-85342972D02*
X96374342Y-85295353D01*
X96374342Y-85295353D02*
X96421961Y-85247734D01*
X96421961Y-85247734D02*
X96469580Y-85152496D01*
X113655295Y-86247734D02*
X113655295Y-85771544D01*
X113369580Y-86342972D02*
X114369580Y-86009639D01*
X114369580Y-86009639D02*
X113369580Y-85676306D01*
X114369580Y-84914401D02*
X114369580Y-85104877D01*
X114369580Y-85104877D02*
X114321961Y-85200115D01*
X114321961Y-85200115D02*
X114274342Y-85247734D01*
X114274342Y-85247734D02*
X114131485Y-85342972D01*
X114131485Y-85342972D02*
X113941009Y-85390591D01*
X113941009Y-85390591D02*
X113560057Y-85390591D01*
X113560057Y-85390591D02*
X113464819Y-85342972D01*
X113464819Y-85342972D02*
X113417200Y-85295353D01*
X113417200Y-85295353D02*
X113369580Y-85200115D01*
X113369580Y-85200115D02*
X113369580Y-85009639D01*
X113369580Y-85009639D02*
X113417200Y-84914401D01*
X113417200Y-84914401D02*
X113464819Y-84866782D01*
X113464819Y-84866782D02*
X113560057Y-84819163D01*
X113560057Y-84819163D02*
X113798152Y-84819163D01*
X113798152Y-84819163D02*
X113893390Y-84866782D01*
X113893390Y-84866782D02*
X113941009Y-84914401D01*
X113941009Y-84914401D02*
X113988628Y-85009639D01*
X113988628Y-85009639D02*
X113988628Y-85200115D01*
X113988628Y-85200115D02*
X113941009Y-85295353D01*
X113941009Y-85295353D02*
X113893390Y-85342972D01*
X113893390Y-85342972D02*
X113798152Y-85390591D01*
X103355295Y-86247734D02*
X103355295Y-85771544D01*
X103069580Y-86342972D02*
X104069580Y-86009639D01*
X104069580Y-86009639D02*
X103069580Y-85676306D01*
X104069580Y-85438210D02*
X104069580Y-84819163D01*
X104069580Y-84819163D02*
X103688628Y-85152496D01*
X103688628Y-85152496D02*
X103688628Y-85009639D01*
X103688628Y-85009639D02*
X103641009Y-84914401D01*
X103641009Y-84914401D02*
X103593390Y-84866782D01*
X103593390Y-84866782D02*
X103498152Y-84819163D01*
X103498152Y-84819163D02*
X103260057Y-84819163D01*
X103260057Y-84819163D02*
X103164819Y-84866782D01*
X103164819Y-84866782D02*
X103117200Y-84914401D01*
X103117200Y-84914401D02*
X103069580Y-85009639D01*
X103069580Y-85009639D02*
X103069580Y-85295353D01*
X103069580Y-85295353D02*
X103117200Y-85390591D01*
X103117200Y-85390591D02*
X103164819Y-85438210D01*
X87827580Y-86276115D02*
X88827580Y-86276115D01*
X88827580Y-86276115D02*
X88827580Y-86038020D01*
X88827580Y-86038020D02*
X88779961Y-85895163D01*
X88779961Y-85895163D02*
X88684723Y-85799925D01*
X88684723Y-85799925D02*
X88589485Y-85752306D01*
X88589485Y-85752306D02*
X88399009Y-85704687D01*
X88399009Y-85704687D02*
X88256152Y-85704687D01*
X88256152Y-85704687D02*
X88065676Y-85752306D01*
X88065676Y-85752306D02*
X87970438Y-85799925D01*
X87970438Y-85799925D02*
X87875200Y-85895163D01*
X87875200Y-85895163D02*
X87827580Y-86038020D01*
X87827580Y-86038020D02*
X87827580Y-86276115D01*
X88732342Y-85323734D02*
X88779961Y-85276115D01*
X88779961Y-85276115D02*
X88827580Y-85180877D01*
X88827580Y-85180877D02*
X88827580Y-84942782D01*
X88827580Y-84942782D02*
X88779961Y-84847544D01*
X88779961Y-84847544D02*
X88732342Y-84799925D01*
X88732342Y-84799925D02*
X88637104Y-84752306D01*
X88637104Y-84752306D02*
X88541866Y-84752306D01*
X88541866Y-84752306D02*
X88399009Y-84799925D01*
X88399009Y-84799925D02*
X87827580Y-85371353D01*
X87827580Y-85371353D02*
X87827580Y-84752306D01*
M02*
