%TF.GenerationSoftware,KiCad,Pcbnew,8.0.1*%
%TF.CreationDate,2024-04-05T09:22:38+02:00*%
%TF.ProjectId,zx-interface-2-rom,7a782d69-6e74-4657-9266-6163652d322d,rev?*%
%TF.SameCoordinates,Original*%
%TF.FileFunction,Copper,L4,Bot*%
%TF.FilePolarity,Positive*%
%FSLAX46Y46*%
G04 Gerber Fmt 4.6, Leading zero omitted, Abs format (unit mm)*
G04 Created by KiCad (PCBNEW 8.0.1) date 2024-04-05 09:22:38*
%MOMM*%
%LPD*%
G01*
G04 APERTURE LIST*
G04 Aperture macros list*
%AMRoundRect*
0 Rectangle with rounded corners*
0 $1 Rounding radius*
0 $2 $3 $4 $5 $6 $7 $8 $9 X,Y pos of 4 corners*
0 Add a 4 corners polygon primitive as box body*
4,1,4,$2,$3,$4,$5,$6,$7,$8,$9,$2,$3,0*
0 Add four circle primitives for the rounded corners*
1,1,$1+$1,$2,$3*
1,1,$1+$1,$4,$5*
1,1,$1+$1,$6,$7*
1,1,$1+$1,$8,$9*
0 Add four rect primitives between the rounded corners*
20,1,$1+$1,$2,$3,$4,$5,0*
20,1,$1+$1,$4,$5,$6,$7,0*
20,1,$1+$1,$6,$7,$8,$9,0*
20,1,$1+$1,$8,$9,$2,$3,0*%
G04 Aperture macros list end*
%TA.AperFunction,EtchedComponent*%
%ADD10C,0.000000*%
%TD*%
%TA.AperFunction,ComponentPad*%
%ADD11C,1.600000*%
%TD*%
%TA.AperFunction,ComponentPad*%
%ADD12O,1.600000X1.600000*%
%TD*%
%TA.AperFunction,ComponentPad*%
%ADD13R,1.600000X1.600000*%
%TD*%
%TA.AperFunction,ConnectorPad*%
%ADD14RoundRect,0.381000X0.381000X3.175000X-0.381000X3.175000X-0.381000X-3.175000X0.381000X-3.175000X0*%
%TD*%
%TA.AperFunction,ViaPad*%
%ADD15C,0.600000*%
%TD*%
%TA.AperFunction,Conductor*%
%ADD16C,0.200000*%
%TD*%
G04 APERTURE END LIST*
D10*
%TA.AperFunction,EtchedComponent*%
%TO.C,G200*%
G36*
X100350891Y-73991726D02*
G01*
X100341833Y-74000785D01*
X100332774Y-73991726D01*
X100341833Y-73982668D01*
X100350891Y-73991726D01*
G37*
%TD.AperFunction*%
%TA.AperFunction,EtchedComponent*%
G36*
X102923502Y-73991726D02*
G01*
X102914443Y-74000785D01*
X102905385Y-73991726D01*
X102914443Y-73982668D01*
X102923502Y-73991726D01*
G37*
%TD.AperFunction*%
%TA.AperFunction,EtchedComponent*%
G36*
X105459878Y-73991726D02*
G01*
X105450820Y-74000785D01*
X105441761Y-73991726D01*
X105450820Y-73982668D01*
X105459878Y-73991726D01*
G37*
%TD.AperFunction*%
%TA.AperFunction,EtchedComponent*%
G36*
X100911194Y-74004245D02*
G01*
X100910723Y-74030839D01*
X100904888Y-74077107D01*
X100894400Y-74100428D01*
X100881868Y-74123068D01*
X100876283Y-74164907D01*
X100875252Y-74187553D01*
X100863251Y-74212378D01*
X100829967Y-74218188D01*
X100828539Y-74218188D01*
X100798625Y-74215988D01*
X100794366Y-74202735D01*
X100812168Y-74168367D01*
X100825361Y-74142455D01*
X100850745Y-74083892D01*
X100875278Y-74018902D01*
X100909870Y-73919258D01*
X100911194Y-74004245D01*
G37*
%TD.AperFunction*%
%TA.AperFunction,EtchedComponent*%
G36*
X103509747Y-73776789D02*
G01*
X103515990Y-73820666D01*
X103519967Y-73893622D01*
X103521362Y-73991726D01*
X103521362Y-74218188D01*
X103437752Y-74218188D01*
X103400191Y-74217887D01*
X103370700Y-74214128D01*
X103366340Y-74202212D01*
X103380490Y-74177425D01*
X103404454Y-74131161D01*
X103433407Y-74056490D01*
X103459323Y-73972864D01*
X103477972Y-73894150D01*
X103485128Y-73834214D01*
X103485460Y-73821074D01*
X103491667Y-73781283D01*
X103503245Y-73765264D01*
X103509747Y-73776789D01*
G37*
%TD.AperFunction*%
%TA.AperFunction,EtchedComponent*%
G36*
X105063437Y-73950522D02*
G01*
X105083749Y-73968878D01*
X105106666Y-74000831D01*
X105099350Y-74024337D01*
X105093244Y-74034644D01*
X105083334Y-74075725D01*
X105079422Y-74131227D01*
X105079422Y-74218188D01*
X105004870Y-74218188D01*
X104978866Y-74218056D01*
X104947226Y-74214853D01*
X104942243Y-74203006D01*
X104957407Y-74176847D01*
X104970444Y-74152807D01*
X104993935Y-74097917D01*
X105016357Y-74034427D01*
X105019966Y-74022991D01*
X105037033Y-73972241D01*
X105049694Y-73949864D01*
X105063437Y-73950522D01*
G37*
%TD.AperFunction*%
%TA.AperFunction,EtchedComponent*%
G36*
X106238908Y-73765259D02*
G01*
X106302318Y-73774323D01*
X106307405Y-73996256D01*
X106312491Y-74218188D01*
X106103553Y-74218188D01*
X105894615Y-74218188D01*
X105930884Y-74150518D01*
X105939499Y-74134046D01*
X105959261Y-74092297D01*
X105967154Y-74068924D01*
X105971495Y-74058727D01*
X105992655Y-74023248D01*
X106027422Y-73969870D01*
X106071326Y-73905598D01*
X106090067Y-73878776D01*
X106132145Y-73820316D01*
X106161968Y-73784843D01*
X106185635Y-73767249D01*
X106209249Y-73762424D01*
X106238908Y-73765259D01*
G37*
%TD.AperFunction*%
%TA.AperFunction,EtchedComponent*%
G36*
X110840620Y-71844627D02*
G01*
X110840620Y-72098027D01*
X110223977Y-72102794D01*
X109607333Y-72107561D01*
X110260211Y-72918496D01*
X110913088Y-73729432D01*
X110913088Y-73973810D01*
X110913088Y-74218188D01*
X109807952Y-74218188D01*
X108702817Y-74218188D01*
X108702817Y-73964766D01*
X108702817Y-73711344D01*
X109392706Y-73706599D01*
X110082594Y-73701855D01*
X109428940Y-72898419D01*
X108775285Y-72094984D01*
X108775285Y-71843105D01*
X108775285Y-71591227D01*
X109807952Y-71591227D01*
X110840620Y-71591227D01*
X110840620Y-71844627D01*
G37*
%TD.AperFunction*%
%TA.AperFunction,EtchedComponent*%
G36*
X104082988Y-73855849D02*
G01*
X104082988Y-74254422D01*
X103965228Y-74254422D01*
X103847467Y-74254422D01*
X103847467Y-73973161D01*
X103847467Y-73691899D01*
X103797646Y-73672665D01*
X103765463Y-73665122D01*
X103703759Y-73659698D01*
X103634593Y-73660384D01*
X103521362Y-73667338D01*
X103521362Y-73562307D01*
X103521364Y-73554347D01*
X103522501Y-73498851D01*
X103528657Y-73469963D01*
X103544115Y-73459000D01*
X103573160Y-73457275D01*
X103608857Y-73463336D01*
X103667776Y-73482940D01*
X103731683Y-73511397D01*
X103785230Y-73538277D01*
X103825776Y-73558094D01*
X103842938Y-73565748D01*
X103842989Y-73565747D01*
X103846154Y-73549745D01*
X103847467Y-73511626D01*
X103847467Y-73457275D01*
X103965228Y-73457275D01*
X104082988Y-73457275D01*
X104082988Y-73855849D01*
G37*
%TD.AperFunction*%
%TA.AperFunction,EtchedComponent*%
G36*
X106619365Y-73855849D02*
G01*
X106619365Y-74254422D01*
X106501604Y-74254422D01*
X106383844Y-74254422D01*
X106383844Y-73973161D01*
X106383844Y-73691899D01*
X106334022Y-73672665D01*
X106301840Y-73665122D01*
X106240136Y-73659698D01*
X106170970Y-73660384D01*
X106057738Y-73667338D01*
X106057738Y-73562307D01*
X106057741Y-73554347D01*
X106058878Y-73498851D01*
X106065034Y-73469963D01*
X106080492Y-73459000D01*
X106109536Y-73457275D01*
X106145233Y-73463336D01*
X106204152Y-73482940D01*
X106268060Y-73511397D01*
X106321607Y-73538277D01*
X106362152Y-73558094D01*
X106379315Y-73565748D01*
X106379365Y-73565747D01*
X106382530Y-73549745D01*
X106383844Y-73511626D01*
X106383844Y-73457275D01*
X106501604Y-73457275D01*
X106619365Y-73457275D01*
X106619365Y-73855849D01*
G37*
%TD.AperFunction*%
%TA.AperFunction,EtchedComponent*%
G36*
X105586697Y-71826748D02*
G01*
X105586697Y-72062268D01*
X105369293Y-72062268D01*
X105151890Y-72062268D01*
X105152377Y-72764301D01*
X105152423Y-72843021D01*
X105152381Y-73007663D01*
X105151966Y-73141768D01*
X105150982Y-73249356D01*
X105149230Y-73334444D01*
X105146515Y-73401053D01*
X105142641Y-73453201D01*
X105137410Y-73494908D01*
X105130627Y-73530192D01*
X105122093Y-73563073D01*
X105111614Y-73597570D01*
X105108934Y-73606067D01*
X105088429Y-73667468D01*
X105074422Y-73698716D01*
X105064198Y-73704162D01*
X105055039Y-73688155D01*
X105046034Y-73664980D01*
X104986503Y-73543894D01*
X104915826Y-73454890D01*
X104829789Y-73394868D01*
X104724182Y-73360728D01*
X104594793Y-73349369D01*
X104481562Y-73348574D01*
X104481562Y-72705421D01*
X104481562Y-72062268D01*
X104264158Y-72062268D01*
X104046754Y-72062268D01*
X104046754Y-71826748D01*
X104046754Y-71591227D01*
X104816726Y-71591227D01*
X105586697Y-71591227D01*
X105586697Y-71826748D01*
G37*
%TD.AperFunction*%
%TA.AperFunction,EtchedComponent*%
G36*
X104590314Y-73741506D02*
G01*
X104614828Y-73762379D01*
X104641990Y-73801861D01*
X104662621Y-73860448D01*
X104664485Y-73915469D01*
X104645607Y-73954594D01*
X104643447Y-73956458D01*
X104594820Y-73977224D01*
X104528080Y-73981972D01*
X104456517Y-73971190D01*
X104393420Y-73945364D01*
X104348188Y-73923282D01*
X104291825Y-73913175D01*
X104250518Y-73927193D01*
X104230919Y-73964551D01*
X104223407Y-73996843D01*
X104208273Y-74027054D01*
X104203124Y-74036716D01*
X104194924Y-74076428D01*
X104191690Y-74131227D01*
X104190625Y-74160536D01*
X104184088Y-74201933D01*
X104173573Y-74218188D01*
X104166692Y-74204748D01*
X104160641Y-74158666D01*
X104156800Y-74083394D01*
X104155456Y-73982668D01*
X104156881Y-73880237D01*
X104161859Y-73799699D01*
X104170410Y-73755206D01*
X104182537Y-73746749D01*
X104198242Y-73774323D01*
X104206997Y-73786484D01*
X104243038Y-73799842D01*
X104292265Y-73796318D01*
X104341792Y-73775783D01*
X104363276Y-73765595D01*
X104417835Y-73749458D01*
X104481871Y-73737989D01*
X104509216Y-73734943D01*
X104559128Y-73733098D01*
X104590314Y-73741506D01*
G37*
%TD.AperFunction*%
%TA.AperFunction,EtchedComponent*%
G36*
X101419793Y-73339515D02*
G01*
X101419793Y-73457275D01*
X101474144Y-73457275D01*
X101500983Y-73458293D01*
X101520006Y-73467496D01*
X101527307Y-73494236D01*
X101528495Y-73547860D01*
X101527884Y-73592593D01*
X101522362Y-73624298D01*
X101506318Y-73636466D01*
X101474144Y-73638445D01*
X101419793Y-73638445D01*
X101419793Y-73881634D01*
X101419791Y-73893533D01*
X101419389Y-73988724D01*
X101417509Y-74055513D01*
X101413040Y-74100989D01*
X101404872Y-74132243D01*
X101391895Y-74156362D01*
X101372998Y-74180436D01*
X101367281Y-74186893D01*
X101319111Y-74227306D01*
X101268825Y-74252660D01*
X101254767Y-74256427D01*
X101142036Y-74270216D01*
X101016690Y-74260911D01*
X100986122Y-74255259D01*
X100960077Y-74243295D01*
X100950251Y-74217229D01*
X100948719Y-74165996D01*
X100948687Y-74082311D01*
X101043163Y-74082311D01*
X101090498Y-74079859D01*
X101131400Y-74067622D01*
X101158432Y-74040282D01*
X101174364Y-73992583D01*
X101181965Y-73919270D01*
X101184005Y-73815086D01*
X101184272Y-73638445D01*
X101066512Y-73638445D01*
X100948751Y-73638445D01*
X100948751Y-73547860D01*
X100948751Y-73457275D01*
X101066512Y-73457275D01*
X101184272Y-73457275D01*
X101184272Y-73339515D01*
X101184272Y-73221755D01*
X101302032Y-73221755D01*
X101419793Y-73221755D01*
X101419793Y-73339515D01*
G37*
%TD.AperFunction*%
%TA.AperFunction,EtchedComponent*%
G36*
X111683059Y-72948889D02*
G01*
X111683059Y-75030533D01*
X111637767Y-75079266D01*
X111634425Y-75082801D01*
X111593196Y-75119603D01*
X111556241Y-75143020D01*
X111556192Y-75143038D01*
X111535161Y-75144054D01*
X111479097Y-75145035D01*
X111389180Y-75145982D01*
X111266590Y-75146892D01*
X111112508Y-75147763D01*
X110928112Y-75148594D01*
X110714583Y-75149382D01*
X110473102Y-75150127D01*
X110204849Y-75150826D01*
X109911003Y-75151477D01*
X109592744Y-75152079D01*
X109251254Y-75152630D01*
X108887711Y-75153129D01*
X108503297Y-75153573D01*
X108099191Y-75153960D01*
X107676573Y-75154290D01*
X107236623Y-75154560D01*
X106780522Y-75154768D01*
X106309449Y-75154913D01*
X105824585Y-75154993D01*
X105327110Y-75155006D01*
X104818204Y-75154951D01*
X104299047Y-75154825D01*
X103770818Y-75154627D01*
X96021630Y-75151213D01*
X95962402Y-75091984D01*
X95903174Y-75032756D01*
X95903174Y-74942867D01*
X96111519Y-74942867D01*
X103793117Y-74942867D01*
X111474714Y-74942867D01*
X111474714Y-72950000D01*
X111474714Y-70957133D01*
X103793117Y-70957133D01*
X96111519Y-70957133D01*
X96111519Y-72950000D01*
X96111519Y-74942867D01*
X95903174Y-74942867D01*
X95903174Y-72950000D01*
X95903174Y-70867245D01*
X95962402Y-70808016D01*
X96021631Y-70748788D01*
X103793117Y-70748788D01*
X111564602Y-70748788D01*
X111623831Y-70808016D01*
X111683059Y-70867245D01*
X111683059Y-70957133D01*
X111683059Y-72948889D01*
G37*
%TD.AperFunction*%
%TA.AperFunction,EtchedComponent*%
G36*
X99868121Y-73993562D02*
G01*
X99833274Y-74101038D01*
X99774506Y-74182250D01*
X99691414Y-74238019D01*
X99657085Y-74252171D01*
X99579973Y-74269435D01*
X99502920Y-74261498D01*
X99413338Y-74227903D01*
X99412545Y-74227534D01*
X99359599Y-74203653D01*
X99331422Y-74194758D01*
X99320225Y-74200124D01*
X99318223Y-74219022D01*
X99318206Y-74220952D01*
X99313820Y-74238825D01*
X99296368Y-74248926D01*
X99258134Y-74253407D01*
X99191405Y-74254422D01*
X99064586Y-74254422D01*
X99064586Y-74037463D01*
X99317033Y-74037463D01*
X99364100Y-74055358D01*
X99371885Y-74058064D01*
X99432260Y-74069430D01*
X99498149Y-74070658D01*
X99549596Y-74061127D01*
X99568886Y-74047310D01*
X99597896Y-74001369D01*
X99618424Y-73936621D01*
X99626212Y-73864016D01*
X99624046Y-73818769D01*
X99601628Y-73728846D01*
X99555723Y-73665631D01*
X99487357Y-73630198D01*
X99397551Y-73623625D01*
X99327282Y-73629387D01*
X99322157Y-73833425D01*
X99317033Y-74037463D01*
X99064586Y-74037463D01*
X99064586Y-73701855D01*
X99064586Y-73149287D01*
X99191405Y-73149287D01*
X99318223Y-73149287D01*
X99318223Y-73320595D01*
X99318223Y-73491902D01*
X99395221Y-73464186D01*
X99455483Y-73448868D01*
X99549527Y-73446569D01*
X99550027Y-73446635D01*
X99663954Y-73477538D01*
X99755470Y-73536101D01*
X99822966Y-73620315D01*
X99864830Y-73728175D01*
X99879452Y-73857675D01*
X99879455Y-73859003D01*
X99879033Y-73864016D01*
X99868121Y-73993562D01*
G37*
%TD.AperFunction*%
%TA.AperFunction,EtchedComponent*%
G36*
X96807884Y-73561448D02*
G01*
X96838459Y-73656026D01*
X96872900Y-73755748D01*
X96904396Y-73840055D01*
X96931047Y-73904136D01*
X96950953Y-73943177D01*
X96962215Y-73952366D01*
X96964454Y-73948710D01*
X96978416Y-73917298D01*
X97001088Y-73860523D01*
X97029879Y-73784995D01*
X97062196Y-73697325D01*
X97149303Y-73457275D01*
X97275677Y-73457275D01*
X97277944Y-73457276D01*
X97343258Y-73458340D01*
X97379574Y-73462718D01*
X97393910Y-73472300D01*
X97393284Y-73488980D01*
X97391952Y-73493229D01*
X97379571Y-73527814D01*
X97356721Y-73589051D01*
X97325491Y-73671424D01*
X97287967Y-73769420D01*
X97246236Y-73877524D01*
X97233054Y-73911633D01*
X97193189Y-74015995D01*
X97158807Y-74107800D01*
X97131847Y-74181755D01*
X97114249Y-74232567D01*
X97107952Y-74254944D01*
X97108069Y-74256558D01*
X97116575Y-74285679D01*
X97135900Y-74336591D01*
X97162303Y-74399358D01*
X97166514Y-74408982D01*
X97191933Y-74468584D01*
X97209865Y-74513183D01*
X97216654Y-74533743D01*
X97216357Y-74534453D01*
X97195732Y-74539381D01*
X97149047Y-74542773D01*
X97085306Y-74543932D01*
X96953958Y-74543570D01*
X96740918Y-74014011D01*
X96714008Y-73947008D01*
X96663915Y-73821650D01*
X96619297Y-73709169D01*
X96581777Y-73613708D01*
X96552980Y-73539409D01*
X96534527Y-73490413D01*
X96528044Y-73470863D01*
X96528067Y-73470615D01*
X96545778Y-73463885D01*
X96590096Y-73459098D01*
X96651720Y-73457275D01*
X96775230Y-73457275D01*
X96807884Y-73561448D01*
G37*
%TD.AperFunction*%
%TA.AperFunction,EtchedComponent*%
G36*
X104629904Y-73454765D02*
G01*
X104750771Y-73482792D01*
X104848517Y-73537049D01*
X104925360Y-73618543D01*
X104951596Y-73659458D01*
X104970242Y-73703631D01*
X104980270Y-73757638D01*
X104985340Y-73834667D01*
X104986794Y-73892353D01*
X104983459Y-73954765D01*
X104971668Y-74004381D01*
X104949174Y-74054893D01*
X104942735Y-74066751D01*
X104875616Y-74150790D01*
X104785058Y-74215539D01*
X104680848Y-74253741D01*
X104679378Y-74254045D01*
X104594563Y-74263547D01*
X104495959Y-74263049D01*
X104399979Y-74253392D01*
X104323038Y-74235416D01*
X104319209Y-74234060D01*
X104287966Y-74220595D01*
X104271558Y-74201948D01*
X104265213Y-74167771D01*
X104264158Y-74107714D01*
X104265197Y-74059930D01*
X104268748Y-74017235D01*
X104273950Y-74000785D01*
X104275961Y-74001211D01*
X104299787Y-74014430D01*
X104337309Y-74040388D01*
X104404166Y-74072173D01*
X104499287Y-74087833D01*
X104503800Y-74088158D01*
X104563892Y-74090899D01*
X104602827Y-74085216D01*
X104634684Y-74066423D01*
X104673541Y-74029832D01*
X104688299Y-74014960D01*
X104717166Y-73981886D01*
X104731369Y-73950877D01*
X104734901Y-73909199D01*
X104731752Y-73844120D01*
X104726708Y-73784529D01*
X104716846Y-73738067D01*
X104698183Y-73704794D01*
X104665964Y-73672290D01*
X104624729Y-73643637D01*
X104543357Y-73619885D01*
X104452322Y-73627245D01*
X104357423Y-73665839D01*
X104329168Y-73681726D01*
X104289872Y-73702699D01*
X104271367Y-73710913D01*
X104268111Y-73699192D01*
X104265257Y-73660042D01*
X104264158Y-73602910D01*
X104264158Y-73494906D01*
X104341155Y-73471669D01*
X104398145Y-73460281D01*
X104475169Y-73452509D01*
X104554921Y-73450190D01*
X104629904Y-73454765D01*
G37*
%TD.AperFunction*%
%TA.AperFunction,EtchedComponent*%
G36*
X98321790Y-74254422D02*
G01*
X98205539Y-74254422D01*
X98148830Y-74252235D01*
X98103054Y-74245882D01*
X98083250Y-74236823D01*
X98079492Y-74232888D01*
X98049318Y-74231785D01*
X97995684Y-74244670D01*
X97974411Y-74251091D01*
X97897211Y-74268034D01*
X97830549Y-74267980D01*
X97757272Y-74251416D01*
X97751189Y-74249456D01*
X97682784Y-74211890D01*
X97615511Y-74151641D01*
X97559809Y-74079738D01*
X97526119Y-74007211D01*
X97516368Y-73961027D01*
X97507792Y-73861619D01*
X97508018Y-73854097D01*
X97760164Y-73854097D01*
X97760177Y-73858316D01*
X97770506Y-73953769D01*
X97801071Y-74021711D01*
X97853376Y-74065553D01*
X97879378Y-74075431D01*
X97933895Y-74086454D01*
X97993483Y-74091328D01*
X98044721Y-74089219D01*
X98074191Y-74079292D01*
X98077795Y-74067172D01*
X98082169Y-74024632D01*
X98085160Y-73959841D01*
X98086269Y-73881032D01*
X98086267Y-73873744D01*
X98085561Y-73791293D01*
X98082605Y-73736938D01*
X98075976Y-73703099D01*
X98064250Y-73682195D01*
X98046004Y-73666648D01*
X98027839Y-73656909D01*
X97968544Y-73641869D01*
X97900637Y-73638956D01*
X97842502Y-73649699D01*
X97825309Y-73659793D01*
X97791526Y-73704640D01*
X97768606Y-73772398D01*
X97760164Y-73854097D01*
X97508018Y-73854097D01*
X97510907Y-73758095D01*
X97525732Y-73669655D01*
X97558056Y-73592550D01*
X97619958Y-73517684D01*
X97700314Y-73468234D01*
X97793133Y-73446445D01*
X97892423Y-73454565D01*
X97992191Y-73494838D01*
X98001978Y-73500412D01*
X98043569Y-73521293D01*
X98069188Y-73529743D01*
X98074444Y-73520985D01*
X98080597Y-73482488D01*
X98084747Y-73419679D01*
X98086269Y-73339515D01*
X98086269Y-73149287D01*
X98204029Y-73149287D01*
X98321790Y-73149287D01*
X98321790Y-73701855D01*
X98321790Y-73881032D01*
X98321790Y-74254422D01*
G37*
%TD.AperFunction*%
%TA.AperFunction,EtchedComponent*%
G36*
X100296363Y-71462255D02*
G01*
X100463012Y-71498214D01*
X100602792Y-71557678D01*
X100715409Y-71640507D01*
X100800569Y-71746561D01*
X100857979Y-71875700D01*
X100874895Y-71937285D01*
X100888987Y-72004352D01*
X100894400Y-72052854D01*
X100897296Y-72106792D01*
X100905723Y-72168706D01*
X100917047Y-72225321D01*
X101050659Y-72225321D01*
X101184272Y-72225321D01*
X101184272Y-72442725D01*
X101184272Y-72660129D01*
X101048395Y-72660129D01*
X100912517Y-72660129D01*
X100912517Y-73066691D01*
X100912517Y-73070389D01*
X100911677Y-73208545D01*
X100909323Y-73321878D01*
X100905576Y-73407540D01*
X100900560Y-73462681D01*
X100894400Y-73484451D01*
X100882592Y-73503164D01*
X100876283Y-73542589D01*
X100875694Y-73562858D01*
X100870262Y-73572872D01*
X100854661Y-73558382D01*
X100823592Y-73516792D01*
X100776685Y-73462966D01*
X100684365Y-73398918D01*
X100569006Y-73361036D01*
X100428860Y-73348574D01*
X100278423Y-73348574D01*
X100278423Y-73004351D01*
X100278423Y-72660129D01*
X100042903Y-72660129D01*
X99807382Y-72660129D01*
X99807382Y-72442725D01*
X99807382Y-72225321D01*
X100054485Y-72225321D01*
X100301587Y-72225321D01*
X100290587Y-72132445D01*
X100282461Y-72082467D01*
X100255296Y-72005351D01*
X100209779Y-71951401D01*
X100142112Y-71918254D01*
X100048498Y-71903545D01*
X99925142Y-71904910D01*
X99894261Y-71906987D01*
X99818744Y-71913474D01*
X99757435Y-71920657D01*
X99721326Y-71927327D01*
X99718962Y-71928042D01*
X99702787Y-71931551D01*
X99691944Y-71926806D01*
X99685365Y-71908211D01*
X99681987Y-71870170D01*
X99680741Y-71807086D01*
X99680563Y-71713365D01*
X99680563Y-71487054D01*
X99734036Y-71476360D01*
X99755292Y-71473055D01*
X99812861Y-71466686D01*
X99889362Y-71459998D01*
X99974086Y-71453990D01*
X100103138Y-71449941D01*
X100296363Y-71462255D01*
G37*
%TD.AperFunction*%
%TA.AperFunction,EtchedComponent*%
G36*
X100830828Y-73750577D02*
G01*
X100837090Y-73827518D01*
X100833866Y-73937951D01*
X100805386Y-74047063D01*
X100749142Y-74133568D01*
X100664082Y-74198987D01*
X100549159Y-74244843D01*
X100528988Y-74249883D01*
X100428210Y-74263163D01*
X100313474Y-74264072D01*
X100200827Y-74253117D01*
X100106312Y-74230808D01*
X100101825Y-74229248D01*
X100062629Y-74213633D01*
X100041794Y-74194736D01*
X100032620Y-74161586D01*
X100028411Y-74103214D01*
X100026997Y-74059512D01*
X100028165Y-74017160D01*
X100032382Y-74000785D01*
X100039792Y-74003056D01*
X100072262Y-74017740D01*
X100119342Y-74041548D01*
X100136693Y-74050207D01*
X100190314Y-74069691D01*
X100253242Y-74079568D01*
X100338790Y-74082311D01*
X100389760Y-74082045D01*
X100443618Y-74079173D01*
X100478575Y-74070513D01*
X100505072Y-74052894D01*
X100533547Y-74023145D01*
X100545875Y-74008354D01*
X100574836Y-73963371D01*
X100586412Y-73928031D01*
X100585820Y-73918943D01*
X100580214Y-73908075D01*
X100564331Y-73900615D01*
X100532979Y-73895924D01*
X100480967Y-73893364D01*
X100403105Y-73892297D01*
X100294200Y-73892083D01*
X100001988Y-73892083D01*
X100014699Y-73779739D01*
X100022405Y-73722457D01*
X100022994Y-73719972D01*
X100260306Y-73719972D01*
X100260668Y-73723834D01*
X100270490Y-73735477D01*
X100298271Y-73742602D01*
X100350091Y-73746171D01*
X100432029Y-73747147D01*
X100603752Y-73747147D01*
X100584026Y-73703852D01*
X100551483Y-73662712D01*
X100498800Y-73634342D01*
X100436167Y-73621716D01*
X100372292Y-73624399D01*
X100315884Y-73641959D01*
X100275652Y-73673961D01*
X100260306Y-73719972D01*
X100022994Y-73719972D01*
X100038555Y-73654360D01*
X100064095Y-73601388D01*
X100104047Y-73550668D01*
X100151953Y-73506297D01*
X100214024Y-73472705D01*
X100292480Y-73454681D01*
X100396667Y-73448976D01*
X100493928Y-73454366D01*
X100608460Y-73482638D01*
X100701292Y-73536602D01*
X100776180Y-73617931D01*
X100796518Y-73648859D01*
X100818670Y-73695725D01*
X100830068Y-73747147D01*
X100830828Y-73750577D01*
G37*
%TD.AperFunction*%
%TA.AperFunction,EtchedComponent*%
G36*
X103403438Y-73750577D02*
G01*
X103409701Y-73827518D01*
X103406476Y-73937951D01*
X103377997Y-74047063D01*
X103321752Y-74133568D01*
X103236693Y-74198987D01*
X103121769Y-74244843D01*
X103101598Y-74249883D01*
X103000820Y-74263163D01*
X102886085Y-74264072D01*
X102773438Y-74253117D01*
X102678923Y-74230808D01*
X102674436Y-74229248D01*
X102635240Y-74213633D01*
X102614404Y-74194736D01*
X102605230Y-74161586D01*
X102601021Y-74103214D01*
X102599608Y-74059512D01*
X102600776Y-74017160D01*
X102604993Y-74000785D01*
X102612402Y-74003056D01*
X102644872Y-74017740D01*
X102691952Y-74041548D01*
X102709304Y-74050207D01*
X102762924Y-74069691D01*
X102825852Y-74079568D01*
X102911400Y-74082311D01*
X102962371Y-74082045D01*
X103016228Y-74079173D01*
X103051186Y-74070513D01*
X103077682Y-74052894D01*
X103106158Y-74023145D01*
X103118486Y-74008354D01*
X103147447Y-73963371D01*
X103159022Y-73928031D01*
X103158431Y-73918943D01*
X103152825Y-73908075D01*
X103136942Y-73900615D01*
X103105590Y-73895924D01*
X103053578Y-73893364D01*
X102975715Y-73892297D01*
X102866811Y-73892083D01*
X102574599Y-73892083D01*
X102587309Y-73779739D01*
X102595016Y-73722457D01*
X102595605Y-73719972D01*
X102832917Y-73719972D01*
X102833279Y-73723834D01*
X102843100Y-73735477D01*
X102870882Y-73742602D01*
X102922702Y-73746171D01*
X103004640Y-73747147D01*
X103176363Y-73747147D01*
X103156636Y-73703852D01*
X103124093Y-73662712D01*
X103071411Y-73634342D01*
X103008778Y-73621716D01*
X102944902Y-73624399D01*
X102888494Y-73641959D01*
X102848263Y-73673961D01*
X102832917Y-73719972D01*
X102595605Y-73719972D01*
X102611166Y-73654360D01*
X102636706Y-73601388D01*
X102676657Y-73550668D01*
X102724564Y-73506297D01*
X102786635Y-73472705D01*
X102865090Y-73454681D01*
X102969278Y-73448976D01*
X103066538Y-73454366D01*
X103181070Y-73482638D01*
X103273902Y-73536602D01*
X103348790Y-73617931D01*
X103369128Y-73648859D01*
X103391280Y-73695725D01*
X103402678Y-73747147D01*
X103403438Y-73750577D01*
G37*
%TD.AperFunction*%
%TA.AperFunction,EtchedComponent*%
G36*
X105939815Y-73750577D02*
G01*
X105946077Y-73827518D01*
X105942853Y-73937951D01*
X105914373Y-74047063D01*
X105858129Y-74133568D01*
X105773070Y-74198987D01*
X105658146Y-74244843D01*
X105637975Y-74249883D01*
X105537197Y-74263163D01*
X105422462Y-74264072D01*
X105309814Y-74253117D01*
X105215299Y-74230808D01*
X105210812Y-74229248D01*
X105171617Y-74213633D01*
X105150781Y-74194736D01*
X105141607Y-74161586D01*
X105137398Y-74103214D01*
X105135984Y-74059512D01*
X105137153Y-74017160D01*
X105141369Y-74000785D01*
X105148779Y-74003056D01*
X105181249Y-74017740D01*
X105228329Y-74041548D01*
X105245680Y-74050207D01*
X105299301Y-74069691D01*
X105362229Y-74079568D01*
X105447777Y-74082311D01*
X105498747Y-74082045D01*
X105552605Y-74079173D01*
X105587562Y-74070513D01*
X105614059Y-74052894D01*
X105642534Y-74023145D01*
X105654862Y-74008354D01*
X105683824Y-73963371D01*
X105695399Y-73928031D01*
X105694807Y-73918943D01*
X105689201Y-73908075D01*
X105673318Y-73900615D01*
X105641966Y-73895924D01*
X105589955Y-73893364D01*
X105512092Y-73892297D01*
X105403187Y-73892083D01*
X105110976Y-73892083D01*
X105123686Y-73779739D01*
X105131392Y-73722457D01*
X105131981Y-73719972D01*
X105369293Y-73719972D01*
X105369655Y-73723834D01*
X105379477Y-73735477D01*
X105407258Y-73742602D01*
X105459078Y-73746171D01*
X105541016Y-73747147D01*
X105712739Y-73747147D01*
X105693013Y-73703852D01*
X105660470Y-73662712D01*
X105607788Y-73634342D01*
X105545154Y-73621716D01*
X105481279Y-73624399D01*
X105424871Y-73641959D01*
X105384639Y-73673961D01*
X105369293Y-73719972D01*
X105131981Y-73719972D01*
X105147542Y-73654360D01*
X105173082Y-73601388D01*
X105213034Y-73550668D01*
X105260940Y-73506297D01*
X105323011Y-73472705D01*
X105401467Y-73454681D01*
X105505654Y-73448976D01*
X105602915Y-73454366D01*
X105717447Y-73482638D01*
X105810279Y-73536602D01*
X105885167Y-73617931D01*
X105905505Y-73648859D01*
X105927657Y-73695725D01*
X105939055Y-73747147D01*
X105939815Y-73750577D01*
G37*
%TD.AperFunction*%
%TA.AperFunction,EtchedComponent*%
G36*
X102452460Y-74018902D02*
G01*
X102452456Y-74020639D01*
X102437538Y-74114430D01*
X102393483Y-74186809D01*
X102319911Y-74238405D01*
X102299402Y-74246954D01*
X102202255Y-74265746D01*
X102099987Y-74256094D01*
X102005574Y-74218807D01*
X101965948Y-74195974D01*
X101939042Y-74184807D01*
X101928735Y-74192233D01*
X101927068Y-74218188D01*
X101927033Y-74221073D01*
X101922541Y-74238984D01*
X101905078Y-74249036D01*
X101866896Y-74253445D01*
X101800249Y-74254422D01*
X101673430Y-74254422D01*
X101673430Y-73961643D01*
X101927068Y-73961643D01*
X101927161Y-73976485D01*
X101931173Y-74025237D01*
X101944829Y-74052533D01*
X101973213Y-74070345D01*
X101978314Y-74072498D01*
X102030747Y-74085895D01*
X102090556Y-74091370D01*
X102117287Y-74090364D01*
X102161016Y-74077982D01*
X102191430Y-74046077D01*
X102207129Y-74019528D01*
X102210699Y-73991414D01*
X102192019Y-73956391D01*
X102181273Y-73943162D01*
X102129262Y-73907923D01*
X102057164Y-73883372D01*
X101976890Y-73874067D01*
X101956029Y-73874786D01*
X101936354Y-73883279D01*
X101928493Y-73909079D01*
X101927068Y-73961643D01*
X101673430Y-73961643D01*
X101673430Y-73953701D01*
X101673471Y-73922471D01*
X101675130Y-73796759D01*
X101680396Y-73700902D01*
X101690876Y-73629678D01*
X101708177Y-73577863D01*
X101733903Y-73540232D01*
X101769663Y-73511563D01*
X101817061Y-73486631D01*
X101833641Y-73479304D01*
X101878813Y-73463838D01*
X101929899Y-73454859D01*
X101996976Y-73451059D01*
X102090121Y-73451127D01*
X102145594Y-73452552D01*
X102227165Y-73456904D01*
X102293740Y-73463122D01*
X102334700Y-73470369D01*
X102356158Y-73477807D01*
X102378616Y-73494135D01*
X102389430Y-73524814D01*
X102394527Y-73580786D01*
X102396198Y-73616555D01*
X102396650Y-73658298D01*
X102394527Y-73674483D01*
X102386284Y-73672520D01*
X102351565Y-73662655D01*
X102300116Y-73647308D01*
X102225538Y-73629749D01*
X102136144Y-73620829D01*
X102054830Y-73624690D01*
X101988365Y-73640326D01*
X101943521Y-73666726D01*
X101927068Y-73702882D01*
X101927573Y-73714290D01*
X101932073Y-73729030D01*
X101935564Y-73729349D01*
X101966043Y-73732862D01*
X102020587Y-73739432D01*
X102090596Y-73748029D01*
X102130011Y-73753412D01*
X102252953Y-73779561D01*
X102344096Y-73817258D01*
X102406014Y-73868430D01*
X102441277Y-73935003D01*
X102448796Y-73991414D01*
X102452460Y-74018902D01*
G37*
%TD.AperFunction*%
%TA.AperFunction,EtchedComponent*%
G36*
X106892619Y-71998250D02*
G01*
X106897040Y-72004692D01*
X106970399Y-72111067D01*
X107036975Y-72206710D01*
X107094047Y-72287778D01*
X107138889Y-72350428D01*
X107168778Y-72390817D01*
X107180991Y-72405103D01*
X107181073Y-72405089D01*
X107193670Y-72389763D01*
X107223531Y-72348257D01*
X107267965Y-72284467D01*
X107324282Y-72202289D01*
X107389792Y-72105621D01*
X107461804Y-71998359D01*
X107733559Y-71591786D01*
X108119614Y-71591506D01*
X108240913Y-71591794D01*
X108344414Y-71593138D01*
X108417981Y-71595743D01*
X108464923Y-71599802D01*
X108488554Y-71605507D01*
X108492183Y-71613047D01*
X108487533Y-71619988D01*
X108464137Y-71653916D01*
X108423381Y-71712584D01*
X108367487Y-71792803D01*
X108298682Y-71891385D01*
X108219189Y-72005143D01*
X108131233Y-72130886D01*
X108037038Y-72265428D01*
X107595378Y-72895988D01*
X108046030Y-73534442D01*
X108104136Y-73616792D01*
X108196044Y-73747167D01*
X108280351Y-73866910D01*
X108354839Y-73972860D01*
X108417290Y-74061858D01*
X108465485Y-74130744D01*
X108497206Y-74176359D01*
X108510233Y-74195542D01*
X108508052Y-74203217D01*
X108487963Y-74209222D01*
X108446156Y-74213491D01*
X108379003Y-74216254D01*
X108282879Y-74217743D01*
X108154157Y-74218188D01*
X107784527Y-74218188D01*
X107494281Y-73782389D01*
X107204035Y-73346590D01*
X106952463Y-73731606D01*
X106700891Y-74116621D01*
X106691833Y-73746185D01*
X106682774Y-73375749D01*
X106569543Y-73370355D01*
X106515819Y-73366754D01*
X106472805Y-73361580D01*
X106456312Y-73356315D01*
X106459878Y-73349409D01*
X106480445Y-73317222D01*
X106516235Y-73263767D01*
X106563718Y-73194289D01*
X106619365Y-73114032D01*
X106653049Y-73065518D01*
X106704339Y-72990577D01*
X106745356Y-72929280D01*
X106772562Y-72886946D01*
X106782418Y-72868897D01*
X106780024Y-72864379D01*
X106760377Y-72834751D01*
X106722744Y-72780393D01*
X106669337Y-72704429D01*
X106602365Y-72609981D01*
X106524039Y-72500171D01*
X106436569Y-72378123D01*
X106342165Y-72246958D01*
X106297876Y-72185531D01*
X106205565Y-72057377D01*
X106120687Y-71939381D01*
X106045538Y-71834747D01*
X105982415Y-71746676D01*
X105933615Y-71678371D01*
X105901435Y-71633036D01*
X105888172Y-71613873D01*
X105890293Y-71606187D01*
X105910323Y-71600185D01*
X105952069Y-71595920D01*
X106019156Y-71593159D01*
X106115213Y-71591671D01*
X106243868Y-71591227D01*
X106613306Y-71591227D01*
X106892619Y-71998250D01*
G37*
%TD.AperFunction*%
%TA.AperFunction,EtchedComponent*%
G36*
X102434376Y-72204725D02*
G01*
X102604379Y-72269033D01*
X102777087Y-72369253D01*
X102887268Y-72444075D01*
X102887268Y-72334698D01*
X102887268Y-72225321D01*
X103204315Y-72225321D01*
X103521362Y-72225321D01*
X103521362Y-72794937D01*
X103520948Y-72942154D01*
X103519426Y-73090559D01*
X103516839Y-73209915D01*
X103513242Y-73298427D01*
X103508692Y-73354304D01*
X103503245Y-73375749D01*
X103491967Y-73392163D01*
X103485128Y-73430100D01*
X103481163Y-73459415D01*
X103467011Y-73484451D01*
X103455202Y-73503164D01*
X103448894Y-73542589D01*
X103448305Y-73562858D01*
X103442873Y-73572872D01*
X103427271Y-73558382D01*
X103396202Y-73516792D01*
X103360953Y-73474927D01*
X103268485Y-73405510D01*
X103153825Y-73363002D01*
X103019588Y-73348574D01*
X102887268Y-73348574D01*
X102887268Y-73066758D01*
X102887268Y-72784943D01*
X102783095Y-72737205D01*
X102699518Y-72707355D01*
X102595914Y-72686509D01*
X102491805Y-72679353D01*
X102398238Y-72686573D01*
X102326258Y-72708853D01*
X102284589Y-72734785D01*
X102248620Y-72770937D01*
X102221938Y-72820130D01*
X102202329Y-72888161D01*
X102187582Y-72980828D01*
X102175483Y-73103929D01*
X102155403Y-73348574D01*
X102038808Y-73348574D01*
X101968480Y-73351103D01*
X101860553Y-73369240D01*
X101773996Y-73406967D01*
X101707072Y-73466775D01*
X101658043Y-73551157D01*
X101625174Y-73662604D01*
X101606726Y-73803608D01*
X101600962Y-73976660D01*
X101600669Y-74074199D01*
X101599218Y-74141245D01*
X101595755Y-74183463D01*
X101589422Y-74206557D01*
X101579365Y-74216231D01*
X101564728Y-74218188D01*
X101564268Y-74218188D01*
X101549815Y-74216111D01*
X101539886Y-74206205D01*
X101533634Y-74182790D01*
X101530215Y-74140184D01*
X101528784Y-74072707D01*
X101528495Y-73974678D01*
X101528497Y-73969891D01*
X101529920Y-73872540D01*
X101533677Y-73794731D01*
X101539373Y-73742022D01*
X101546612Y-73719972D01*
X101557890Y-73703558D01*
X101564728Y-73665621D01*
X101568693Y-73636306D01*
X101582845Y-73611270D01*
X101590939Y-73594680D01*
X101598175Y-73550559D01*
X101600962Y-73490744D01*
X101600297Y-73444063D01*
X101595618Y-73402333D01*
X101583857Y-73381120D01*
X101562018Y-73371231D01*
X101559124Y-73370462D01*
X101545961Y-73365347D01*
X101536715Y-73354882D01*
X101530945Y-73333925D01*
X101528208Y-73297331D01*
X101528063Y-73239957D01*
X101530069Y-73156659D01*
X101533784Y-73042292D01*
X101534208Y-73029856D01*
X101539599Y-72901992D01*
X101546288Y-72802705D01*
X101555053Y-72724943D01*
X101566674Y-72661651D01*
X101581926Y-72605778D01*
X101585280Y-72595463D01*
X101646537Y-72459918D01*
X101731632Y-72351090D01*
X101841262Y-72268442D01*
X101976125Y-72211439D01*
X102136918Y-72179546D01*
X102267287Y-72176391D01*
X102434376Y-72204725D01*
G37*
%TD.AperFunction*%
%TA.AperFunction,EtchedComponent*%
G36*
X98738480Y-72196194D02*
G01*
X98875608Y-72227330D01*
X99053120Y-72295409D01*
X99206466Y-72389767D01*
X99334527Y-72509044D01*
X99436184Y-72651881D01*
X99510319Y-72816920D01*
X99555813Y-73002802D01*
X99571547Y-73208167D01*
X99571861Y-73348574D01*
X99500875Y-73348574D01*
X99490220Y-73348688D01*
X99437779Y-73352260D01*
X99401991Y-73359279D01*
X99399142Y-73360240D01*
X99386104Y-73357853D01*
X99377665Y-73337572D01*
X99372380Y-73293282D01*
X99368804Y-73218872D01*
X99363516Y-73067760D01*
X99200463Y-73067760D01*
X99190892Y-73067762D01*
X99116961Y-73068305D01*
X99071278Y-73071167D01*
X99046605Y-73078288D01*
X99035707Y-73091603D01*
X99031347Y-73113053D01*
X99023835Y-73145345D01*
X99008701Y-73175557D01*
X99008646Y-73175616D01*
X99004234Y-73198114D01*
X99000280Y-73252062D01*
X98996939Y-73332733D01*
X98994363Y-73435399D01*
X98992705Y-73555334D01*
X98992118Y-73687809D01*
X98992118Y-74182851D01*
X98943937Y-74201170D01*
X98941351Y-74202119D01*
X98897278Y-74214709D01*
X98831854Y-74229819D01*
X98758238Y-74244388D01*
X98742411Y-74247177D01*
X98645680Y-74261016D01*
X98555621Y-74268929D01*
X98477113Y-74271133D01*
X98415034Y-74267849D01*
X98374260Y-74259293D01*
X98359670Y-74245687D01*
X98376141Y-74227247D01*
X98381874Y-74214257D01*
X98388342Y-74170236D01*
X98392676Y-74102378D01*
X98394258Y-74017833D01*
X98394258Y-73819615D01*
X98498430Y-73819217D01*
X98514673Y-73818955D01*
X98631682Y-73801995D01*
X98727547Y-73757087D01*
X98805533Y-73682077D01*
X98868907Y-73574810D01*
X98877246Y-73556072D01*
X98891950Y-73515938D01*
X98901610Y-73472474D01*
X98907250Y-73417457D01*
X98909891Y-73342664D01*
X98910556Y-73239872D01*
X98910540Y-73228031D01*
X98906592Y-73086923D01*
X98894681Y-72974666D01*
X98873336Y-72884917D01*
X98841088Y-72811334D01*
X98796467Y-72747573D01*
X98795251Y-72746138D01*
X98718776Y-72682630D01*
X98621976Y-72641138D01*
X98514292Y-72623252D01*
X98405164Y-72630562D01*
X98304033Y-72664658D01*
X98282215Y-72676454D01*
X98212492Y-72727311D01*
X98158610Y-72793716D01*
X98115984Y-72882543D01*
X98080033Y-73000669D01*
X98069285Y-73042089D01*
X98050575Y-73109104D01*
X98035240Y-73157723D01*
X98025831Y-73179530D01*
X98021215Y-73191633D01*
X98015880Y-73232263D01*
X98013801Y-73288821D01*
X98013282Y-73333627D01*
X98009378Y-73366350D01*
X97998920Y-73375233D01*
X97978758Y-73367328D01*
X97950077Y-73358810D01*
X97894129Y-73351418D01*
X97827443Y-73348574D01*
X97753196Y-73351912D01*
X97697667Y-73364546D01*
X97650043Y-73389768D01*
X97641144Y-73396017D01*
X97575116Y-73458304D01*
X97522460Y-73534450D01*
X97493155Y-73610420D01*
X97482408Y-73663920D01*
X97459578Y-73597976D01*
X97458015Y-73593377D01*
X97445943Y-73529998D01*
X97457198Y-73465396D01*
X97467497Y-73425610D01*
X97465747Y-73396565D01*
X97446795Y-73376199D01*
X97443728Y-73373789D01*
X97429821Y-73354720D01*
X97421332Y-73321408D01*
X97417094Y-73266539D01*
X97415941Y-73182801D01*
X97417037Y-73126540D01*
X97440208Y-72931132D01*
X97493692Y-72755179D01*
X97577766Y-72597954D01*
X97692708Y-72458728D01*
X97816285Y-72357654D01*
X97969924Y-72274143D01*
X98143421Y-72215122D01*
X98332317Y-72181710D01*
X98532157Y-72175028D01*
X98738480Y-72196194D01*
G37*
%TD.AperFunction*%
%TD*%
D11*
%TO.P,R2,1*%
%TO.N,+5V*%
X120600000Y-61025000D03*
D12*
%TO.P,R2,2*%
%TO.N,Net-(U1-A14)*%
X110440000Y-61025000D03*
%TD*%
D11*
%TO.P,C2,1*%
%TO.N,+5V*%
X86525000Y-61000000D03*
%TO.P,C2,2*%
%TO.N,GND*%
X89025000Y-61000000D03*
%TD*%
D13*
%TO.P,U1,1,A15*%
%TO.N,Net-(U1-A15)*%
X120230000Y-65300000D03*
D12*
%TO.P,U1,2,A12*%
%TO.N,A12*%
X117690000Y-65300000D03*
%TO.P,U1,3,A7*%
%TO.N,A7*%
X115150000Y-65300000D03*
%TO.P,U1,4,A6*%
%TO.N,A6*%
X112610000Y-65300000D03*
%TO.P,U1,5,A5*%
%TO.N,A5*%
X110070000Y-65300000D03*
%TO.P,U1,6,A4*%
%TO.N,A4*%
X107530000Y-65300000D03*
%TO.P,U1,7,A3*%
%TO.N,A3*%
X104990000Y-65300000D03*
%TO.P,U1,8,A2*%
%TO.N,A2*%
X102450000Y-65300000D03*
%TO.P,U1,9,A1*%
%TO.N,A1*%
X99910000Y-65300000D03*
%TO.P,U1,10,A0*%
%TO.N,A0*%
X97370000Y-65300000D03*
%TO.P,U1,11,D0*%
%TO.N,D0*%
X94830000Y-65300000D03*
%TO.P,U1,12,D1*%
%TO.N,D1*%
X92290000Y-65300000D03*
%TO.P,U1,13,D2*%
%TO.N,D2*%
X89750000Y-65300000D03*
%TO.P,U1,14,GND*%
%TO.N,GND*%
X87210000Y-65300000D03*
%TO.P,U1,15,D3*%
%TO.N,D3*%
X87210000Y-80540000D03*
%TO.P,U1,16,D4*%
%TO.N,D4*%
X89750000Y-80540000D03*
%TO.P,U1,17,D5*%
%TO.N,D5*%
X92290000Y-80540000D03*
%TO.P,U1,18,D6*%
%TO.N,D6*%
X94830000Y-80540000D03*
%TO.P,U1,19,D7*%
%TO.N,D7*%
X97370000Y-80540000D03*
%TO.P,U1,20,~{CE}*%
%TO.N,Net-(U1-~{CE})*%
X99910000Y-80540000D03*
%TO.P,U1,21,A10*%
%TO.N,A10*%
X102450000Y-80540000D03*
%TO.P,U1,22,~{OE/Vpp}*%
%TO.N,Net-(J1-~{MREQ})*%
X104990000Y-80540000D03*
%TO.P,U1,23,A11*%
%TO.N,A11*%
X107530000Y-80540000D03*
%TO.P,U1,24,A9*%
%TO.N,A9*%
X110070000Y-80540000D03*
%TO.P,U1,25,A8*%
%TO.N,A8*%
X112610000Y-80540000D03*
%TO.P,U1,26,A13*%
%TO.N,A13*%
X115150000Y-80540000D03*
%TO.P,U1,27,A14*%
%TO.N,Net-(U1-A14)*%
X117690000Y-80540000D03*
%TO.P,U1,28,VCC*%
%TO.N,+5V*%
X120230000Y-80540000D03*
%TD*%
D11*
%TO.P,C1,1*%
%TO.N,+5V*%
X87000000Y-51875000D03*
%TO.P,C1,2*%
%TO.N,GND*%
X87000000Y-54375000D03*
%TD*%
D13*
%TO.P,SW1,1*%
%TO.N,GND*%
X116735000Y-56750000D03*
D12*
%TO.P,SW1,2*%
X119275000Y-56750000D03*
%TO.P,SW1,3*%
%TO.N,Net-(U1-A15)*%
X119275000Y-49130000D03*
%TO.P,SW1,4*%
%TO.N,Net-(U1-A14)*%
X116735000Y-49130000D03*
%TD*%
D11*
%TO.P,R1,1*%
%TO.N,+5V*%
X106830000Y-61000000D03*
D12*
%TO.P,R1,2*%
%TO.N,Net-(U1-A15)*%
X96670000Y-61000000D03*
%TD*%
D13*
%TO.P,U2,1*%
%TO.N,Net-(J1-A15)*%
X90610000Y-56770000D03*
D12*
%TO.P,U2,2*%
%TO.N,Net-(J1-A14)*%
X93150000Y-56770000D03*
%TO.P,U2,3*%
%TO.N,Net-(U2-Pad3)*%
X95690000Y-56770000D03*
%TO.P,U2,4*%
X98230000Y-56770000D03*
%TO.P,U2,5*%
%TO.N,Net-(J1-~{MREQ})*%
X100770000Y-56770000D03*
%TO.P,U2,6*%
%TO.N,Net-(U1-~{CE})*%
X103310000Y-56770000D03*
%TO.P,U2,7,GND*%
%TO.N,GND*%
X105850000Y-56770000D03*
%TO.P,U2,8*%
%TO.N,unconnected-(U2-Pad8)*%
X105850000Y-49150000D03*
%TO.P,U2,9*%
%TO.N,GND*%
X103310000Y-49150000D03*
%TO.P,U2,10*%
X100770000Y-49150000D03*
%TO.P,U2,11*%
%TO.N,unconnected-(U2-Pad11)*%
X98230000Y-49150000D03*
%TO.P,U2,12*%
%TO.N,GND*%
X95690000Y-49150000D03*
%TO.P,U2,13*%
X93150000Y-49150000D03*
%TO.P,U2,14,VCC*%
%TO.N,+5V*%
X90610000Y-49150000D03*
%TD*%
D14*
%TO.P,J1,1,~{ROMCS}*%
%TO.N,+5V*%
X121310000Y-92275000D03*
%TO.P,J1,3,A12*%
%TO.N,A12*%
X118770000Y-92275000D03*
%TO.P,J1,5,A7*%
%TO.N,A7*%
X116230000Y-92275000D03*
%TO.P,J1,7,A6*%
%TO.N,A6*%
X113690000Y-92275000D03*
%TO.P,J1,9,A5*%
%TO.N,A5*%
X108610000Y-92275000D03*
%TO.P,J1,11,A4*%
%TO.N,A4*%
X106070000Y-92275000D03*
%TO.P,J1,13,A3*%
%TO.N,A3*%
X103530000Y-92275000D03*
%TO.P,J1,15,A2*%
%TO.N,A2*%
X100990000Y-92275000D03*
%TO.P,J1,17,A1*%
%TO.N,A1*%
X98450000Y-92275000D03*
%TO.P,J1,19,A0*%
%TO.N,A0*%
X95910000Y-92275000D03*
%TO.P,J1,21,D0*%
%TO.N,D0*%
X93370000Y-92275000D03*
%TO.P,J1,23,D1*%
%TO.N,D1*%
X90830000Y-92275000D03*
%TO.P,J1,25,D2*%
%TO.N,D2*%
X88290000Y-92275000D03*
%TO.P,J1,27,GND*%
%TO.N,GND*%
X85750000Y-92275000D03*
%TD*%
D15*
%TO.N,A2*%
X101786900Y-88269000D03*
%TO.N,A1*%
X99720000Y-91720500D03*
%TO.N,A0*%
X97180000Y-91720500D03*
%TO.N,A5*%
X109900700Y-92148200D03*
%TO.N,A4*%
X104800000Y-91720500D03*
%TO.N,A3*%
X104800000Y-89554700D03*
%TD*%
D16*
%TO.N,+5V*%
X121310000Y-82721700D02*
X120230000Y-81641700D01*
X120230000Y-80540000D02*
X120230000Y-81641700D01*
X121310000Y-92275000D02*
X121310000Y-82721700D01*
%TO.N,D0*%
X94830000Y-65300000D02*
X94830000Y-66401700D01*
X94830000Y-66401700D02*
X93728300Y-67503400D01*
X93728300Y-91916700D02*
X93370000Y-92275000D01*
X93728300Y-67503400D02*
X93728300Y-91916700D01*
%TO.N,A6*%
X113785000Y-92180000D02*
X113690000Y-92275000D01*
X112610000Y-66401700D02*
X113785000Y-67576700D01*
X113785000Y-67576700D02*
X113785000Y-92180000D01*
X112610000Y-65300000D02*
X112610000Y-66401700D01*
%TO.N,A2*%
X100990000Y-89065900D02*
X100990000Y-92275000D01*
X101786900Y-88269000D02*
X100990000Y-89065900D01*
%TO.N,A7*%
X116264400Y-67516100D02*
X116264400Y-92240600D01*
X116264400Y-92240600D02*
X116230000Y-92275000D01*
X115150000Y-66401700D02*
X116264400Y-67516100D01*
X115150000Y-65300000D02*
X115150000Y-66401700D01*
%TO.N,A1*%
X99720000Y-91720500D02*
X99004500Y-91720500D01*
X99004500Y-91720500D02*
X98450000Y-92275000D01*
%TO.N,D2*%
X88648300Y-91916700D02*
X88290000Y-92275000D01*
X89750000Y-65300000D02*
X89750000Y-66401700D01*
X88648300Y-67503400D02*
X88648300Y-91916700D01*
X89750000Y-66401700D02*
X88648300Y-67503400D01*
%TO.N,A0*%
X97180000Y-91720500D02*
X96464500Y-91720500D01*
X96464500Y-91720500D02*
X95910000Y-92275000D01*
%TO.N,A5*%
X109900700Y-92148200D02*
X108736800Y-92148200D01*
X108736800Y-92148200D02*
X108610000Y-92275000D01*
%TO.N,A12*%
X117690000Y-66401700D02*
X118837000Y-67548700D01*
X117690000Y-65300000D02*
X117690000Y-66401700D01*
X118837000Y-67548700D02*
X118837000Y-92208000D01*
X118837000Y-92208000D02*
X118770000Y-92275000D01*
%TO.N,D1*%
X92290000Y-65300000D02*
X92290000Y-66401700D01*
X91188300Y-67503400D02*
X91188300Y-91916700D01*
X92290000Y-66401700D02*
X91188300Y-67503400D01*
X91188300Y-91916700D02*
X90830000Y-92275000D01*
%TO.N,A4*%
X105354500Y-92275000D02*
X104800000Y-91720500D01*
X106070000Y-92275000D02*
X105354500Y-92275000D01*
%TO.N,A3*%
X104800000Y-89554700D02*
X103530000Y-90824700D01*
X103530000Y-90824700D02*
X103530000Y-92275000D01*
%TO.N,GND*%
X85750000Y-85606800D02*
X85750000Y-92275000D01*
%TD*%
%TA.AperFunction,Conductor*%
%TO.N,GND*%
G36*
X118954920Y-56504394D02*
G01*
X118902259Y-56595606D01*
X118875000Y-56697339D01*
X118875000Y-56802661D01*
X118902259Y-56904394D01*
X118954920Y-56995606D01*
X118959314Y-57000000D01*
X117050686Y-57000000D01*
X117055080Y-56995606D01*
X117107741Y-56904394D01*
X117135000Y-56802661D01*
X117135000Y-56697339D01*
X117107741Y-56595606D01*
X117055080Y-56504394D01*
X117050686Y-56500000D01*
X118959314Y-56500000D01*
X118954920Y-56504394D01*
G37*
%TD.AperFunction*%
%TA.AperFunction,Conductor*%
G36*
X95369920Y-48904394D02*
G01*
X95317259Y-48995606D01*
X95290000Y-49097339D01*
X95290000Y-49202661D01*
X95317259Y-49304394D01*
X95369920Y-49395606D01*
X95374314Y-49400000D01*
X93465686Y-49400000D01*
X93470080Y-49395606D01*
X93522741Y-49304394D01*
X93550000Y-49202661D01*
X93550000Y-49097339D01*
X93522741Y-48995606D01*
X93470080Y-48904394D01*
X93465686Y-48900000D01*
X95374314Y-48900000D01*
X95369920Y-48904394D01*
G37*
%TD.AperFunction*%
%TA.AperFunction,Conductor*%
G36*
X102989920Y-48904394D02*
G01*
X102937259Y-48995606D01*
X102910000Y-49097339D01*
X102910000Y-49202661D01*
X102937259Y-49304394D01*
X102989920Y-49395606D01*
X102994314Y-49400000D01*
X101085686Y-49400000D01*
X101090080Y-49395606D01*
X101142741Y-49304394D01*
X101170000Y-49202661D01*
X101170000Y-49097339D01*
X101142741Y-48995606D01*
X101090080Y-48904394D01*
X101085686Y-48900000D01*
X102994314Y-48900000D01*
X102989920Y-48904394D01*
G37*
%TD.AperFunction*%
%TA.AperFunction,Conductor*%
G36*
X122543162Y-46495185D02*
G01*
X122588917Y-46547989D01*
X122600122Y-46599374D01*
X122610220Y-56717339D01*
X122641141Y-87700612D01*
X122621523Y-87767671D01*
X122568765Y-87813479D01*
X122517061Y-87824736D01*
X122034420Y-87824425D01*
X121967393Y-87804697D01*
X121921672Y-87751864D01*
X121910500Y-87700425D01*
X121910500Y-82810760D01*
X121910501Y-82810747D01*
X121910501Y-82642644D01*
X121869576Y-82489914D01*
X121869573Y-82489909D01*
X121790524Y-82352990D01*
X121790518Y-82352982D01*
X121111042Y-81673506D01*
X121077557Y-81612183D01*
X121082541Y-81542491D01*
X121111040Y-81498145D01*
X121230047Y-81379139D01*
X121360568Y-81192734D01*
X121456739Y-80986496D01*
X121515635Y-80766692D01*
X121535468Y-80540000D01*
X121515635Y-80313308D01*
X121456739Y-80093504D01*
X121360568Y-79887266D01*
X121230047Y-79700861D01*
X121230045Y-79700858D01*
X121069141Y-79539954D01*
X120882734Y-79409432D01*
X120882732Y-79409431D01*
X120676497Y-79313261D01*
X120676488Y-79313258D01*
X120456697Y-79254366D01*
X120456693Y-79254365D01*
X120456692Y-79254365D01*
X120456691Y-79254364D01*
X120456686Y-79254364D01*
X120230002Y-79234532D01*
X120229998Y-79234532D01*
X120003313Y-79254364D01*
X120003302Y-79254366D01*
X119783511Y-79313258D01*
X119783504Y-79313260D01*
X119783504Y-79313261D01*
X119619406Y-79389782D01*
X119613905Y-79392347D01*
X119544828Y-79402839D01*
X119481043Y-79374319D01*
X119442804Y-79315843D01*
X119437500Y-79279965D01*
X119437500Y-67637759D01*
X119437501Y-67637746D01*
X119437501Y-67469645D01*
X119437501Y-67469643D01*
X119396577Y-67316915D01*
X119367639Y-67266795D01*
X119317520Y-67179984D01*
X119205716Y-67068180D01*
X119205715Y-67068179D01*
X119201385Y-67063849D01*
X119201374Y-67063839D01*
X118571042Y-66433507D01*
X118537557Y-66372184D01*
X118542541Y-66302492D01*
X118571042Y-66258145D01*
X118690046Y-66139140D01*
X118707272Y-66114539D01*
X118761848Y-66070913D01*
X118831346Y-66063718D01*
X118893701Y-66095239D01*
X118929116Y-66155468D01*
X118932138Y-66172406D01*
X118935908Y-66207483D01*
X118986202Y-66342328D01*
X118986206Y-66342335D01*
X119072452Y-66457544D01*
X119072455Y-66457547D01*
X119187664Y-66543793D01*
X119187671Y-66543797D01*
X119322517Y-66594091D01*
X119322516Y-66594091D01*
X119329444Y-66594835D01*
X119382127Y-66600500D01*
X121077872Y-66600499D01*
X121137483Y-66594091D01*
X121272331Y-66543796D01*
X121387546Y-66457546D01*
X121473796Y-66342331D01*
X121524091Y-66207483D01*
X121530500Y-66147873D01*
X121530499Y-64452128D01*
X121524091Y-64392517D01*
X121489567Y-64299954D01*
X121473797Y-64257671D01*
X121473793Y-64257664D01*
X121387547Y-64142455D01*
X121387544Y-64142452D01*
X121272335Y-64056206D01*
X121272328Y-64056202D01*
X121137482Y-64005908D01*
X121137483Y-64005908D01*
X121077883Y-63999501D01*
X121077881Y-63999500D01*
X121077873Y-63999500D01*
X121077864Y-63999500D01*
X119382129Y-63999500D01*
X119382123Y-63999501D01*
X119322516Y-64005908D01*
X119187671Y-64056202D01*
X119187664Y-64056206D01*
X119072455Y-64142452D01*
X119072452Y-64142455D01*
X118986206Y-64257664D01*
X118986202Y-64257671D01*
X118935908Y-64392516D01*
X118932137Y-64427596D01*
X118905398Y-64492146D01*
X118848006Y-64531994D01*
X118778180Y-64534487D01*
X118718092Y-64498834D01*
X118707273Y-64485462D01*
X118690045Y-64460858D01*
X118529141Y-64299954D01*
X118342734Y-64169432D01*
X118342732Y-64169431D01*
X118136497Y-64073261D01*
X118136488Y-64073258D01*
X117916697Y-64014366D01*
X117916693Y-64014365D01*
X117916692Y-64014365D01*
X117916691Y-64014364D01*
X117916686Y-64014364D01*
X117690002Y-63994532D01*
X117689998Y-63994532D01*
X117463313Y-64014364D01*
X117463302Y-64014366D01*
X117243511Y-64073258D01*
X117243502Y-64073261D01*
X117037267Y-64169431D01*
X117037265Y-64169432D01*
X116850858Y-64299954D01*
X116689954Y-64460858D01*
X116559432Y-64647265D01*
X116559431Y-64647267D01*
X116532382Y-64705275D01*
X116486209Y-64757714D01*
X116419016Y-64776866D01*
X116352135Y-64756650D01*
X116307618Y-64705275D01*
X116280686Y-64647520D01*
X116280568Y-64647266D01*
X116150047Y-64460861D01*
X116150045Y-64460858D01*
X115989141Y-64299954D01*
X115802734Y-64169432D01*
X115802732Y-64169431D01*
X115596497Y-64073261D01*
X115596488Y-64073258D01*
X115376697Y-64014366D01*
X115376693Y-64014365D01*
X115376692Y-64014365D01*
X115376691Y-64014364D01*
X115376686Y-64014364D01*
X115150002Y-63994532D01*
X115149998Y-63994532D01*
X114923313Y-64014364D01*
X114923302Y-64014366D01*
X114703511Y-64073258D01*
X114703502Y-64073261D01*
X114497267Y-64169431D01*
X114497265Y-64169432D01*
X114310858Y-64299954D01*
X114149954Y-64460858D01*
X114019432Y-64647265D01*
X114019431Y-64647267D01*
X113992382Y-64705275D01*
X113946209Y-64757714D01*
X113879016Y-64776866D01*
X113812135Y-64756650D01*
X113767618Y-64705275D01*
X113740686Y-64647520D01*
X113740568Y-64647266D01*
X113610047Y-64460861D01*
X113610045Y-64460858D01*
X113449141Y-64299954D01*
X113262734Y-64169432D01*
X113262732Y-64169431D01*
X113056497Y-64073261D01*
X113056488Y-64073258D01*
X112836697Y-64014366D01*
X112836693Y-64014365D01*
X112836692Y-64014365D01*
X112836691Y-64014364D01*
X112836686Y-64014364D01*
X112610002Y-63994532D01*
X112609998Y-63994532D01*
X112383313Y-64014364D01*
X112383302Y-64014366D01*
X112163511Y-64073258D01*
X112163502Y-64073261D01*
X111957267Y-64169431D01*
X111957265Y-64169432D01*
X111770858Y-64299954D01*
X111609954Y-64460858D01*
X111479432Y-64647265D01*
X111479431Y-64647267D01*
X111452382Y-64705275D01*
X111406209Y-64757714D01*
X111339016Y-64776866D01*
X111272135Y-64756650D01*
X111227618Y-64705275D01*
X111200686Y-64647520D01*
X111200568Y-64647266D01*
X111070047Y-64460861D01*
X111070045Y-64460858D01*
X110909141Y-64299954D01*
X110722734Y-64169432D01*
X110722732Y-64169431D01*
X110516497Y-64073261D01*
X110516488Y-64073258D01*
X110296697Y-64014366D01*
X110296693Y-64014365D01*
X110296692Y-64014365D01*
X110296691Y-64014364D01*
X110296686Y-64014364D01*
X110070002Y-63994532D01*
X110069998Y-63994532D01*
X109843313Y-64014364D01*
X109843302Y-64014366D01*
X109623511Y-64073258D01*
X109623502Y-64073261D01*
X109417267Y-64169431D01*
X109417265Y-64169432D01*
X109230858Y-64299954D01*
X109069954Y-64460858D01*
X108939432Y-64647265D01*
X108939431Y-64647267D01*
X108912382Y-64705275D01*
X108866209Y-64757714D01*
X108799016Y-64776866D01*
X108732135Y-64756650D01*
X108687618Y-64705275D01*
X108660686Y-64647520D01*
X108660568Y-64647266D01*
X108530047Y-64460861D01*
X108530045Y-64460858D01*
X108369141Y-64299954D01*
X108182734Y-64169432D01*
X108182732Y-64169431D01*
X107976497Y-64073261D01*
X107976488Y-64073258D01*
X107756697Y-64014366D01*
X107756693Y-64014365D01*
X107756692Y-64014365D01*
X107756691Y-64014364D01*
X107756686Y-64014364D01*
X107530002Y-63994532D01*
X107529998Y-63994532D01*
X107303313Y-64014364D01*
X107303302Y-64014366D01*
X107083511Y-64073258D01*
X107083502Y-64073261D01*
X106877267Y-64169431D01*
X106877265Y-64169432D01*
X106690858Y-64299954D01*
X106529954Y-64460858D01*
X106399432Y-64647265D01*
X106399431Y-64647267D01*
X106372382Y-64705275D01*
X106326209Y-64757714D01*
X106259016Y-64776866D01*
X106192135Y-64756650D01*
X106147618Y-64705275D01*
X106120686Y-64647520D01*
X106120568Y-64647266D01*
X105990047Y-64460861D01*
X105990045Y-64460858D01*
X105829141Y-64299954D01*
X105642734Y-64169432D01*
X105642732Y-64169431D01*
X105436497Y-64073261D01*
X105436488Y-64073258D01*
X105216697Y-64014366D01*
X105216693Y-64014365D01*
X105216692Y-64014365D01*
X105216691Y-64014364D01*
X105216686Y-64014364D01*
X104990002Y-63994532D01*
X104989998Y-63994532D01*
X104763313Y-64014364D01*
X104763302Y-64014366D01*
X104543511Y-64073258D01*
X104543502Y-64073261D01*
X104337267Y-64169431D01*
X104337265Y-64169432D01*
X104150858Y-64299954D01*
X103989954Y-64460858D01*
X103859432Y-64647265D01*
X103859431Y-64647267D01*
X103832382Y-64705275D01*
X103786209Y-64757714D01*
X103719016Y-64776866D01*
X103652135Y-64756650D01*
X103607618Y-64705275D01*
X103580686Y-64647520D01*
X103580568Y-64647266D01*
X103450047Y-64460861D01*
X103450045Y-64460858D01*
X103289141Y-64299954D01*
X103102734Y-64169432D01*
X103102732Y-64169431D01*
X102896497Y-64073261D01*
X102896488Y-64073258D01*
X102676697Y-64014366D01*
X102676693Y-64014365D01*
X102676692Y-64014365D01*
X102676691Y-64014364D01*
X102676686Y-64014364D01*
X102450002Y-63994532D01*
X102449998Y-63994532D01*
X102223313Y-64014364D01*
X102223302Y-64014366D01*
X102003511Y-64073258D01*
X102003502Y-64073261D01*
X101797267Y-64169431D01*
X101797265Y-64169432D01*
X101610858Y-64299954D01*
X101449954Y-64460858D01*
X101319432Y-64647265D01*
X101319431Y-64647267D01*
X101292382Y-64705275D01*
X101246209Y-64757714D01*
X101179016Y-64776866D01*
X101112135Y-64756650D01*
X101067618Y-64705275D01*
X101040686Y-64647520D01*
X101040568Y-64647266D01*
X100910047Y-64460861D01*
X100910045Y-64460858D01*
X100749141Y-64299954D01*
X100562734Y-64169432D01*
X100562732Y-64169431D01*
X100356497Y-64073261D01*
X100356488Y-64073258D01*
X100136697Y-64014366D01*
X100136693Y-64014365D01*
X100136692Y-64014365D01*
X100136691Y-64014364D01*
X100136686Y-64014364D01*
X99910002Y-63994532D01*
X99909998Y-63994532D01*
X99683313Y-64014364D01*
X99683302Y-64014366D01*
X99463511Y-64073258D01*
X99463502Y-64073261D01*
X99257267Y-64169431D01*
X99257265Y-64169432D01*
X99070858Y-64299954D01*
X98909954Y-64460858D01*
X98779432Y-64647265D01*
X98779431Y-64647267D01*
X98752382Y-64705275D01*
X98706209Y-64757714D01*
X98639016Y-64776866D01*
X98572135Y-64756650D01*
X98527618Y-64705275D01*
X98500686Y-64647520D01*
X98500568Y-64647266D01*
X98370047Y-64460861D01*
X98370045Y-64460858D01*
X98209141Y-64299954D01*
X98022734Y-64169432D01*
X98022732Y-64169431D01*
X97816497Y-64073261D01*
X97816488Y-64073258D01*
X97596697Y-64014366D01*
X97596693Y-64014365D01*
X97596692Y-64014365D01*
X97596691Y-64014364D01*
X97596686Y-64014364D01*
X97370002Y-63994532D01*
X97369998Y-63994532D01*
X97143313Y-64014364D01*
X97143302Y-64014366D01*
X96923511Y-64073258D01*
X96923502Y-64073261D01*
X96717267Y-64169431D01*
X96717265Y-64169432D01*
X96530858Y-64299954D01*
X96369954Y-64460858D01*
X96239432Y-64647265D01*
X96239431Y-64647267D01*
X96212382Y-64705275D01*
X96166209Y-64757714D01*
X96099016Y-64776866D01*
X96032135Y-64756650D01*
X95987618Y-64705275D01*
X95960686Y-64647520D01*
X95960568Y-64647266D01*
X95830047Y-64460861D01*
X95830045Y-64460858D01*
X95669141Y-64299954D01*
X95482734Y-64169432D01*
X95482732Y-64169431D01*
X95276497Y-64073261D01*
X95276488Y-64073258D01*
X95056697Y-64014366D01*
X95056693Y-64014365D01*
X95056692Y-64014365D01*
X95056691Y-64014364D01*
X95056686Y-64014364D01*
X94830002Y-63994532D01*
X94829998Y-63994532D01*
X94603313Y-64014364D01*
X94603302Y-64014366D01*
X94383511Y-64073258D01*
X94383502Y-64073261D01*
X94177267Y-64169431D01*
X94177265Y-64169432D01*
X93990858Y-64299954D01*
X93829954Y-64460858D01*
X93699432Y-64647265D01*
X93699431Y-64647267D01*
X93672382Y-64705275D01*
X93626209Y-64757714D01*
X93559016Y-64776866D01*
X93492135Y-64756650D01*
X93447618Y-64705275D01*
X93420686Y-64647520D01*
X93420568Y-64647266D01*
X93290047Y-64460861D01*
X93290045Y-64460858D01*
X93129141Y-64299954D01*
X92942734Y-64169432D01*
X92942732Y-64169431D01*
X92736497Y-64073261D01*
X92736488Y-64073258D01*
X92516697Y-64014366D01*
X92516693Y-64014365D01*
X92516692Y-64014365D01*
X92516691Y-64014364D01*
X92516686Y-64014364D01*
X92290002Y-63994532D01*
X92289998Y-63994532D01*
X92063313Y-64014364D01*
X92063302Y-64014366D01*
X91843511Y-64073258D01*
X91843502Y-64073261D01*
X91637267Y-64169431D01*
X91637265Y-64169432D01*
X91450858Y-64299954D01*
X91289954Y-64460858D01*
X91159432Y-64647265D01*
X91159431Y-64647267D01*
X91132382Y-64705275D01*
X91086209Y-64757714D01*
X91019016Y-64776866D01*
X90952135Y-64756650D01*
X90907618Y-64705275D01*
X90880686Y-64647520D01*
X90880568Y-64647266D01*
X90750047Y-64460861D01*
X90750045Y-64460858D01*
X90589141Y-64299954D01*
X90402734Y-64169432D01*
X90402732Y-64169431D01*
X90196497Y-64073261D01*
X90196488Y-64073258D01*
X89976697Y-64014366D01*
X89976693Y-64014365D01*
X89976692Y-64014365D01*
X89976691Y-64014364D01*
X89976686Y-64014364D01*
X89750002Y-63994532D01*
X89749998Y-63994532D01*
X89523313Y-64014364D01*
X89523302Y-64014366D01*
X89303511Y-64073258D01*
X89303502Y-64073261D01*
X89097267Y-64169431D01*
X89097265Y-64169432D01*
X88910858Y-64299954D01*
X88749954Y-64460858D01*
X88619433Y-64647264D01*
X88619432Y-64647266D01*
X88619315Y-64647518D01*
X88592106Y-64705867D01*
X88545933Y-64758306D01*
X88478739Y-64777457D01*
X88411858Y-64757241D01*
X88367342Y-64705865D01*
X88340135Y-64647520D01*
X88340134Y-64647518D01*
X88209657Y-64461179D01*
X88048820Y-64300342D01*
X87862482Y-64169865D01*
X87656328Y-64073734D01*
X87460000Y-64021127D01*
X87460000Y-64984314D01*
X87455606Y-64979920D01*
X87364394Y-64927259D01*
X87262661Y-64900000D01*
X87157339Y-64900000D01*
X87055606Y-64927259D01*
X86964394Y-64979920D01*
X86960000Y-64984314D01*
X86960000Y-64021127D01*
X86763671Y-64073734D01*
X86557517Y-64169865D01*
X86371179Y-64300342D01*
X86210342Y-64461179D01*
X86079865Y-64647517D01*
X85983734Y-64853673D01*
X85983730Y-64853682D01*
X85931127Y-65049999D01*
X85931128Y-65050000D01*
X86894314Y-65050000D01*
X86889920Y-65054394D01*
X86837259Y-65145606D01*
X86810000Y-65247339D01*
X86810000Y-65352661D01*
X86837259Y-65454394D01*
X86889920Y-65545606D01*
X86894314Y-65550000D01*
X85931128Y-65550000D01*
X85983730Y-65746317D01*
X85983734Y-65746326D01*
X86079865Y-65952482D01*
X86210342Y-66138820D01*
X86371179Y-66299657D01*
X86557517Y-66430134D01*
X86763673Y-66526265D01*
X86763682Y-66526269D01*
X86959999Y-66578872D01*
X86960000Y-66578871D01*
X86960000Y-65615686D01*
X86964394Y-65620080D01*
X87055606Y-65672741D01*
X87157339Y-65700000D01*
X87262661Y-65700000D01*
X87364394Y-65672741D01*
X87455606Y-65620080D01*
X87460000Y-65615686D01*
X87460000Y-66578872D01*
X87656317Y-66526269D01*
X87656326Y-66526265D01*
X87862482Y-66430134D01*
X88048820Y-66299657D01*
X88209657Y-66138820D01*
X88340132Y-65952484D01*
X88367341Y-65894134D01*
X88413513Y-65841695D01*
X88480707Y-65822542D01*
X88547588Y-65842757D01*
X88592106Y-65894133D01*
X88619431Y-65952732D01*
X88619432Y-65952734D01*
X88749954Y-66139141D01*
X88868957Y-66258144D01*
X88902442Y-66319467D01*
X88897458Y-66389159D01*
X88868957Y-66433506D01*
X88279586Y-67022878D01*
X88167781Y-67134682D01*
X88167775Y-67134690D01*
X88125461Y-67207982D01*
X88125461Y-67207983D01*
X88088723Y-67271614D01*
X88088723Y-67271615D01*
X88047799Y-67424343D01*
X88047799Y-67424345D01*
X88047799Y-67592446D01*
X88047800Y-67592459D01*
X88047800Y-79301506D01*
X88028115Y-79368545D01*
X87975311Y-79414300D01*
X87906153Y-79424244D01*
X87867963Y-79411026D01*
X87867640Y-79411720D01*
X87862735Y-79409432D01*
X87862734Y-79409432D01*
X87694632Y-79331044D01*
X87656497Y-79313261D01*
X87656488Y-79313258D01*
X87436697Y-79254366D01*
X87436693Y-79254365D01*
X87436692Y-79254365D01*
X87436691Y-79254364D01*
X87436686Y-79254364D01*
X87210002Y-79234532D01*
X87209998Y-79234532D01*
X86983313Y-79254364D01*
X86983302Y-79254366D01*
X86763511Y-79313258D01*
X86763502Y-79313261D01*
X86557267Y-79409431D01*
X86557265Y-79409432D01*
X86370858Y-79539954D01*
X86209954Y-79700858D01*
X86079432Y-79887265D01*
X86079431Y-79887267D01*
X85983261Y-80093502D01*
X85983258Y-80093511D01*
X85924366Y-80313302D01*
X85924364Y-80313313D01*
X85904532Y-80539998D01*
X85904532Y-80540001D01*
X85924364Y-80766686D01*
X85924366Y-80766697D01*
X85983258Y-80986488D01*
X85983261Y-80986497D01*
X86079431Y-81192732D01*
X86079432Y-81192734D01*
X86209954Y-81379141D01*
X86370858Y-81540045D01*
X86370861Y-81540047D01*
X86557266Y-81670568D01*
X86763504Y-81766739D01*
X86763509Y-81766740D01*
X86763511Y-81766741D01*
X86797798Y-81775928D01*
X86983308Y-81825635D01*
X87137339Y-81839111D01*
X87209998Y-81845468D01*
X87210000Y-81845468D01*
X87210002Y-81845468D01*
X87266673Y-81840509D01*
X87436692Y-81825635D01*
X87656496Y-81766739D01*
X87847916Y-81677478D01*
X87867641Y-81668280D01*
X87868233Y-81669550D01*
X87929685Y-81654634D01*
X87995714Y-81677478D01*
X88038912Y-81732393D01*
X88047800Y-81778494D01*
X88047800Y-87678447D01*
X88028115Y-87745486D01*
X87975311Y-87791241D01*
X87923720Y-87802447D01*
X84466038Y-87800218D01*
X84399011Y-87780490D01*
X84353290Y-87727657D01*
X84342118Y-87676345D01*
X84315496Y-61000001D01*
X85219532Y-61000001D01*
X85239364Y-61226686D01*
X85239366Y-61226697D01*
X85298258Y-61446488D01*
X85298261Y-61446497D01*
X85394431Y-61652732D01*
X85394432Y-61652734D01*
X85524954Y-61839141D01*
X85685858Y-62000045D01*
X85685861Y-62000047D01*
X85872266Y-62130568D01*
X86078504Y-62226739D01*
X86298308Y-62285635D01*
X86460230Y-62299801D01*
X86524998Y-62305468D01*
X86525000Y-62305468D01*
X86525002Y-62305468D01*
X86581673Y-62300509D01*
X86751692Y-62285635D01*
X86971496Y-62226739D01*
X87177734Y-62130568D01*
X87364139Y-62000047D01*
X87525047Y-61839139D01*
X87655568Y-61652734D01*
X87662893Y-61637024D01*
X87709064Y-61584586D01*
X87776257Y-61565433D01*
X87843138Y-61585648D01*
X87887657Y-61637024D01*
X87894864Y-61652480D01*
X87945974Y-61725472D01*
X88625000Y-61046446D01*
X88625000Y-61052661D01*
X88652259Y-61154394D01*
X88704920Y-61245606D01*
X88779394Y-61320080D01*
X88870606Y-61372741D01*
X88972339Y-61400000D01*
X88978553Y-61400000D01*
X88299526Y-62079025D01*
X88372513Y-62130132D01*
X88372521Y-62130136D01*
X88578668Y-62226264D01*
X88578682Y-62226269D01*
X88798389Y-62285139D01*
X88798400Y-62285141D01*
X89024998Y-62304966D01*
X89025002Y-62304966D01*
X89251599Y-62285141D01*
X89251610Y-62285139D01*
X89471317Y-62226269D01*
X89471331Y-62226264D01*
X89677478Y-62130136D01*
X89750471Y-62079024D01*
X89071447Y-61400000D01*
X89077661Y-61400000D01*
X89179394Y-61372741D01*
X89270606Y-61320080D01*
X89345080Y-61245606D01*
X89397741Y-61154394D01*
X89425000Y-61052661D01*
X89425000Y-61046447D01*
X90104024Y-61725471D01*
X90155136Y-61652478D01*
X90251264Y-61446331D01*
X90251269Y-61446317D01*
X90310139Y-61226610D01*
X90310141Y-61226599D01*
X90329966Y-61000002D01*
X90329966Y-61000001D01*
X95364532Y-61000001D01*
X95384364Y-61226686D01*
X95384366Y-61226697D01*
X95443258Y-61446488D01*
X95443261Y-61446497D01*
X95539431Y-61652732D01*
X95539432Y-61652734D01*
X95669954Y-61839141D01*
X95830858Y-62000045D01*
X95830861Y-62000047D01*
X96017266Y-62130568D01*
X96223504Y-62226739D01*
X96443308Y-62285635D01*
X96605230Y-62299801D01*
X96669998Y-62305468D01*
X96670000Y-62305468D01*
X96670002Y-62305468D01*
X96726673Y-62300509D01*
X96896692Y-62285635D01*
X97116496Y-62226739D01*
X97322734Y-62130568D01*
X97509139Y-62000047D01*
X97670047Y-61839139D01*
X97800568Y-61652734D01*
X97896739Y-61446496D01*
X97955635Y-61226692D01*
X97975468Y-61000001D01*
X105524532Y-61000001D01*
X105544364Y-61226686D01*
X105544366Y-61226697D01*
X105603258Y-61446488D01*
X105603261Y-61446497D01*
X105699431Y-61652732D01*
X105699432Y-61652734D01*
X105829954Y-61839141D01*
X105990858Y-62000045D01*
X105990861Y-62000047D01*
X106177266Y-62130568D01*
X106383504Y-62226739D01*
X106603308Y-62285635D01*
X106765230Y-62299801D01*
X106829998Y-62305468D01*
X106830000Y-62305468D01*
X106830002Y-62305468D01*
X106886673Y-62300509D01*
X107056692Y-62285635D01*
X107276496Y-62226739D01*
X107482734Y-62130568D01*
X107669139Y-62000047D01*
X107830047Y-61839139D01*
X107960568Y-61652734D01*
X108056739Y-61446496D01*
X108115635Y-61226692D01*
X108133281Y-61025001D01*
X109134532Y-61025001D01*
X109154364Y-61251686D01*
X109154366Y-61251697D01*
X109213258Y-61471488D01*
X109213261Y-61471497D01*
X109309431Y-61677732D01*
X109309432Y-61677734D01*
X109439954Y-61864141D01*
X109600858Y-62025045D01*
X109600861Y-62025047D01*
X109787266Y-62155568D01*
X109993504Y-62251739D01*
X110213308Y-62310635D01*
X110375230Y-62324801D01*
X110439998Y-62330468D01*
X110440000Y-62330468D01*
X110440002Y-62330468D01*
X110496673Y-62325509D01*
X110666692Y-62310635D01*
X110886496Y-62251739D01*
X111092734Y-62155568D01*
X111279139Y-62025047D01*
X111440047Y-61864139D01*
X111570568Y-61677734D01*
X111666739Y-61471496D01*
X111725635Y-61251692D01*
X111745468Y-61025001D01*
X119294532Y-61025001D01*
X119314364Y-61251686D01*
X119314366Y-61251697D01*
X119373258Y-61471488D01*
X119373261Y-61471497D01*
X119469431Y-61677732D01*
X119469432Y-61677734D01*
X119599954Y-61864141D01*
X119760858Y-62025045D01*
X119760861Y-62025047D01*
X119947266Y-62155568D01*
X120153504Y-62251739D01*
X120373308Y-62310635D01*
X120535230Y-62324801D01*
X120599998Y-62330468D01*
X120600000Y-62330468D01*
X120600002Y-62330468D01*
X120656673Y-62325509D01*
X120826692Y-62310635D01*
X121046496Y-62251739D01*
X121252734Y-62155568D01*
X121439139Y-62025047D01*
X121600047Y-61864139D01*
X121730568Y-61677734D01*
X121826739Y-61471496D01*
X121885635Y-61251692D01*
X121905468Y-61025000D01*
X121885635Y-60798308D01*
X121826739Y-60578504D01*
X121730568Y-60372266D01*
X121600047Y-60185861D01*
X121600045Y-60185858D01*
X121439141Y-60024954D01*
X121252734Y-59894432D01*
X121252732Y-59894431D01*
X121046497Y-59798261D01*
X121046488Y-59798258D01*
X120826697Y-59739366D01*
X120826693Y-59739365D01*
X120826692Y-59739365D01*
X120826691Y-59739364D01*
X120826686Y-59739364D01*
X120600002Y-59719532D01*
X120599998Y-59719532D01*
X120373313Y-59739364D01*
X120373302Y-59739366D01*
X120153511Y-59798258D01*
X120153502Y-59798261D01*
X119947267Y-59894431D01*
X119947265Y-59894432D01*
X119760858Y-60024954D01*
X119599954Y-60185858D01*
X119469432Y-60372265D01*
X119469431Y-60372267D01*
X119373261Y-60578502D01*
X119373258Y-60578511D01*
X119314366Y-60798302D01*
X119314364Y-60798313D01*
X119294532Y-61024998D01*
X119294532Y-61025001D01*
X111745468Y-61025001D01*
X111745468Y-61025000D01*
X111725635Y-60798308D01*
X111666739Y-60578504D01*
X111570568Y-60372266D01*
X111440047Y-60185861D01*
X111440045Y-60185858D01*
X111279141Y-60024954D01*
X111092734Y-59894432D01*
X111092732Y-59894431D01*
X110886497Y-59798261D01*
X110886488Y-59798258D01*
X110666697Y-59739366D01*
X110666693Y-59739365D01*
X110666692Y-59739365D01*
X110666691Y-59739364D01*
X110666686Y-59739364D01*
X110440002Y-59719532D01*
X110439998Y-59719532D01*
X110213313Y-59739364D01*
X110213302Y-59739366D01*
X109993511Y-59798258D01*
X109993502Y-59798261D01*
X109787267Y-59894431D01*
X109787265Y-59894432D01*
X109600858Y-60024954D01*
X109439954Y-60185858D01*
X109309432Y-60372265D01*
X109309431Y-60372267D01*
X109213261Y-60578502D01*
X109213258Y-60578511D01*
X109154366Y-60798302D01*
X109154364Y-60798313D01*
X109134532Y-61024998D01*
X109134532Y-61025001D01*
X108133281Y-61025001D01*
X108135468Y-61000000D01*
X108115635Y-60773308D01*
X108056739Y-60553504D01*
X107960568Y-60347266D01*
X107830047Y-60160861D01*
X107830045Y-60160858D01*
X107669141Y-59999954D01*
X107482734Y-59869432D01*
X107482732Y-59869431D01*
X107276497Y-59773261D01*
X107276488Y-59773258D01*
X107056697Y-59714366D01*
X107056693Y-59714365D01*
X107056692Y-59714365D01*
X107056691Y-59714364D01*
X107056686Y-59714364D01*
X106830002Y-59694532D01*
X106829998Y-59694532D01*
X106603313Y-59714364D01*
X106603302Y-59714366D01*
X106383511Y-59773258D01*
X106383502Y-59773261D01*
X106177267Y-59869431D01*
X106177265Y-59869432D01*
X105990858Y-59999954D01*
X105829954Y-60160858D01*
X105699432Y-60347265D01*
X105699431Y-60347267D01*
X105603261Y-60553502D01*
X105603258Y-60553511D01*
X105544366Y-60773302D01*
X105544364Y-60773313D01*
X105524532Y-60999998D01*
X105524532Y-61000001D01*
X97975468Y-61000001D01*
X97975468Y-61000000D01*
X97955635Y-60773308D01*
X97896739Y-60553504D01*
X97800568Y-60347266D01*
X97670047Y-60160861D01*
X97670045Y-60160858D01*
X97509141Y-59999954D01*
X97322734Y-59869432D01*
X97322732Y-59869431D01*
X97116497Y-59773261D01*
X97116488Y-59773258D01*
X96896697Y-59714366D01*
X96896693Y-59714365D01*
X96896692Y-59714365D01*
X96896691Y-59714364D01*
X96896686Y-59714364D01*
X96670002Y-59694532D01*
X96669998Y-59694532D01*
X96443313Y-59714364D01*
X96443302Y-59714366D01*
X96223511Y-59773258D01*
X96223502Y-59773261D01*
X96017267Y-59869431D01*
X96017265Y-59869432D01*
X95830858Y-59999954D01*
X95669954Y-60160858D01*
X95539432Y-60347265D01*
X95539431Y-60347267D01*
X95443261Y-60553502D01*
X95443258Y-60553511D01*
X95384366Y-60773302D01*
X95384364Y-60773313D01*
X95364532Y-60999998D01*
X95364532Y-61000001D01*
X90329966Y-61000001D01*
X90329966Y-60999997D01*
X90310141Y-60773400D01*
X90310139Y-60773389D01*
X90251269Y-60553682D01*
X90251264Y-60553668D01*
X90155136Y-60347521D01*
X90155132Y-60347513D01*
X90104025Y-60274526D01*
X89425000Y-60953551D01*
X89425000Y-60947339D01*
X89397741Y-60845606D01*
X89345080Y-60754394D01*
X89270606Y-60679920D01*
X89179394Y-60627259D01*
X89077661Y-60600000D01*
X89071448Y-60600000D01*
X89750472Y-59920974D01*
X89677478Y-59869863D01*
X89471331Y-59773735D01*
X89471317Y-59773730D01*
X89251610Y-59714860D01*
X89251599Y-59714858D01*
X89025002Y-59695034D01*
X89024998Y-59695034D01*
X88798400Y-59714858D01*
X88798389Y-59714860D01*
X88578682Y-59773730D01*
X88578673Y-59773734D01*
X88372516Y-59869866D01*
X88372512Y-59869868D01*
X88299526Y-59920973D01*
X88299526Y-59920974D01*
X88978553Y-60600000D01*
X88972339Y-60600000D01*
X88870606Y-60627259D01*
X88779394Y-60679920D01*
X88704920Y-60754394D01*
X88652259Y-60845606D01*
X88625000Y-60947339D01*
X88625000Y-60953552D01*
X87945974Y-60274526D01*
X87945973Y-60274526D01*
X87894868Y-60347512D01*
X87894867Y-60347514D01*
X87887656Y-60362979D01*
X87841482Y-60415417D01*
X87774288Y-60434567D01*
X87707407Y-60414350D01*
X87662893Y-60362976D01*
X87655568Y-60347266D01*
X87525047Y-60160861D01*
X87525045Y-60160858D01*
X87364141Y-59999954D01*
X87177734Y-59869432D01*
X87177732Y-59869431D01*
X86971497Y-59773261D01*
X86971488Y-59773258D01*
X86751697Y-59714366D01*
X86751693Y-59714365D01*
X86751692Y-59714365D01*
X86751691Y-59714364D01*
X86751686Y-59714364D01*
X86525002Y-59694532D01*
X86524998Y-59694532D01*
X86298313Y-59714364D01*
X86298302Y-59714366D01*
X86078511Y-59773258D01*
X86078502Y-59773261D01*
X85872267Y-59869431D01*
X85872265Y-59869432D01*
X85685858Y-59999954D01*
X85524954Y-60160858D01*
X85394432Y-60347265D01*
X85394431Y-60347267D01*
X85298261Y-60553502D01*
X85298258Y-60553511D01*
X85239366Y-60773302D01*
X85239364Y-60773313D01*
X85219532Y-60999998D01*
X85219532Y-61000001D01*
X84315496Y-61000001D01*
X84312121Y-57617870D01*
X89309500Y-57617870D01*
X89309501Y-57617876D01*
X89315908Y-57677483D01*
X89366202Y-57812328D01*
X89366206Y-57812335D01*
X89452452Y-57927544D01*
X89452455Y-57927547D01*
X89567664Y-58013793D01*
X89567671Y-58013797D01*
X89702517Y-58064091D01*
X89702516Y-58064091D01*
X89709444Y-58064835D01*
X89762127Y-58070500D01*
X91457872Y-58070499D01*
X91517483Y-58064091D01*
X91652331Y-58013796D01*
X91767546Y-57927546D01*
X91853796Y-57812331D01*
X91904091Y-57677483D01*
X91907862Y-57642401D01*
X91934599Y-57577855D01*
X91991990Y-57538006D01*
X92061816Y-57535511D01*
X92121905Y-57571163D01*
X92132726Y-57584536D01*
X92149956Y-57609143D01*
X92310858Y-57770045D01*
X92310861Y-57770047D01*
X92497266Y-57900568D01*
X92703504Y-57996739D01*
X92923308Y-58055635D01*
X93085230Y-58069801D01*
X93149998Y-58075468D01*
X93150000Y-58075468D01*
X93150002Y-58075468D01*
X93206807Y-58070498D01*
X93376692Y-58055635D01*
X93596496Y-57996739D01*
X93802734Y-57900568D01*
X93989139Y-57770047D01*
X94150047Y-57609139D01*
X94280568Y-57422734D01*
X94307618Y-57364724D01*
X94353790Y-57312285D01*
X94420983Y-57293133D01*
X94487865Y-57313348D01*
X94532382Y-57364725D01*
X94559429Y-57422728D01*
X94559432Y-57422734D01*
X94689954Y-57609141D01*
X94850858Y-57770045D01*
X94850861Y-57770047D01*
X95037266Y-57900568D01*
X95243504Y-57996739D01*
X95463308Y-58055635D01*
X95625230Y-58069801D01*
X95689998Y-58075468D01*
X95690000Y-58075468D01*
X95690002Y-58075468D01*
X95746807Y-58070498D01*
X95916692Y-58055635D01*
X96136496Y-57996739D01*
X96342734Y-57900568D01*
X96529139Y-57770047D01*
X96690047Y-57609139D01*
X96820568Y-57422734D01*
X96847618Y-57364724D01*
X96893790Y-57312285D01*
X96960983Y-57293133D01*
X97027865Y-57313348D01*
X97072382Y-57364725D01*
X97099429Y-57422728D01*
X97099432Y-57422734D01*
X97229954Y-57609141D01*
X97390858Y-57770045D01*
X97390861Y-57770047D01*
X97577266Y-57900568D01*
X97783504Y-57996739D01*
X98003308Y-58055635D01*
X98165230Y-58069801D01*
X98229998Y-58075468D01*
X98230000Y-58075468D01*
X98230002Y-58075468D01*
X98286807Y-58070498D01*
X98456692Y-58055635D01*
X98676496Y-57996739D01*
X98882734Y-57900568D01*
X99069139Y-57770047D01*
X99230047Y-57609139D01*
X99360568Y-57422734D01*
X99387618Y-57364724D01*
X99433790Y-57312285D01*
X99500983Y-57293133D01*
X99567865Y-57313348D01*
X99612382Y-57364725D01*
X99639429Y-57422728D01*
X99639432Y-57422734D01*
X99769954Y-57609141D01*
X99930858Y-57770045D01*
X99930861Y-57770047D01*
X100117266Y-57900568D01*
X100323504Y-57996739D01*
X100543308Y-58055635D01*
X100705230Y-58069801D01*
X100769998Y-58075468D01*
X100770000Y-58075468D01*
X100770002Y-58075468D01*
X100826807Y-58070498D01*
X100996692Y-58055635D01*
X101216496Y-57996739D01*
X101422734Y-57900568D01*
X101609139Y-57770047D01*
X101770047Y-57609139D01*
X101900568Y-57422734D01*
X101927618Y-57364724D01*
X101973790Y-57312285D01*
X102040983Y-57293133D01*
X102107865Y-57313348D01*
X102152382Y-57364725D01*
X102179429Y-57422728D01*
X102179432Y-57422734D01*
X102309954Y-57609141D01*
X102470858Y-57770045D01*
X102470861Y-57770047D01*
X102657266Y-57900568D01*
X102863504Y-57996739D01*
X103083308Y-58055635D01*
X103245230Y-58069801D01*
X103309998Y-58075468D01*
X103310000Y-58075468D01*
X103310002Y-58075468D01*
X103366807Y-58070498D01*
X103536692Y-58055635D01*
X103756496Y-57996739D01*
X103962734Y-57900568D01*
X104149139Y-57770047D01*
X104310047Y-57609139D01*
X104440568Y-57422734D01*
X104467895Y-57364129D01*
X104514064Y-57311695D01*
X104581257Y-57292542D01*
X104648139Y-57312757D01*
X104692657Y-57364133D01*
X104719865Y-57422482D01*
X104850342Y-57608820D01*
X105011179Y-57769657D01*
X105197517Y-57900134D01*
X105403673Y-57996265D01*
X105403682Y-57996269D01*
X105599999Y-58048872D01*
X105600000Y-58048871D01*
X105600000Y-57085686D01*
X105604394Y-57090080D01*
X105695606Y-57142741D01*
X105797339Y-57170000D01*
X105902661Y-57170000D01*
X106004394Y-57142741D01*
X106095606Y-57090080D01*
X106100000Y-57085686D01*
X106100000Y-58048872D01*
X106296317Y-57996269D01*
X106296326Y-57996265D01*
X106502482Y-57900134D01*
X106688820Y-57769657D01*
X106849657Y-57608820D01*
X106857343Y-57597844D01*
X115435000Y-57597844D01*
X115441401Y-57657372D01*
X115441403Y-57657379D01*
X115491645Y-57792086D01*
X115491649Y-57792093D01*
X115577809Y-57907187D01*
X115577812Y-57907190D01*
X115692906Y-57993350D01*
X115692913Y-57993354D01*
X115827620Y-58043596D01*
X115827627Y-58043598D01*
X115887155Y-58049999D01*
X115887172Y-58050000D01*
X116485000Y-58050000D01*
X116485000Y-57065686D01*
X116489394Y-57070080D01*
X116580606Y-57122741D01*
X116682339Y-57150000D01*
X116787661Y-57150000D01*
X116889394Y-57122741D01*
X116980606Y-57070080D01*
X116985000Y-57065686D01*
X116985000Y-58050000D01*
X117582828Y-58050000D01*
X117582844Y-58049999D01*
X117642372Y-58043598D01*
X117642379Y-58043596D01*
X117777086Y-57993354D01*
X117777093Y-57993350D01*
X117892187Y-57907190D01*
X117892190Y-57907187D01*
X117978350Y-57792093D01*
X117978354Y-57792086D01*
X118028596Y-57657379D01*
X118032505Y-57621024D01*
X118059243Y-57556473D01*
X118116635Y-57516624D01*
X118186460Y-57514129D01*
X118246549Y-57549781D01*
X118257369Y-57563153D01*
X118275340Y-57588818D01*
X118436179Y-57749657D01*
X118622517Y-57880134D01*
X118828673Y-57976265D01*
X118828682Y-57976269D01*
X119024999Y-58028872D01*
X119025000Y-58028871D01*
X119025000Y-57065686D01*
X119029394Y-57070080D01*
X119120606Y-57122741D01*
X119222339Y-57150000D01*
X119327661Y-57150000D01*
X119429394Y-57122741D01*
X119520606Y-57070080D01*
X119525000Y-57065686D01*
X119525000Y-58028872D01*
X119721317Y-57976269D01*
X119721326Y-57976265D01*
X119927482Y-57880134D01*
X120113820Y-57749657D01*
X120274657Y-57588820D01*
X120405134Y-57402482D01*
X120501265Y-57196326D01*
X120501269Y-57196317D01*
X120553872Y-57000000D01*
X119590686Y-57000000D01*
X119595080Y-56995606D01*
X119647741Y-56904394D01*
X119675000Y-56802661D01*
X119675000Y-56697339D01*
X119647741Y-56595606D01*
X119595080Y-56504394D01*
X119590686Y-56500000D01*
X120553872Y-56500000D01*
X120553872Y-56499999D01*
X120501269Y-56303682D01*
X120501265Y-56303673D01*
X120405134Y-56097517D01*
X120274657Y-55911179D01*
X120113820Y-55750342D01*
X119927482Y-55619865D01*
X119721328Y-55523734D01*
X119525000Y-55471127D01*
X119525000Y-56434314D01*
X119520606Y-56429920D01*
X119429394Y-56377259D01*
X119327661Y-56350000D01*
X119222339Y-56350000D01*
X119120606Y-56377259D01*
X119029394Y-56429920D01*
X119025000Y-56434314D01*
X119025000Y-55471127D01*
X118828671Y-55523734D01*
X118622517Y-55619865D01*
X118436179Y-55750342D01*
X118275339Y-55911182D01*
X118257368Y-55936847D01*
X118202790Y-55980471D01*
X118133291Y-55987662D01*
X118070937Y-55956138D01*
X118035525Y-55895907D01*
X118032505Y-55878975D01*
X118028596Y-55842620D01*
X117978354Y-55707913D01*
X117978350Y-55707906D01*
X117892190Y-55592812D01*
X117892187Y-55592809D01*
X117777093Y-55506649D01*
X117777086Y-55506645D01*
X117642379Y-55456403D01*
X117642372Y-55456401D01*
X117582844Y-55450000D01*
X116985000Y-55450000D01*
X116985000Y-56434314D01*
X116980606Y-56429920D01*
X116889394Y-56377259D01*
X116787661Y-56350000D01*
X116682339Y-56350000D01*
X116580606Y-56377259D01*
X116489394Y-56429920D01*
X116485000Y-56434314D01*
X116485000Y-55450000D01*
X115887155Y-55450000D01*
X115827627Y-55456401D01*
X115827620Y-55456403D01*
X115692913Y-55506645D01*
X115692906Y-55506649D01*
X115577812Y-55592809D01*
X115577809Y-55592812D01*
X115491649Y-55707906D01*
X115491645Y-55707913D01*
X115441403Y-55842620D01*
X115441401Y-55842627D01*
X115435000Y-55902155D01*
X115435000Y-56500000D01*
X116419314Y-56500000D01*
X116414920Y-56504394D01*
X116362259Y-56595606D01*
X116335000Y-56697339D01*
X116335000Y-56802661D01*
X116362259Y-56904394D01*
X116414920Y-56995606D01*
X116419314Y-57000000D01*
X115435000Y-57000000D01*
X115435000Y-57597844D01*
X106857343Y-57597844D01*
X106980134Y-57422482D01*
X107076265Y-57216326D01*
X107076269Y-57216317D01*
X107128872Y-57020000D01*
X106165686Y-57020000D01*
X106170080Y-57015606D01*
X106222741Y-56924394D01*
X106250000Y-56822661D01*
X106250000Y-56717339D01*
X106222741Y-56615606D01*
X106170080Y-56524394D01*
X106165686Y-56520000D01*
X107128872Y-56520000D01*
X107128872Y-56519999D01*
X107076269Y-56323682D01*
X107076265Y-56323673D01*
X106980134Y-56117517D01*
X106849657Y-55931179D01*
X106688820Y-55770342D01*
X106502482Y-55639865D01*
X106296328Y-55543734D01*
X106100000Y-55491127D01*
X106100000Y-56454314D01*
X106095606Y-56449920D01*
X106004394Y-56397259D01*
X105902661Y-56370000D01*
X105797339Y-56370000D01*
X105695606Y-56397259D01*
X105604394Y-56449920D01*
X105600000Y-56454314D01*
X105600000Y-55491127D01*
X105403671Y-55543734D01*
X105197517Y-55639865D01*
X105011179Y-55770342D01*
X104850342Y-55931179D01*
X104719867Y-56117515D01*
X104692657Y-56175867D01*
X104646484Y-56228306D01*
X104579290Y-56247457D01*
X104512409Y-56227241D01*
X104467893Y-56175865D01*
X104440570Y-56117271D01*
X104440567Y-56117265D01*
X104426739Y-56097517D01*
X104310047Y-55930861D01*
X104310045Y-55930858D01*
X104149141Y-55769954D01*
X103962734Y-55639432D01*
X103962732Y-55639431D01*
X103756497Y-55543261D01*
X103756488Y-55543258D01*
X103536697Y-55484366D01*
X103536693Y-55484365D01*
X103536692Y-55484365D01*
X103536691Y-55484364D01*
X103536686Y-55484364D01*
X103310002Y-55464532D01*
X103309998Y-55464532D01*
X103083313Y-55484364D01*
X103083302Y-55484366D01*
X102863511Y-55543258D01*
X102863502Y-55543261D01*
X102657267Y-55639431D01*
X102657265Y-55639432D01*
X102470858Y-55769954D01*
X102309954Y-55930858D01*
X102179432Y-56117265D01*
X102179431Y-56117267D01*
X102152382Y-56175275D01*
X102106209Y-56227714D01*
X102039016Y-56246866D01*
X101972135Y-56226650D01*
X101927618Y-56175275D01*
X101900568Y-56117267D01*
X101900567Y-56117265D01*
X101886739Y-56097517D01*
X101770047Y-55930861D01*
X101770045Y-55930858D01*
X101609141Y-55769954D01*
X101422734Y-55639432D01*
X101422732Y-55639431D01*
X101216497Y-55543261D01*
X101216488Y-55543258D01*
X100996697Y-55484366D01*
X100996693Y-55484365D01*
X100996692Y-55484365D01*
X100996691Y-55484364D01*
X100996686Y-55484364D01*
X100770002Y-55464532D01*
X100769998Y-55464532D01*
X100543313Y-55484364D01*
X100543302Y-55484366D01*
X100323511Y-55543258D01*
X100323502Y-55543261D01*
X100117267Y-55639431D01*
X100117265Y-55639432D01*
X99930858Y-55769954D01*
X99769954Y-55930858D01*
X99639432Y-56117265D01*
X99639431Y-56117267D01*
X99612382Y-56175275D01*
X99566209Y-56227714D01*
X99499016Y-56246866D01*
X99432135Y-56226650D01*
X99387618Y-56175275D01*
X99360568Y-56117267D01*
X99360567Y-56117265D01*
X99346739Y-56097517D01*
X99230047Y-55930861D01*
X99230045Y-55930858D01*
X99069141Y-55769954D01*
X98882734Y-55639432D01*
X98882732Y-55639431D01*
X98676497Y-55543261D01*
X98676488Y-55543258D01*
X98456697Y-55484366D01*
X98456693Y-55484365D01*
X98456692Y-55484365D01*
X98456691Y-55484364D01*
X98456686Y-55484364D01*
X98230002Y-55464532D01*
X98229998Y-55464532D01*
X98003313Y-55484364D01*
X98003302Y-55484366D01*
X97783511Y-55543258D01*
X97783502Y-55543261D01*
X97577267Y-55639431D01*
X97577265Y-55639432D01*
X97390858Y-55769954D01*
X97229954Y-55930858D01*
X97099432Y-56117265D01*
X97099431Y-56117267D01*
X97072382Y-56175275D01*
X97026209Y-56227714D01*
X96959016Y-56246866D01*
X96892135Y-56226650D01*
X96847618Y-56175275D01*
X96820568Y-56117267D01*
X96820567Y-56117265D01*
X96806739Y-56097517D01*
X96690047Y-55930861D01*
X96690045Y-55930858D01*
X96529141Y-55769954D01*
X96342734Y-55639432D01*
X96342732Y-55639431D01*
X96136497Y-55543261D01*
X96136488Y-55543258D01*
X95916697Y-55484366D01*
X95916693Y-55484365D01*
X95916692Y-55484365D01*
X95916691Y-55484364D01*
X95916686Y-55484364D01*
X95690002Y-55464532D01*
X95689998Y-55464532D01*
X95463313Y-55484364D01*
X95463302Y-55484366D01*
X95243511Y-55543258D01*
X95243502Y-55543261D01*
X95037267Y-55639431D01*
X95037265Y-55639432D01*
X94850858Y-55769954D01*
X94689954Y-55930858D01*
X94559432Y-56117265D01*
X94559431Y-56117267D01*
X94532382Y-56175275D01*
X94486209Y-56227714D01*
X94419016Y-56246866D01*
X94352135Y-56226650D01*
X94307618Y-56175275D01*
X94280568Y-56117267D01*
X94280567Y-56117265D01*
X94266739Y-56097517D01*
X94150047Y-55930861D01*
X94150045Y-55930858D01*
X93989141Y-55769954D01*
X93802734Y-55639432D01*
X93802732Y-55639431D01*
X93596497Y-55543261D01*
X93596488Y-55543258D01*
X93376697Y-55484366D01*
X93376693Y-55484365D01*
X93376692Y-55484365D01*
X93376691Y-55484364D01*
X93376686Y-55484364D01*
X93150002Y-55464532D01*
X93149998Y-55464532D01*
X92923313Y-55484364D01*
X92923302Y-55484366D01*
X92703511Y-55543258D01*
X92703502Y-55543261D01*
X92497267Y-55639431D01*
X92497265Y-55639432D01*
X92310858Y-55769954D01*
X92149954Y-55930858D01*
X92132725Y-55955464D01*
X92078147Y-55999088D01*
X92008648Y-56006280D01*
X91946294Y-55974757D01*
X91910882Y-55914526D01*
X91907861Y-55897591D01*
X91904091Y-55862516D01*
X91853797Y-55727671D01*
X91853793Y-55727664D01*
X91767547Y-55612455D01*
X91767544Y-55612452D01*
X91652335Y-55526206D01*
X91652328Y-55526202D01*
X91517482Y-55475908D01*
X91517483Y-55475908D01*
X91457883Y-55469501D01*
X91457881Y-55469500D01*
X91457873Y-55469500D01*
X91457864Y-55469500D01*
X89762129Y-55469500D01*
X89762123Y-55469501D01*
X89702516Y-55475908D01*
X89567671Y-55526202D01*
X89567664Y-55526206D01*
X89452455Y-55612452D01*
X89452452Y-55612455D01*
X89366206Y-55727664D01*
X89366202Y-55727671D01*
X89315908Y-55862517D01*
X89309501Y-55922116D01*
X89309500Y-55922135D01*
X89309500Y-57617870D01*
X84312121Y-57617870D01*
X84306389Y-51875001D01*
X85694532Y-51875001D01*
X85714364Y-52101686D01*
X85714366Y-52101697D01*
X85773258Y-52321488D01*
X85773261Y-52321497D01*
X85869431Y-52527732D01*
X85869432Y-52527734D01*
X85999954Y-52714141D01*
X86160858Y-52875045D01*
X86160861Y-52875047D01*
X86347266Y-53005568D01*
X86362975Y-53012893D01*
X86415414Y-53059064D01*
X86434567Y-53126257D01*
X86414352Y-53193138D01*
X86362979Y-53237656D01*
X86347514Y-53244867D01*
X86347512Y-53244868D01*
X86274526Y-53295973D01*
X86274526Y-53295974D01*
X86953553Y-53975000D01*
X86947339Y-53975000D01*
X86845606Y-54002259D01*
X86754394Y-54054920D01*
X86679920Y-54129394D01*
X86627259Y-54220606D01*
X86600000Y-54322339D01*
X86600000Y-54328552D01*
X85920974Y-53649526D01*
X85920973Y-53649526D01*
X85869868Y-53722512D01*
X85869866Y-53722516D01*
X85773734Y-53928673D01*
X85773730Y-53928682D01*
X85714860Y-54148389D01*
X85714858Y-54148400D01*
X85695034Y-54374997D01*
X85695034Y-54375002D01*
X85714858Y-54601599D01*
X85714860Y-54601610D01*
X85773730Y-54821317D01*
X85773735Y-54821331D01*
X85869863Y-55027478D01*
X85920974Y-55100472D01*
X86600000Y-54421446D01*
X86600000Y-54427661D01*
X86627259Y-54529394D01*
X86679920Y-54620606D01*
X86754394Y-54695080D01*
X86845606Y-54747741D01*
X86947339Y-54775000D01*
X86953553Y-54775000D01*
X86274526Y-55454025D01*
X86347513Y-55505132D01*
X86347521Y-55505136D01*
X86553668Y-55601264D01*
X86553682Y-55601269D01*
X86773389Y-55660139D01*
X86773400Y-55660141D01*
X86999998Y-55679966D01*
X87000002Y-55679966D01*
X87226599Y-55660141D01*
X87226610Y-55660139D01*
X87446317Y-55601269D01*
X87446331Y-55601264D01*
X87652478Y-55505136D01*
X87725471Y-55454024D01*
X87046447Y-54775000D01*
X87052661Y-54775000D01*
X87154394Y-54747741D01*
X87245606Y-54695080D01*
X87320080Y-54620606D01*
X87372741Y-54529394D01*
X87400000Y-54427661D01*
X87400000Y-54421447D01*
X88079024Y-55100471D01*
X88130136Y-55027478D01*
X88226264Y-54821331D01*
X88226269Y-54821317D01*
X88285139Y-54601610D01*
X88285141Y-54601599D01*
X88304966Y-54375002D01*
X88304966Y-54374997D01*
X88285141Y-54148400D01*
X88285139Y-54148389D01*
X88226269Y-53928682D01*
X88226264Y-53928668D01*
X88130136Y-53722521D01*
X88130132Y-53722513D01*
X88079025Y-53649526D01*
X87400000Y-54328551D01*
X87400000Y-54322339D01*
X87372741Y-54220606D01*
X87320080Y-54129394D01*
X87245606Y-54054920D01*
X87154394Y-54002259D01*
X87052661Y-53975000D01*
X87046448Y-53975000D01*
X87725472Y-53295974D01*
X87652480Y-53244864D01*
X87637024Y-53237657D01*
X87584585Y-53191484D01*
X87565433Y-53124290D01*
X87585649Y-53057409D01*
X87637023Y-53012893D01*
X87652734Y-53005568D01*
X87839139Y-52875047D01*
X88000047Y-52714139D01*
X88130568Y-52527734D01*
X88226739Y-52321496D01*
X88285635Y-52101692D01*
X88305468Y-51875000D01*
X88285635Y-51648308D01*
X88226739Y-51428504D01*
X88130568Y-51222266D01*
X88000047Y-51035861D01*
X88000045Y-51035858D01*
X87839141Y-50874954D01*
X87652734Y-50744432D01*
X87652732Y-50744431D01*
X87446497Y-50648261D01*
X87446488Y-50648258D01*
X87226697Y-50589366D01*
X87226693Y-50589365D01*
X87226692Y-50589365D01*
X87226691Y-50589364D01*
X87226686Y-50589364D01*
X87000002Y-50569532D01*
X86999998Y-50569532D01*
X86773313Y-50589364D01*
X86773302Y-50589366D01*
X86553511Y-50648258D01*
X86553502Y-50648261D01*
X86347267Y-50744431D01*
X86347265Y-50744432D01*
X86160858Y-50874954D01*
X85999954Y-51035858D01*
X85869432Y-51222265D01*
X85869431Y-51222267D01*
X85773261Y-51428502D01*
X85773258Y-51428511D01*
X85714366Y-51648302D01*
X85714364Y-51648313D01*
X85694532Y-51874998D01*
X85694532Y-51875001D01*
X84306389Y-51875001D01*
X84304946Y-50428872D01*
X84303670Y-49150001D01*
X89304532Y-49150001D01*
X89324364Y-49376686D01*
X89324366Y-49376697D01*
X89383258Y-49596488D01*
X89383261Y-49596497D01*
X89479431Y-49802732D01*
X89479432Y-49802734D01*
X89609954Y-49989141D01*
X89770858Y-50150045D01*
X89770861Y-50150047D01*
X89957266Y-50280568D01*
X90163504Y-50376739D01*
X90383308Y-50435635D01*
X90545230Y-50449801D01*
X90609998Y-50455468D01*
X90610000Y-50455468D01*
X90610002Y-50455468D01*
X90666673Y-50450509D01*
X90836692Y-50435635D01*
X91056496Y-50376739D01*
X91262734Y-50280568D01*
X91449139Y-50150047D01*
X91610047Y-49989139D01*
X91740568Y-49802734D01*
X91767895Y-49744129D01*
X91814064Y-49691695D01*
X91881257Y-49672542D01*
X91948139Y-49692757D01*
X91992657Y-49744133D01*
X92019865Y-49802482D01*
X92150342Y-49988820D01*
X92311179Y-50149657D01*
X92497517Y-50280134D01*
X92703673Y-50376265D01*
X92703682Y-50376269D01*
X92899999Y-50428872D01*
X92900000Y-50428871D01*
X92900000Y-49465686D01*
X92904394Y-49470080D01*
X92995606Y-49522741D01*
X93097339Y-49550000D01*
X93202661Y-49550000D01*
X93304394Y-49522741D01*
X93395606Y-49470080D01*
X93400000Y-49465686D01*
X93400000Y-50428872D01*
X93596317Y-50376269D01*
X93596326Y-50376265D01*
X93802482Y-50280134D01*
X93988820Y-50149657D01*
X94149657Y-49988820D01*
X94280134Y-49802481D01*
X94280135Y-49802479D01*
X94307618Y-49743543D01*
X94353790Y-49691103D01*
X94420983Y-49671951D01*
X94487864Y-49692166D01*
X94532382Y-49743543D01*
X94559864Y-49802479D01*
X94559865Y-49802481D01*
X94690342Y-49988820D01*
X94851179Y-50149657D01*
X95037517Y-50280134D01*
X95243673Y-50376265D01*
X95243682Y-50376269D01*
X95439999Y-50428872D01*
X95440000Y-50428871D01*
X95440000Y-49465686D01*
X95444394Y-49470080D01*
X95535606Y-49522741D01*
X95637339Y-49550000D01*
X95742661Y-49550000D01*
X95844394Y-49522741D01*
X95935606Y-49470080D01*
X95940000Y-49465686D01*
X95940000Y-50428872D01*
X96136317Y-50376269D01*
X96136326Y-50376265D01*
X96342482Y-50280134D01*
X96528820Y-50149657D01*
X96689657Y-49988820D01*
X96820132Y-49802484D01*
X96847341Y-49744134D01*
X96893513Y-49691695D01*
X96960707Y-49672542D01*
X97027588Y-49692757D01*
X97072106Y-49744133D01*
X97099431Y-49802732D01*
X97099432Y-49802734D01*
X97229954Y-49989141D01*
X97390858Y-50150045D01*
X97390861Y-50150047D01*
X97577266Y-50280568D01*
X97783504Y-50376739D01*
X98003308Y-50435635D01*
X98165230Y-50449801D01*
X98229998Y-50455468D01*
X98230000Y-50455468D01*
X98230002Y-50455468D01*
X98286673Y-50450509D01*
X98456692Y-50435635D01*
X98676496Y-50376739D01*
X98882734Y-50280568D01*
X99069139Y-50150047D01*
X99230047Y-49989139D01*
X99360568Y-49802734D01*
X99387895Y-49744129D01*
X99434064Y-49691695D01*
X99501257Y-49672542D01*
X99568139Y-49692757D01*
X99612657Y-49744133D01*
X99639865Y-49802482D01*
X99770342Y-49988820D01*
X99931179Y-50149657D01*
X100117517Y-50280134D01*
X100323673Y-50376265D01*
X100323682Y-50376269D01*
X100519999Y-50428872D01*
X100520000Y-50428871D01*
X100520000Y-49465686D01*
X100524394Y-49470080D01*
X100615606Y-49522741D01*
X100717339Y-49550000D01*
X100822661Y-49550000D01*
X100924394Y-49522741D01*
X101015606Y-49470080D01*
X101020000Y-49465686D01*
X101020000Y-50428872D01*
X101216317Y-50376269D01*
X101216326Y-50376265D01*
X101422482Y-50280134D01*
X101608820Y-50149657D01*
X101769657Y-49988820D01*
X101900134Y-49802481D01*
X101900135Y-49802479D01*
X101927618Y-49743543D01*
X101973790Y-49691103D01*
X102040983Y-49671951D01*
X102107864Y-49692166D01*
X102152382Y-49743543D01*
X102179864Y-49802479D01*
X102179865Y-49802481D01*
X102310342Y-49988820D01*
X102471179Y-50149657D01*
X102657517Y-50280134D01*
X102863673Y-50376265D01*
X102863682Y-50376269D01*
X103059999Y-50428872D01*
X103060000Y-50428871D01*
X103060000Y-49465686D01*
X103064394Y-49470080D01*
X103155606Y-49522741D01*
X103257339Y-49550000D01*
X103362661Y-49550000D01*
X103464394Y-49522741D01*
X103555606Y-49470080D01*
X103560000Y-49465686D01*
X103560000Y-50428872D01*
X103756317Y-50376269D01*
X103756326Y-50376265D01*
X103962482Y-50280134D01*
X104148820Y-50149657D01*
X104309657Y-49988820D01*
X104440132Y-49802484D01*
X104467341Y-49744134D01*
X104513513Y-49691695D01*
X104580707Y-49672542D01*
X104647588Y-49692757D01*
X104692106Y-49744133D01*
X104719431Y-49802732D01*
X104719432Y-49802734D01*
X104849954Y-49989141D01*
X105010858Y-50150045D01*
X105010861Y-50150047D01*
X105197266Y-50280568D01*
X105403504Y-50376739D01*
X105623308Y-50435635D01*
X105785230Y-50449801D01*
X105849998Y-50455468D01*
X105850000Y-50455468D01*
X105850002Y-50455468D01*
X105906673Y-50450509D01*
X106076692Y-50435635D01*
X106296496Y-50376739D01*
X106502734Y-50280568D01*
X106689139Y-50150047D01*
X106850047Y-49989139D01*
X106980568Y-49802734D01*
X107076739Y-49596496D01*
X107135635Y-49376692D01*
X107155468Y-49150000D01*
X107153718Y-49130001D01*
X115429532Y-49130001D01*
X115449364Y-49356686D01*
X115449366Y-49356697D01*
X115508258Y-49576488D01*
X115508261Y-49576497D01*
X115604431Y-49782732D01*
X115604432Y-49782734D01*
X115734954Y-49969141D01*
X115895858Y-50130045D01*
X115895861Y-50130047D01*
X116082266Y-50260568D01*
X116288504Y-50356739D01*
X116508308Y-50415635D01*
X116670230Y-50429801D01*
X116734998Y-50435468D01*
X116735000Y-50435468D01*
X116735002Y-50435468D01*
X116791673Y-50430509D01*
X116961692Y-50415635D01*
X117181496Y-50356739D01*
X117387734Y-50260568D01*
X117574139Y-50130047D01*
X117735047Y-49969139D01*
X117865568Y-49782734D01*
X117892618Y-49724724D01*
X117938790Y-49672285D01*
X118005983Y-49653133D01*
X118072865Y-49673348D01*
X118117382Y-49724725D01*
X118144429Y-49782728D01*
X118144432Y-49782734D01*
X118274954Y-49969141D01*
X118435858Y-50130045D01*
X118435861Y-50130047D01*
X118622266Y-50260568D01*
X118828504Y-50356739D01*
X119048308Y-50415635D01*
X119210230Y-50429801D01*
X119274998Y-50435468D01*
X119275000Y-50435468D01*
X119275002Y-50435468D01*
X119331673Y-50430509D01*
X119501692Y-50415635D01*
X119721496Y-50356739D01*
X119927734Y-50260568D01*
X120114139Y-50130047D01*
X120275047Y-49969139D01*
X120405568Y-49782734D01*
X120501739Y-49576496D01*
X120560635Y-49356692D01*
X120580468Y-49130000D01*
X120560635Y-48903308D01*
X120501739Y-48683504D01*
X120405568Y-48477266D01*
X120275047Y-48290861D01*
X120275045Y-48290858D01*
X120114141Y-48129954D01*
X119927734Y-47999432D01*
X119927732Y-47999431D01*
X119721497Y-47903261D01*
X119721488Y-47903258D01*
X119501697Y-47844366D01*
X119501693Y-47844365D01*
X119501692Y-47844365D01*
X119501691Y-47844364D01*
X119501686Y-47844364D01*
X119275002Y-47824532D01*
X119274998Y-47824532D01*
X119048313Y-47844364D01*
X119048302Y-47844366D01*
X118828511Y-47903258D01*
X118828502Y-47903261D01*
X118622267Y-47999431D01*
X118622265Y-47999432D01*
X118435858Y-48129954D01*
X118274954Y-48290858D01*
X118144432Y-48477265D01*
X118144431Y-48477267D01*
X118117382Y-48535275D01*
X118071209Y-48587714D01*
X118004016Y-48606866D01*
X117937135Y-48586650D01*
X117892618Y-48535275D01*
X117865568Y-48477266D01*
X117735047Y-48290861D01*
X117735045Y-48290858D01*
X117574141Y-48129954D01*
X117387734Y-47999432D01*
X117387732Y-47999431D01*
X117181497Y-47903261D01*
X117181488Y-47903258D01*
X116961697Y-47844366D01*
X116961693Y-47844365D01*
X116961692Y-47844365D01*
X116961691Y-47844364D01*
X116961686Y-47844364D01*
X116735002Y-47824532D01*
X116734998Y-47824532D01*
X116508313Y-47844364D01*
X116508302Y-47844366D01*
X116288511Y-47903258D01*
X116288502Y-47903261D01*
X116082267Y-47999431D01*
X116082265Y-47999432D01*
X115895858Y-48129954D01*
X115734954Y-48290858D01*
X115604432Y-48477265D01*
X115604431Y-48477267D01*
X115508261Y-48683502D01*
X115508258Y-48683511D01*
X115449366Y-48903302D01*
X115449364Y-48903313D01*
X115429532Y-49129998D01*
X115429532Y-49130001D01*
X107153718Y-49130001D01*
X107135635Y-48923308D01*
X107076739Y-48703504D01*
X106980568Y-48497266D01*
X106850047Y-48310861D01*
X106850045Y-48310858D01*
X106689141Y-48149954D01*
X106502734Y-48019432D01*
X106502732Y-48019431D01*
X106296497Y-47923261D01*
X106296488Y-47923258D01*
X106076697Y-47864366D01*
X106076693Y-47864365D01*
X106076692Y-47864365D01*
X106076691Y-47864364D01*
X106076686Y-47864364D01*
X105850002Y-47844532D01*
X105849998Y-47844532D01*
X105623313Y-47864364D01*
X105623302Y-47864366D01*
X105403511Y-47923258D01*
X105403502Y-47923261D01*
X105197267Y-48019431D01*
X105197265Y-48019432D01*
X105010858Y-48149954D01*
X104849954Y-48310858D01*
X104733436Y-48477266D01*
X104719432Y-48497266D01*
X104719315Y-48497518D01*
X104692106Y-48555867D01*
X104645933Y-48608306D01*
X104578739Y-48627457D01*
X104511858Y-48607241D01*
X104467342Y-48555865D01*
X104440135Y-48497520D01*
X104440134Y-48497518D01*
X104309657Y-48311179D01*
X104148820Y-48150342D01*
X103962482Y-48019865D01*
X103756328Y-47923734D01*
X103560000Y-47871127D01*
X103560000Y-48834314D01*
X103555606Y-48829920D01*
X103464394Y-48777259D01*
X103362661Y-48750000D01*
X103257339Y-48750000D01*
X103155606Y-48777259D01*
X103064394Y-48829920D01*
X103060000Y-48834314D01*
X103060000Y-47871127D01*
X102863671Y-47923734D01*
X102657517Y-48019865D01*
X102471179Y-48150342D01*
X102310342Y-48311179D01*
X102179865Y-48497517D01*
X102152382Y-48556457D01*
X102106210Y-48608896D01*
X102039016Y-48628048D01*
X101972135Y-48607832D01*
X101927618Y-48556457D01*
X101900134Y-48497517D01*
X101769657Y-48311179D01*
X101608820Y-48150342D01*
X101422482Y-48019865D01*
X101216328Y-47923734D01*
X101020000Y-47871127D01*
X101020000Y-48834314D01*
X101015606Y-48829920D01*
X100924394Y-48777259D01*
X100822661Y-48750000D01*
X100717339Y-48750000D01*
X100615606Y-48777259D01*
X100524394Y-48829920D01*
X100520000Y-48834314D01*
X100520000Y-47871127D01*
X100323671Y-47923734D01*
X100117517Y-48019865D01*
X99931179Y-48150342D01*
X99770342Y-48311179D01*
X99639867Y-48497515D01*
X99612657Y-48555867D01*
X99566484Y-48608306D01*
X99499290Y-48627457D01*
X99432409Y-48607241D01*
X99387893Y-48555865D01*
X99360685Y-48497518D01*
X99360568Y-48497266D01*
X99230047Y-48310861D01*
X99230045Y-48310858D01*
X99069141Y-48149954D01*
X98882734Y-48019432D01*
X98882732Y-48019431D01*
X98676497Y-47923261D01*
X98676488Y-47923258D01*
X98456697Y-47864366D01*
X98456693Y-47864365D01*
X98456692Y-47864365D01*
X98456691Y-47864364D01*
X98456686Y-47864364D01*
X98230002Y-47844532D01*
X98229998Y-47844532D01*
X98003313Y-47864364D01*
X98003302Y-47864366D01*
X97783511Y-47923258D01*
X97783502Y-47923261D01*
X97577267Y-48019431D01*
X97577265Y-48019432D01*
X97390858Y-48149954D01*
X97229954Y-48310858D01*
X97113436Y-48477266D01*
X97099432Y-48497266D01*
X97099315Y-48497518D01*
X97072106Y-48555867D01*
X97025933Y-48608306D01*
X96958739Y-48627457D01*
X96891858Y-48607241D01*
X96847342Y-48555865D01*
X96820135Y-48497520D01*
X96820134Y-48497518D01*
X96689657Y-48311179D01*
X96528820Y-48150342D01*
X96342482Y-48019865D01*
X96136328Y-47923734D01*
X95940000Y-47871127D01*
X95940000Y-48834314D01*
X95935606Y-48829920D01*
X95844394Y-48777259D01*
X95742661Y-48750000D01*
X95637339Y-48750000D01*
X95535606Y-48777259D01*
X95444394Y-48829920D01*
X95440000Y-48834314D01*
X95440000Y-47871127D01*
X95243671Y-47923734D01*
X95037517Y-48019865D01*
X94851179Y-48150342D01*
X94690342Y-48311179D01*
X94559865Y-48497517D01*
X94532382Y-48556457D01*
X94486210Y-48608896D01*
X94419016Y-48628048D01*
X94352135Y-48607832D01*
X94307618Y-48556457D01*
X94280134Y-48497517D01*
X94149657Y-48311179D01*
X93988820Y-48150342D01*
X93802482Y-48019865D01*
X93596328Y-47923734D01*
X93400000Y-47871127D01*
X93400000Y-48834314D01*
X93395606Y-48829920D01*
X93304394Y-48777259D01*
X93202661Y-48750000D01*
X93097339Y-48750000D01*
X92995606Y-48777259D01*
X92904394Y-48829920D01*
X92900000Y-48834314D01*
X92900000Y-47871127D01*
X92703671Y-47923734D01*
X92497517Y-48019865D01*
X92311179Y-48150342D01*
X92150342Y-48311179D01*
X92019867Y-48497515D01*
X91992657Y-48555867D01*
X91946484Y-48608306D01*
X91879290Y-48627457D01*
X91812409Y-48607241D01*
X91767893Y-48555865D01*
X91740685Y-48497518D01*
X91740568Y-48497266D01*
X91610047Y-48310861D01*
X91610045Y-48310858D01*
X91449141Y-48149954D01*
X91262734Y-48019432D01*
X91262732Y-48019431D01*
X91056497Y-47923261D01*
X91056488Y-47923258D01*
X90836697Y-47864366D01*
X90836693Y-47864365D01*
X90836692Y-47864365D01*
X90836691Y-47864364D01*
X90836686Y-47864364D01*
X90610002Y-47844532D01*
X90609998Y-47844532D01*
X90383313Y-47864364D01*
X90383302Y-47864366D01*
X90163511Y-47923258D01*
X90163502Y-47923261D01*
X89957267Y-48019431D01*
X89957265Y-48019432D01*
X89770858Y-48149954D01*
X89609954Y-48310858D01*
X89479432Y-48497265D01*
X89479431Y-48497267D01*
X89383261Y-48703502D01*
X89383258Y-48703511D01*
X89324366Y-48923302D01*
X89324364Y-48923313D01*
X89304532Y-49149998D01*
X89304532Y-49150001D01*
X84303670Y-49150001D01*
X84301124Y-46599624D01*
X84320742Y-46532565D01*
X84373500Y-46486757D01*
X84425124Y-46475500D01*
X122476123Y-46475500D01*
X122543162Y-46495185D01*
G37*
%TD.AperFunction*%
%TD*%
M02*
