M48
; DRILL file {KiCad 8.0.1} date 2024-04-05T09:22:40+0200
; FORMAT={-:-/ absolute / inch / decimal}
; #@! TF.CreationDate,2024-04-05T09:22:40+02:00
; #@! TF.GenerationSoftware,Kicad,Pcbnew,8.0.1
; #@! TF.FileFunction,Plated,1,4,PTH
FMAT,2
INCH
; #@! TA.AperFunction,Plated,PTH,ViaDrill
T1C0.0118
; #@! TA.AperFunction,Plated,PTH,ComponentDrill
T2C0.0315
%
G90
G05
T1
X3.826Y-3.611
X3.926Y-3.611
X4.0074Y-3.4752
X4.126Y-3.5258
X4.126Y-3.611
X4.3268Y-3.6279
T2
X3.4065Y-2.4016
X3.4252Y-2.0423
X3.4252Y-2.1407
X3.4335Y-2.5709
X3.4335Y-3.1709
X3.5049Y-2.4016
X3.5335Y-2.5709
X3.5335Y-3.1709
X3.5673Y-1.935
X3.5673Y-2.235
X3.6335Y-2.5709
X3.6335Y-3.1709
X3.6673Y-1.935
X3.6673Y-2.235
X3.7335Y-2.5709
X3.7335Y-3.1709
X3.7673Y-1.935
X3.7673Y-2.235
X3.8059Y-2.4016
X3.8335Y-2.5709
X3.8335Y-3.1709
X3.8673Y-1.935
X3.8673Y-2.235
X3.9335Y-2.5709
X3.9335Y-3.1709
X3.9673Y-1.935
X3.9673Y-2.235
X4.0335Y-2.5709
X4.0335Y-3.1709
X4.0673Y-1.935
X4.0673Y-2.235
X4.1335Y-2.5709
X4.1335Y-3.1709
X4.1673Y-1.935
X4.1673Y-2.235
X4.2059Y-2.4016
X4.2335Y-2.5709
X4.2335Y-3.1709
X4.3335Y-2.5709
X4.3335Y-3.1709
X4.348Y-2.4026
X4.4335Y-2.5709
X4.4335Y-3.1709
X4.5335Y-2.5709
X4.5335Y-3.1709
X4.5959Y-1.9343
X4.5959Y-2.2343
X4.6335Y-2.5709
X4.6335Y-3.1709
X4.6959Y-1.9343
X4.6959Y-2.2343
X4.7335Y-2.5709
X4.7335Y-3.1709
X4.748Y-2.4026
M30
