%TF.GenerationSoftware,KiCad,Pcbnew,8.0.2*%
%TF.CreationDate,2024-05-18T22:44:16+02:00*%
%TF.ProjectId,zx-interface-2-rom,7a782d69-6e74-4657-9266-6163652d322d,rev?*%
%TF.SameCoordinates,Original*%
%TF.FileFunction,Copper,L1,Top*%
%TF.FilePolarity,Positive*%
%FSLAX46Y46*%
G04 Gerber Fmt 4.6, Leading zero omitted, Abs format (unit mm)*
G04 Created by KiCad (PCBNEW 8.0.2) date 2024-05-18 22:44:16*
%MOMM*%
%LPD*%
G01*
G04 APERTURE LIST*
G04 Aperture macros list*
%AMRoundRect*
0 Rectangle with rounded corners*
0 $1 Rounding radius*
0 $2 $3 $4 $5 $6 $7 $8 $9 X,Y pos of 4 corners*
0 Add a 4 corners polygon primitive as box body*
4,1,4,$2,$3,$4,$5,$6,$7,$8,$9,$2,$3,0*
0 Add four circle primitives for the rounded corners*
1,1,$1+$1,$2,$3*
1,1,$1+$1,$4,$5*
1,1,$1+$1,$6,$7*
1,1,$1+$1,$8,$9*
0 Add four rect primitives between the rounded corners*
20,1,$1+$1,$2,$3,$4,$5,0*
20,1,$1+$1,$4,$5,$6,$7,0*
20,1,$1+$1,$6,$7,$8,$9,0*
20,1,$1+$1,$8,$9,$2,$3,0*%
G04 Aperture macros list end*
%TA.AperFunction,ConnectorPad*%
%ADD10RoundRect,0.381000X0.381000X4.175000X-0.381000X4.175000X-0.381000X-4.175000X0.381000X-4.175000X0*%
%TD*%
%TA.AperFunction,ComponentPad*%
%ADD11C,1.600000*%
%TD*%
%TA.AperFunction,ComponentPad*%
%ADD12O,1.600000X1.600000*%
%TD*%
%TA.AperFunction,ComponentPad*%
%ADD13R,1.600000X1.600000*%
%TD*%
%TA.AperFunction,ViaPad*%
%ADD14C,0.600000*%
%TD*%
%TA.AperFunction,Conductor*%
%ADD15C,0.200000*%
%TD*%
G04 APERTURE END LIST*
D10*
%TO.P,J1,2,Vcc*%
%TO.N,+5V*%
X121260000Y-91260000D03*
%TO.P,J1,4,A15*%
%TO.N,Net-(J1-A15)*%
X118720000Y-91260000D03*
%TO.P,J1,6,A13*%
%TO.N,A13*%
X116180000Y-91260000D03*
%TO.P,J1,8,A8*%
%TO.N,A8*%
X113640000Y-91260000D03*
%TO.P,J1,10,A9*%
%TO.N,A9*%
X108560000Y-91260000D03*
%TO.P,J1,12,A11*%
%TO.N,A11*%
X106020000Y-91260000D03*
%TO.P,J1,14,~{MREQ}*%
%TO.N,Net-(J1-~{MREQ})*%
X103480000Y-91260000D03*
%TO.P,J1,16,A10*%
%TO.N,A10*%
X100940000Y-91260000D03*
%TO.P,J1,18,A14*%
%TO.N,Net-(J1-A14)*%
X98400000Y-91260000D03*
%TO.P,J1,20,D7*%
%TO.N,D7*%
X95860000Y-91260000D03*
%TO.P,J1,22,D6*%
%TO.N,D6*%
X93320000Y-91260000D03*
%TO.P,J1,24,D5*%
%TO.N,D5*%
X90780000Y-91260000D03*
%TO.P,J1,26,D4*%
%TO.N,D4*%
X88240000Y-91260000D03*
%TO.P,J1,28,D3*%
%TO.N,D3*%
X85700000Y-91260000D03*
%TD*%
D11*
%TO.P,R2,1*%
%TO.N,GND*%
X120600000Y-61025000D03*
D12*
%TO.P,R2,2*%
%TO.N,Net-(U1-A14)*%
X110440000Y-61025000D03*
%TD*%
D13*
%TO.P,SW1,1*%
%TO.N,Net-(U1-A15)*%
X116750000Y-56330000D03*
D12*
%TO.P,SW1,2*%
%TO.N,Net-(U1-A14)*%
X119290000Y-56330000D03*
%TO.P,SW1,3*%
%TO.N,+5V*%
X119290000Y-48710000D03*
%TO.P,SW1,4*%
X116750000Y-48710000D03*
%TD*%
D11*
%TO.P,C2,1*%
%TO.N,+5V*%
X86525000Y-61000000D03*
%TO.P,C2,2*%
%TO.N,GND*%
X89025000Y-61000000D03*
%TD*%
D13*
%TO.P,U1,1,A15*%
%TO.N,Net-(U1-A15)*%
X87120000Y-80715000D03*
D12*
%TO.P,U1,2,A12*%
%TO.N,A12*%
X89660000Y-80715000D03*
%TO.P,U1,3,A7*%
%TO.N,A7*%
X92200000Y-80715000D03*
%TO.P,U1,4,A6*%
%TO.N,A6*%
X94740000Y-80715000D03*
%TO.P,U1,5,A5*%
%TO.N,A5*%
X97280000Y-80715000D03*
%TO.P,U1,6,A4*%
%TO.N,A4*%
X99820000Y-80715000D03*
%TO.P,U1,7,A3*%
%TO.N,A3*%
X102360000Y-80715000D03*
%TO.P,U1,8,A2*%
%TO.N,A2*%
X104900000Y-80715000D03*
%TO.P,U1,9,A1*%
%TO.N,A1*%
X107440000Y-80715000D03*
%TO.P,U1,10,A0*%
%TO.N,A0*%
X109980000Y-80715000D03*
%TO.P,U1,11,D0*%
%TO.N,D0*%
X112520000Y-80715000D03*
%TO.P,U1,12,D1*%
%TO.N,D1*%
X115060000Y-80715000D03*
%TO.P,U1,13,D2*%
%TO.N,D2*%
X117600000Y-80715000D03*
%TO.P,U1,14,GND*%
%TO.N,GND*%
X120140000Y-80715000D03*
%TO.P,U1,15,D3*%
%TO.N,D3*%
X120140000Y-65475000D03*
%TO.P,U1,16,D4*%
%TO.N,D4*%
X117600000Y-65475000D03*
%TO.P,U1,17,D5*%
%TO.N,D5*%
X115060000Y-65475000D03*
%TO.P,U1,18,D6*%
%TO.N,D6*%
X112520000Y-65475000D03*
%TO.P,U1,19,D7*%
%TO.N,D7*%
X109980000Y-65475000D03*
%TO.P,U1,20,~{CE}*%
%TO.N,Net-(U1-~{CE})*%
X107440000Y-65475000D03*
%TO.P,U1,21,A10*%
%TO.N,A10*%
X104900000Y-65475000D03*
%TO.P,U1,22,~{OE/Vpp}*%
%TO.N,Net-(J1-~{MREQ})*%
X102360000Y-65475000D03*
%TO.P,U1,23,A11*%
%TO.N,A11*%
X99820000Y-65475000D03*
%TO.P,U1,24,A9*%
%TO.N,A9*%
X97280000Y-65475000D03*
%TO.P,U1,25,A8*%
%TO.N,A8*%
X94740000Y-65475000D03*
%TO.P,U1,26,A13*%
%TO.N,A13*%
X92200000Y-65475000D03*
%TO.P,U1,27,A14*%
%TO.N,Net-(U1-A14)*%
X89660000Y-65475000D03*
%TO.P,U1,28,VCC*%
%TO.N,+5V*%
X87120000Y-65475000D03*
%TD*%
D11*
%TO.P,C1,1*%
%TO.N,+5V*%
X87000000Y-51875000D03*
%TO.P,C1,2*%
%TO.N,GND*%
X87000000Y-54375000D03*
%TD*%
%TO.P,R1,1*%
%TO.N,GND*%
X106830000Y-61000000D03*
D12*
%TO.P,R1,2*%
%TO.N,Net-(U1-A15)*%
X96670000Y-61000000D03*
%TD*%
D13*
%TO.P,U2,1*%
%TO.N,Net-(J1-A15)*%
X90610000Y-56770000D03*
D12*
%TO.P,U2,2*%
%TO.N,Net-(J1-A14)*%
X93150000Y-56770000D03*
%TO.P,U2,3*%
%TO.N,Net-(U2-Pad3)*%
X95690000Y-56770000D03*
%TO.P,U2,4*%
X98230000Y-56770000D03*
%TO.P,U2,5*%
%TO.N,Net-(J1-~{MREQ})*%
X100770000Y-56770000D03*
%TO.P,U2,6*%
%TO.N,Net-(U1-~{CE})*%
X103310000Y-56770000D03*
%TO.P,U2,7,GND*%
%TO.N,GND*%
X105850000Y-56770000D03*
%TO.P,U2,8*%
%TO.N,unconnected-(U2-Pad8)*%
X105850000Y-49150000D03*
%TO.P,U2,9*%
%TO.N,GND*%
X103310000Y-49150000D03*
%TO.P,U2,10*%
X100770000Y-49150000D03*
%TO.P,U2,11*%
%TO.N,unconnected-(U2-Pad11)*%
X98230000Y-49150000D03*
%TO.P,U2,12*%
%TO.N,GND*%
X95690000Y-49150000D03*
%TO.P,U2,13*%
X93150000Y-49150000D03*
%TO.P,U2,14,VCC*%
%TO.N,+5V*%
X90610000Y-49150000D03*
%TD*%
D14*
%TO.N,D5*%
X95058000Y-76677700D03*
%TO.N,A10*%
X100940000Y-71459500D03*
%TO.N,A8*%
X101898200Y-67190700D03*
%TO.N,D4*%
X87616500Y-83954400D03*
%TO.N,A12*%
X90256700Y-78862800D03*
%TO.N,D7*%
X96078100Y-74488900D03*
%TO.N,A5*%
X109096900Y-79098400D03*
X109249000Y-85611800D03*
%TO.N,D6*%
X95659800Y-75853900D03*
%TO.N,D3*%
X90214800Y-78052400D03*
%TO.N,A13*%
X104032400Y-68086000D03*
%TO.N,+5V*%
X121717300Y-86200000D03*
%TD*%
D15*
%TO.N,GND*%
X121247700Y-61672700D02*
X120600000Y-61025000D01*
X121247700Y-78505600D02*
X121247700Y-61672700D01*
X120140000Y-79613300D02*
X121247700Y-78505600D01*
X120140000Y-80715000D02*
X120140000Y-79613300D01*
X105850000Y-52791700D02*
X105850000Y-56770000D01*
X103310000Y-50251700D02*
X105850000Y-52791700D01*
X103310000Y-49150000D02*
X103310000Y-50251700D01*
X87000000Y-58975000D02*
X89025000Y-61000000D01*
X87000000Y-54375000D02*
X87000000Y-58975000D01*
%TO.N,Net-(J1-~{MREQ})*%
X102360000Y-65475000D02*
X102360000Y-64373300D01*
X103480000Y-73076600D02*
X103480000Y-91260000D01*
X100240000Y-69836600D02*
X103480000Y-73076600D01*
X100054100Y-69836600D02*
X100240000Y-69836600D01*
X96172900Y-65955400D02*
X100054100Y-69836600D01*
X96172900Y-64999300D02*
X96172900Y-65955400D01*
X98388900Y-62783300D02*
X96172900Y-64999300D01*
X100770000Y-62783300D02*
X98388900Y-62783300D01*
X100770000Y-56770000D02*
X100770000Y-62783300D01*
X100770000Y-62783300D02*
X102360000Y-64373300D01*
%TO.N,A11*%
X99820000Y-65475000D02*
X99820000Y-66576700D01*
X106020000Y-72776700D02*
X106020000Y-91260000D01*
X99820000Y-66576700D02*
X106020000Y-72776700D01*
%TO.N,Net-(J1-A14)*%
X98400000Y-73998600D02*
X98400000Y-91260000D01*
X93470000Y-69068600D02*
X98400000Y-73998600D01*
X93470000Y-58191700D02*
X93470000Y-69068600D01*
X93150000Y-57871700D02*
X93470000Y-58191700D01*
X93150000Y-56770000D02*
X93150000Y-57871700D01*
%TO.N,D5*%
X90780000Y-80566900D02*
X90780000Y-91260000D01*
X94669200Y-76677700D02*
X90780000Y-80566900D01*
X95058000Y-76677700D02*
X94669200Y-76677700D01*
%TO.N,A10*%
X100940000Y-91260000D02*
X100940000Y-71459500D01*
%TO.N,A9*%
X97280000Y-65475000D02*
X98381700Y-65475000D01*
X108560000Y-79414800D02*
X108560000Y-91260000D01*
X108493900Y-79348700D02*
X108560000Y-79414800D01*
X108493900Y-74669300D02*
X108493900Y-79348700D01*
X101090000Y-67265400D02*
X108493900Y-74669300D01*
X101090000Y-65182800D02*
X101090000Y-67265400D01*
X100255300Y-64348100D02*
X101090000Y-65182800D01*
X99370900Y-64348100D02*
X100255300Y-64348100D01*
X98381700Y-65337300D02*
X99370900Y-64348100D01*
X98381700Y-65475000D02*
X98381700Y-65337300D01*
%TO.N,A8*%
X113640000Y-78932500D02*
X101898200Y-67190700D01*
X113640000Y-91260000D02*
X113640000Y-78932500D01*
%TO.N,D4*%
X88240000Y-84577900D02*
X87616500Y-83954400D01*
X88240000Y-91260000D02*
X88240000Y-84577900D01*
%TO.N,A12*%
X90256700Y-79016600D02*
X90256700Y-78862800D01*
X89660000Y-79613300D02*
X90256700Y-79016600D01*
X89660000Y-80715000D02*
X89660000Y-79613300D01*
%TO.N,D7*%
X96261500Y-74672300D02*
X96078100Y-74488900D01*
X96261500Y-77023300D02*
X96261500Y-74672300D01*
X95860000Y-77424800D02*
X96261500Y-77023300D01*
X95860000Y-91260000D02*
X95860000Y-77424800D01*
%TO.N,A5*%
X109922300Y-79098400D02*
X109096900Y-79098400D01*
X111115000Y-80291100D02*
X109922300Y-79098400D01*
X111115000Y-83745800D02*
X111115000Y-80291100D01*
X109249000Y-85611800D02*
X111115000Y-83745800D01*
%TO.N,D6*%
X93320000Y-79385700D02*
X93320000Y-91260000D01*
X95659800Y-77045900D02*
X93320000Y-79385700D01*
X95659800Y-75853900D02*
X95659800Y-77045900D01*
%TO.N,D3*%
X88239800Y-80027400D02*
X90214800Y-78052400D01*
X88239800Y-81697900D02*
X88239800Y-80027400D01*
X85700000Y-84237700D02*
X88239800Y-81697900D01*
X85700000Y-91260000D02*
X85700000Y-84237700D01*
%TO.N,A13*%
X116180000Y-80233600D02*
X116180000Y-91260000D01*
X104032400Y-68086000D02*
X116180000Y-80233600D01*
%TO.N,Net-(U1-A14)*%
X119290000Y-56330000D02*
X118188300Y-56330000D01*
X114095800Y-61025000D02*
X110440000Y-61025000D01*
X118188300Y-56932500D02*
X114095800Y-61025000D01*
X118188300Y-56330000D02*
X118188300Y-56932500D01*
X90180800Y-63852500D02*
X89660000Y-64373300D01*
X90180800Y-59595100D02*
X90180800Y-63852500D01*
X89508300Y-58922600D02*
X90180800Y-59595100D01*
X89508300Y-55765400D02*
X89508300Y-58922600D01*
X90056600Y-55217100D02*
X89508300Y-55765400D01*
X103363400Y-55217100D02*
X90056600Y-55217100D01*
X104580000Y-56433700D02*
X103363400Y-55217100D01*
X104580000Y-57062400D02*
X104580000Y-56433700D01*
X108542600Y-61025000D02*
X104580000Y-57062400D01*
X110440000Y-61025000D02*
X108542600Y-61025000D01*
X89660000Y-65475000D02*
X89660000Y-64373300D01*
%TO.N,Net-(J1-A15)*%
X90610000Y-56770000D02*
X91711700Y-56770000D01*
X91711700Y-56632300D02*
X91711700Y-56770000D01*
X92721900Y-55622100D02*
X91711700Y-56632300D01*
X101186200Y-55622100D02*
X92721900Y-55622100D01*
X101898500Y-56334400D02*
X101186200Y-55622100D01*
X101898500Y-57988000D02*
X101898500Y-56334400D01*
X108710000Y-64799500D02*
X101898500Y-57988000D01*
X108710000Y-68390000D02*
X108710000Y-64799500D01*
X118720000Y-78400000D02*
X108710000Y-68390000D01*
X118720000Y-91260000D02*
X118720000Y-78400000D01*
%TO.N,+5V*%
X85879700Y-60354700D02*
X86525000Y-61000000D01*
X85879700Y-52995300D02*
X85879700Y-60354700D01*
X87000000Y-51875000D02*
X85879700Y-52995300D01*
X86525000Y-63778300D02*
X86525000Y-61000000D01*
X87120000Y-64373300D02*
X86525000Y-63778300D01*
X87120000Y-65475000D02*
X87120000Y-64373300D01*
X89508300Y-49366700D02*
X87000000Y-51875000D01*
X89508300Y-49150000D02*
X89508300Y-49366700D01*
X90610000Y-49150000D02*
X90059200Y-49150000D01*
X90059200Y-49150000D02*
X89508300Y-49150000D01*
X114928900Y-47990600D02*
X115648300Y-48710000D01*
X91218600Y-47990600D02*
X114928900Y-47990600D01*
X90059200Y-49150000D02*
X91218600Y-47990600D01*
X116750000Y-48710000D02*
X115648300Y-48710000D01*
X119290000Y-48710000D02*
X119290000Y-49811700D01*
X121717300Y-52239000D02*
X121717300Y-86200000D01*
X119290000Y-49811700D02*
X121717300Y-52239000D01*
X121717300Y-90802700D02*
X121260000Y-91260000D01*
X121717300Y-86200000D02*
X121717300Y-90802700D01*
%TD*%
M02*
