%TF.GenerationSoftware,KiCad,Pcbnew,8.0.1*%
%TF.CreationDate,2024-04-19T22:52:29+02:00*%
%TF.ProjectId,zx-interface-2-rom,7a782d69-6e74-4657-9266-6163652d322d,rev?*%
%TF.SameCoordinates,Original*%
%TF.FileFunction,Legend,Bot*%
%TF.FilePolarity,Positive*%
%FSLAX46Y46*%
G04 Gerber Fmt 4.6, Leading zero omitted, Abs format (unit mm)*
G04 Created by KiCad (PCBNEW 8.0.1) date 2024-04-19 22:52:29*
%MOMM*%
%LPD*%
G01*
G04 APERTURE LIST*
%ADD10C,0.100000*%
G04 APERTURE END LIST*
D10*
X118533295Y-87363734D02*
X118533295Y-86887544D01*
X118247580Y-87458972D02*
X119247580Y-87125639D01*
X119247580Y-87125639D02*
X118247580Y-86792306D01*
X118247580Y-85935163D02*
X118247580Y-86506591D01*
X118247580Y-86220877D02*
X119247580Y-86220877D01*
X119247580Y-86220877D02*
X119104723Y-86316115D01*
X119104723Y-86316115D02*
X119009485Y-86411353D01*
X119009485Y-86411353D02*
X118961866Y-86506591D01*
X119152342Y-85554210D02*
X119199961Y-85506591D01*
X119199961Y-85506591D02*
X119247580Y-85411353D01*
X119247580Y-85411353D02*
X119247580Y-85173258D01*
X119247580Y-85173258D02*
X119199961Y-85078020D01*
X119199961Y-85078020D02*
X119152342Y-85030401D01*
X119152342Y-85030401D02*
X119057104Y-84982782D01*
X119057104Y-84982782D02*
X118961866Y-84982782D01*
X118961866Y-84982782D02*
X118819009Y-85030401D01*
X118819009Y-85030401D02*
X118247580Y-85601829D01*
X118247580Y-85601829D02*
X118247580Y-84982782D01*
X86199961Y-86792306D02*
X86247580Y-86887544D01*
X86247580Y-86887544D02*
X86247580Y-87030401D01*
X86247580Y-87030401D02*
X86199961Y-87173258D01*
X86199961Y-87173258D02*
X86104723Y-87268496D01*
X86104723Y-87268496D02*
X86009485Y-87316115D01*
X86009485Y-87316115D02*
X85819009Y-87363734D01*
X85819009Y-87363734D02*
X85676152Y-87363734D01*
X85676152Y-87363734D02*
X85485676Y-87316115D01*
X85485676Y-87316115D02*
X85390438Y-87268496D01*
X85390438Y-87268496D02*
X85295200Y-87173258D01*
X85295200Y-87173258D02*
X85247580Y-87030401D01*
X85247580Y-87030401D02*
X85247580Y-86935163D01*
X85247580Y-86935163D02*
X85295200Y-86792306D01*
X85295200Y-86792306D02*
X85342819Y-86744687D01*
X85342819Y-86744687D02*
X85676152Y-86744687D01*
X85676152Y-86744687D02*
X85676152Y-86935163D01*
X85247580Y-86316115D02*
X86247580Y-86316115D01*
X86247580Y-86316115D02*
X85247580Y-85744687D01*
X85247580Y-85744687D02*
X86247580Y-85744687D01*
X85247580Y-85268496D02*
X86247580Y-85268496D01*
X86247580Y-85268496D02*
X86247580Y-85030401D01*
X86247580Y-85030401D02*
X86199961Y-84887544D01*
X86199961Y-84887544D02*
X86104723Y-84792306D01*
X86104723Y-84792306D02*
X86009485Y-84744687D01*
X86009485Y-84744687D02*
X85819009Y-84697068D01*
X85819009Y-84697068D02*
X85676152Y-84697068D01*
X85676152Y-84697068D02*
X85485676Y-84744687D01*
X85485676Y-84744687D02*
X85390438Y-84792306D01*
X85390438Y-84792306D02*
X85295200Y-84887544D01*
X85295200Y-84887544D02*
X85247580Y-85030401D01*
X85247580Y-85030401D02*
X85247580Y-85268496D01*
X98333295Y-87363734D02*
X98333295Y-86887544D01*
X98047580Y-87458972D02*
X99047580Y-87125639D01*
X99047580Y-87125639D02*
X98047580Y-86792306D01*
X98047580Y-85935163D02*
X98047580Y-86506591D01*
X98047580Y-86220877D02*
X99047580Y-86220877D01*
X99047580Y-86220877D02*
X98904723Y-86316115D01*
X98904723Y-86316115D02*
X98809485Y-86411353D01*
X98809485Y-86411353D02*
X98761866Y-86506591D01*
X108333295Y-87363734D02*
X108333295Y-86887544D01*
X108047580Y-87458972D02*
X109047580Y-87125639D01*
X109047580Y-87125639D02*
X108047580Y-86792306D01*
X109047580Y-85982782D02*
X109047580Y-86458972D01*
X109047580Y-86458972D02*
X108571390Y-86506591D01*
X108571390Y-86506591D02*
X108619009Y-86458972D01*
X108619009Y-86458972D02*
X108666628Y-86363734D01*
X108666628Y-86363734D02*
X108666628Y-86125639D01*
X108666628Y-86125639D02*
X108619009Y-86030401D01*
X108619009Y-86030401D02*
X108571390Y-85982782D01*
X108571390Y-85982782D02*
X108476152Y-85935163D01*
X108476152Y-85935163D02*
X108238057Y-85935163D01*
X108238057Y-85935163D02*
X108142819Y-85982782D01*
X108142819Y-85982782D02*
X108095200Y-86030401D01*
X108095200Y-86030401D02*
X108047580Y-86125639D01*
X108047580Y-86125639D02*
X108047580Y-86363734D01*
X108047580Y-86363734D02*
X108095200Y-86458972D01*
X108095200Y-86458972D02*
X108142819Y-86506591D01*
X116033295Y-87363734D02*
X116033295Y-86887544D01*
X115747580Y-87458972D02*
X116747580Y-87125639D01*
X116747580Y-87125639D02*
X115747580Y-86792306D01*
X116747580Y-86554210D02*
X116747580Y-85887544D01*
X116747580Y-85887544D02*
X115747580Y-86316115D01*
X90447580Y-87316115D02*
X91447580Y-87316115D01*
X91447580Y-87316115D02*
X91447580Y-87078020D01*
X91447580Y-87078020D02*
X91399961Y-86935163D01*
X91399961Y-86935163D02*
X91304723Y-86839925D01*
X91304723Y-86839925D02*
X91209485Y-86792306D01*
X91209485Y-86792306D02*
X91019009Y-86744687D01*
X91019009Y-86744687D02*
X90876152Y-86744687D01*
X90876152Y-86744687D02*
X90685676Y-86792306D01*
X90685676Y-86792306D02*
X90590438Y-86839925D01*
X90590438Y-86839925D02*
X90495200Y-86935163D01*
X90495200Y-86935163D02*
X90447580Y-87078020D01*
X90447580Y-87078020D02*
X90447580Y-87316115D01*
X90447580Y-85792306D02*
X90447580Y-86363734D01*
X90447580Y-86078020D02*
X91447580Y-86078020D01*
X91447580Y-86078020D02*
X91304723Y-86173258D01*
X91304723Y-86173258D02*
X91209485Y-86268496D01*
X91209485Y-86268496D02*
X91161866Y-86363734D01*
X120647580Y-86744687D02*
X121123771Y-87078020D01*
X120647580Y-87316115D02*
X121647580Y-87316115D01*
X121647580Y-87316115D02*
X121647580Y-86935163D01*
X121647580Y-86935163D02*
X121599961Y-86839925D01*
X121599961Y-86839925D02*
X121552342Y-86792306D01*
X121552342Y-86792306D02*
X121457104Y-86744687D01*
X121457104Y-86744687D02*
X121314247Y-86744687D01*
X121314247Y-86744687D02*
X121219009Y-86792306D01*
X121219009Y-86792306D02*
X121171390Y-86839925D01*
X121171390Y-86839925D02*
X121123771Y-86935163D01*
X121123771Y-86935163D02*
X121123771Y-87316115D01*
X121647580Y-86125639D02*
X121647580Y-85935163D01*
X121647580Y-85935163D02*
X121599961Y-85839925D01*
X121599961Y-85839925D02*
X121504723Y-85744687D01*
X121504723Y-85744687D02*
X121314247Y-85697068D01*
X121314247Y-85697068D02*
X120980914Y-85697068D01*
X120980914Y-85697068D02*
X120790438Y-85744687D01*
X120790438Y-85744687D02*
X120695200Y-85839925D01*
X120695200Y-85839925D02*
X120647580Y-85935163D01*
X120647580Y-85935163D02*
X120647580Y-86125639D01*
X120647580Y-86125639D02*
X120695200Y-86220877D01*
X120695200Y-86220877D02*
X120790438Y-86316115D01*
X120790438Y-86316115D02*
X120980914Y-86363734D01*
X120980914Y-86363734D02*
X121314247Y-86363734D01*
X121314247Y-86363734D02*
X121504723Y-86316115D01*
X121504723Y-86316115D02*
X121599961Y-86220877D01*
X121599961Y-86220877D02*
X121647580Y-86125639D01*
X120647580Y-85268496D02*
X121647580Y-85268496D01*
X121647580Y-85268496D02*
X120933295Y-84935163D01*
X120933295Y-84935163D02*
X121647580Y-84601830D01*
X121647580Y-84601830D02*
X120647580Y-84601830D01*
X120742819Y-83554211D02*
X120695200Y-83601830D01*
X120695200Y-83601830D02*
X120647580Y-83744687D01*
X120647580Y-83744687D02*
X120647580Y-83839925D01*
X120647580Y-83839925D02*
X120695200Y-83982782D01*
X120695200Y-83982782D02*
X120790438Y-84078020D01*
X120790438Y-84078020D02*
X120885676Y-84125639D01*
X120885676Y-84125639D02*
X121076152Y-84173258D01*
X121076152Y-84173258D02*
X121219009Y-84173258D01*
X121219009Y-84173258D02*
X121409485Y-84125639D01*
X121409485Y-84125639D02*
X121504723Y-84078020D01*
X121504723Y-84078020D02*
X121599961Y-83982782D01*
X121599961Y-83982782D02*
X121647580Y-83839925D01*
X121647580Y-83839925D02*
X121647580Y-83744687D01*
X121647580Y-83744687D02*
X121599961Y-83601830D01*
X121599961Y-83601830D02*
X121552342Y-83554211D01*
X120695200Y-83173258D02*
X120647580Y-83030401D01*
X120647580Y-83030401D02*
X120647580Y-82792306D01*
X120647580Y-82792306D02*
X120695200Y-82697068D01*
X120695200Y-82697068D02*
X120742819Y-82649449D01*
X120742819Y-82649449D02*
X120838057Y-82601830D01*
X120838057Y-82601830D02*
X120933295Y-82601830D01*
X120933295Y-82601830D02*
X121028533Y-82649449D01*
X121028533Y-82649449D02*
X121076152Y-82697068D01*
X121076152Y-82697068D02*
X121123771Y-82792306D01*
X121123771Y-82792306D02*
X121171390Y-82982782D01*
X121171390Y-82982782D02*
X121219009Y-83078020D01*
X121219009Y-83078020D02*
X121266628Y-83125639D01*
X121266628Y-83125639D02*
X121361866Y-83173258D01*
X121361866Y-83173258D02*
X121457104Y-83173258D01*
X121457104Y-83173258D02*
X121552342Y-83125639D01*
X121552342Y-83125639D02*
X121599961Y-83078020D01*
X121599961Y-83078020D02*
X121647580Y-82982782D01*
X121647580Y-82982782D02*
X121647580Y-82744687D01*
X121647580Y-82744687D02*
X121599961Y-82601830D01*
X121925200Y-87454211D02*
X121925200Y-82511354D01*
X92947580Y-87316115D02*
X93947580Y-87316115D01*
X93947580Y-87316115D02*
X93947580Y-87078020D01*
X93947580Y-87078020D02*
X93899961Y-86935163D01*
X93899961Y-86935163D02*
X93804723Y-86839925D01*
X93804723Y-86839925D02*
X93709485Y-86792306D01*
X93709485Y-86792306D02*
X93519009Y-86744687D01*
X93519009Y-86744687D02*
X93376152Y-86744687D01*
X93376152Y-86744687D02*
X93185676Y-86792306D01*
X93185676Y-86792306D02*
X93090438Y-86839925D01*
X93090438Y-86839925D02*
X92995200Y-86935163D01*
X92995200Y-86935163D02*
X92947580Y-87078020D01*
X92947580Y-87078020D02*
X92947580Y-87316115D01*
X93947580Y-86125639D02*
X93947580Y-86030401D01*
X93947580Y-86030401D02*
X93899961Y-85935163D01*
X93899961Y-85935163D02*
X93852342Y-85887544D01*
X93852342Y-85887544D02*
X93757104Y-85839925D01*
X93757104Y-85839925D02*
X93566628Y-85792306D01*
X93566628Y-85792306D02*
X93328533Y-85792306D01*
X93328533Y-85792306D02*
X93138057Y-85839925D01*
X93138057Y-85839925D02*
X93042819Y-85887544D01*
X93042819Y-85887544D02*
X92995200Y-85935163D01*
X92995200Y-85935163D02*
X92947580Y-86030401D01*
X92947580Y-86030401D02*
X92947580Y-86125639D01*
X92947580Y-86125639D02*
X92995200Y-86220877D01*
X92995200Y-86220877D02*
X93042819Y-86268496D01*
X93042819Y-86268496D02*
X93138057Y-86316115D01*
X93138057Y-86316115D02*
X93328533Y-86363734D01*
X93328533Y-86363734D02*
X93566628Y-86363734D01*
X93566628Y-86363734D02*
X93757104Y-86316115D01*
X93757104Y-86316115D02*
X93852342Y-86268496D01*
X93852342Y-86268496D02*
X93899961Y-86220877D01*
X93899961Y-86220877D02*
X93947580Y-86125639D01*
X100833295Y-87363734D02*
X100833295Y-86887544D01*
X100547580Y-87458972D02*
X101547580Y-87125639D01*
X101547580Y-87125639D02*
X100547580Y-86792306D01*
X101452342Y-86506591D02*
X101499961Y-86458972D01*
X101499961Y-86458972D02*
X101547580Y-86363734D01*
X101547580Y-86363734D02*
X101547580Y-86125639D01*
X101547580Y-86125639D02*
X101499961Y-86030401D01*
X101499961Y-86030401D02*
X101452342Y-85982782D01*
X101452342Y-85982782D02*
X101357104Y-85935163D01*
X101357104Y-85935163D02*
X101261866Y-85935163D01*
X101261866Y-85935163D02*
X101119009Y-85982782D01*
X101119009Y-85982782D02*
X100547580Y-86554210D01*
X100547580Y-86554210D02*
X100547580Y-85935163D01*
X105933295Y-87363734D02*
X105933295Y-86887544D01*
X105647580Y-87458972D02*
X106647580Y-87125639D01*
X106647580Y-87125639D02*
X105647580Y-86792306D01*
X106314247Y-86030401D02*
X105647580Y-86030401D01*
X106695200Y-86268496D02*
X105980914Y-86506591D01*
X105980914Y-86506591D02*
X105980914Y-85887544D01*
X95633295Y-87363734D02*
X95633295Y-86887544D01*
X95347580Y-87458972D02*
X96347580Y-87125639D01*
X96347580Y-87125639D02*
X95347580Y-86792306D01*
X96347580Y-86268496D02*
X96347580Y-86173258D01*
X96347580Y-86173258D02*
X96299961Y-86078020D01*
X96299961Y-86078020D02*
X96252342Y-86030401D01*
X96252342Y-86030401D02*
X96157104Y-85982782D01*
X96157104Y-85982782D02*
X95966628Y-85935163D01*
X95966628Y-85935163D02*
X95728533Y-85935163D01*
X95728533Y-85935163D02*
X95538057Y-85982782D01*
X95538057Y-85982782D02*
X95442819Y-86030401D01*
X95442819Y-86030401D02*
X95395200Y-86078020D01*
X95395200Y-86078020D02*
X95347580Y-86173258D01*
X95347580Y-86173258D02*
X95347580Y-86268496D01*
X95347580Y-86268496D02*
X95395200Y-86363734D01*
X95395200Y-86363734D02*
X95442819Y-86411353D01*
X95442819Y-86411353D02*
X95538057Y-86458972D01*
X95538057Y-86458972D02*
X95728533Y-86506591D01*
X95728533Y-86506591D02*
X95966628Y-86506591D01*
X95966628Y-86506591D02*
X96157104Y-86458972D01*
X96157104Y-86458972D02*
X96252342Y-86411353D01*
X96252342Y-86411353D02*
X96299961Y-86363734D01*
X96299961Y-86363734D02*
X96347580Y-86268496D01*
X113533295Y-87363734D02*
X113533295Y-86887544D01*
X113247580Y-87458972D02*
X114247580Y-87125639D01*
X114247580Y-87125639D02*
X113247580Y-86792306D01*
X114247580Y-86030401D02*
X114247580Y-86220877D01*
X114247580Y-86220877D02*
X114199961Y-86316115D01*
X114199961Y-86316115D02*
X114152342Y-86363734D01*
X114152342Y-86363734D02*
X114009485Y-86458972D01*
X114009485Y-86458972D02*
X113819009Y-86506591D01*
X113819009Y-86506591D02*
X113438057Y-86506591D01*
X113438057Y-86506591D02*
X113342819Y-86458972D01*
X113342819Y-86458972D02*
X113295200Y-86411353D01*
X113295200Y-86411353D02*
X113247580Y-86316115D01*
X113247580Y-86316115D02*
X113247580Y-86125639D01*
X113247580Y-86125639D02*
X113295200Y-86030401D01*
X113295200Y-86030401D02*
X113342819Y-85982782D01*
X113342819Y-85982782D02*
X113438057Y-85935163D01*
X113438057Y-85935163D02*
X113676152Y-85935163D01*
X113676152Y-85935163D02*
X113771390Y-85982782D01*
X113771390Y-85982782D02*
X113819009Y-86030401D01*
X113819009Y-86030401D02*
X113866628Y-86125639D01*
X113866628Y-86125639D02*
X113866628Y-86316115D01*
X113866628Y-86316115D02*
X113819009Y-86411353D01*
X113819009Y-86411353D02*
X113771390Y-86458972D01*
X113771390Y-86458972D02*
X113676152Y-86506591D01*
X103233295Y-87363734D02*
X103233295Y-86887544D01*
X102947580Y-87458972D02*
X103947580Y-87125639D01*
X103947580Y-87125639D02*
X102947580Y-86792306D01*
X103947580Y-86554210D02*
X103947580Y-85935163D01*
X103947580Y-85935163D02*
X103566628Y-86268496D01*
X103566628Y-86268496D02*
X103566628Y-86125639D01*
X103566628Y-86125639D02*
X103519009Y-86030401D01*
X103519009Y-86030401D02*
X103471390Y-85982782D01*
X103471390Y-85982782D02*
X103376152Y-85935163D01*
X103376152Y-85935163D02*
X103138057Y-85935163D01*
X103138057Y-85935163D02*
X103042819Y-85982782D01*
X103042819Y-85982782D02*
X102995200Y-86030401D01*
X102995200Y-86030401D02*
X102947580Y-86125639D01*
X102947580Y-86125639D02*
X102947580Y-86411353D01*
X102947580Y-86411353D02*
X102995200Y-86506591D01*
X102995200Y-86506591D02*
X103042819Y-86554210D01*
X87847580Y-87316115D02*
X88847580Y-87316115D01*
X88847580Y-87316115D02*
X88847580Y-87078020D01*
X88847580Y-87078020D02*
X88799961Y-86935163D01*
X88799961Y-86935163D02*
X88704723Y-86839925D01*
X88704723Y-86839925D02*
X88609485Y-86792306D01*
X88609485Y-86792306D02*
X88419009Y-86744687D01*
X88419009Y-86744687D02*
X88276152Y-86744687D01*
X88276152Y-86744687D02*
X88085676Y-86792306D01*
X88085676Y-86792306D02*
X87990438Y-86839925D01*
X87990438Y-86839925D02*
X87895200Y-86935163D01*
X87895200Y-86935163D02*
X87847580Y-87078020D01*
X87847580Y-87078020D02*
X87847580Y-87316115D01*
X88752342Y-86363734D02*
X88799961Y-86316115D01*
X88799961Y-86316115D02*
X88847580Y-86220877D01*
X88847580Y-86220877D02*
X88847580Y-85982782D01*
X88847580Y-85982782D02*
X88799961Y-85887544D01*
X88799961Y-85887544D02*
X88752342Y-85839925D01*
X88752342Y-85839925D02*
X88657104Y-85792306D01*
X88657104Y-85792306D02*
X88561866Y-85792306D01*
X88561866Y-85792306D02*
X88419009Y-85839925D01*
X88419009Y-85839925D02*
X87847580Y-86411353D01*
X87847580Y-86411353D02*
X87847580Y-85792306D01*
M02*
