%TF.GenerationSoftware,KiCad,Pcbnew,8.0.1*%
%TF.CreationDate,2024-04-05T09:22:38+02:00*%
%TF.ProjectId,zx-interface-2-rom,7a782d69-6e74-4657-9266-6163652d322d,rev?*%
%TF.SameCoordinates,Original*%
%TF.FileFunction,Soldermask,Bot*%
%TF.FilePolarity,Negative*%
%FSLAX46Y46*%
G04 Gerber Fmt 4.6, Leading zero omitted, Abs format (unit mm)*
G04 Created by KiCad (PCBNEW 8.0.1) date 2024-04-05 09:22:38*
%MOMM*%
%LPD*%
G01*
G04 APERTURE LIST*
%ADD10C,1.600000*%
%ADD11O,1.600000X1.600000*%
%ADD12R,1.600000X1.600000*%
G04 APERTURE END LIST*
D10*
%TO.C,R2*%
X120600000Y-61025000D03*
D11*
X110440000Y-61025000D03*
%TD*%
D10*
%TO.C,C2*%
X86525000Y-61000000D03*
X89025000Y-61000000D03*
%TD*%
D12*
%TO.C,U1*%
X120230000Y-65300000D03*
D11*
X117690000Y-65300000D03*
X115150000Y-65300000D03*
X112610000Y-65300000D03*
X110070000Y-65300000D03*
X107530000Y-65300000D03*
X104990000Y-65300000D03*
X102450000Y-65300000D03*
X99910000Y-65300000D03*
X97370000Y-65300000D03*
X94830000Y-65300000D03*
X92290000Y-65300000D03*
X89750000Y-65300000D03*
X87210000Y-65300000D03*
X87210000Y-80540000D03*
X89750000Y-80540000D03*
X92290000Y-80540000D03*
X94830000Y-80540000D03*
X97370000Y-80540000D03*
X99910000Y-80540000D03*
X102450000Y-80540000D03*
X104990000Y-80540000D03*
X107530000Y-80540000D03*
X110070000Y-80540000D03*
X112610000Y-80540000D03*
X115150000Y-80540000D03*
X117690000Y-80540000D03*
X120230000Y-80540000D03*
%TD*%
D10*
%TO.C,C1*%
X87000000Y-51875000D03*
X87000000Y-54375000D03*
%TD*%
D12*
%TO.C,SW1*%
X116735000Y-56750000D03*
D11*
X119275000Y-56750000D03*
X119275000Y-49130000D03*
X116735000Y-49130000D03*
%TD*%
D10*
%TO.C,R1*%
X106830000Y-61000000D03*
D11*
X96670000Y-61000000D03*
%TD*%
D12*
%TO.C,U2*%
X90610000Y-56770000D03*
D11*
X93150000Y-56770000D03*
X95690000Y-56770000D03*
X98230000Y-56770000D03*
X100770000Y-56770000D03*
X103310000Y-56770000D03*
X105850000Y-56770000D03*
X105850000Y-49150000D03*
X103310000Y-49150000D03*
X100770000Y-49150000D03*
X98230000Y-49150000D03*
X95690000Y-49150000D03*
X93150000Y-49150000D03*
X90610000Y-49150000D03*
%TD*%
M02*
