%TF.GenerationSoftware,KiCad,Pcbnew,8.0.1*%
%TF.CreationDate,2024-04-05T09:22:38+02:00*%
%TF.ProjectId,zx-interface-2-rom,7a782d69-6e74-4657-9266-6163652d322d,rev?*%
%TF.SameCoordinates,Original*%
%TF.FileFunction,Copper,L3,Inr*%
%TF.FilePolarity,Positive*%
%FSLAX46Y46*%
G04 Gerber Fmt 4.6, Leading zero omitted, Abs format (unit mm)*
G04 Created by KiCad (PCBNEW 8.0.1) date 2024-04-05 09:22:38*
%MOMM*%
%LPD*%
G01*
G04 APERTURE LIST*
%TA.AperFunction,ComponentPad*%
%ADD10C,1.600000*%
%TD*%
%TA.AperFunction,ComponentPad*%
%ADD11O,1.600000X1.600000*%
%TD*%
%TA.AperFunction,ComponentPad*%
%ADD12R,1.600000X1.600000*%
%TD*%
%TA.AperFunction,ViaPad*%
%ADD13C,0.600000*%
%TD*%
%TA.AperFunction,Conductor*%
%ADD14C,0.200000*%
%TD*%
G04 APERTURE END LIST*
D10*
%TO.N,+5V*%
%TO.C,R2*%
X120600000Y-61025000D03*
D11*
%TO.N,Net-(U1-A14)*%
X110440000Y-61025000D03*
%TD*%
D10*
%TO.N,+5V*%
%TO.C,C2*%
X86525000Y-61000000D03*
%TO.N,GND*%
X89025000Y-61000000D03*
%TD*%
D12*
%TO.N,Net-(U1-A15)*%
%TO.C,U1*%
X120230000Y-65300000D03*
D11*
%TO.N,A12*%
X117690000Y-65300000D03*
%TO.N,A7*%
X115150000Y-65300000D03*
%TO.N,A6*%
X112610000Y-65300000D03*
%TO.N,A5*%
X110070000Y-65300000D03*
%TO.N,A4*%
X107530000Y-65300000D03*
%TO.N,A3*%
X104990000Y-65300000D03*
%TO.N,A2*%
X102450000Y-65300000D03*
%TO.N,A1*%
X99910000Y-65300000D03*
%TO.N,A0*%
X97370000Y-65300000D03*
%TO.N,D0*%
X94830000Y-65300000D03*
%TO.N,D1*%
X92290000Y-65300000D03*
%TO.N,D2*%
X89750000Y-65300000D03*
%TO.N,GND*%
X87210000Y-65300000D03*
%TO.N,D3*%
X87210000Y-80540000D03*
%TO.N,D4*%
X89750000Y-80540000D03*
%TO.N,D5*%
X92290000Y-80540000D03*
%TO.N,D6*%
X94830000Y-80540000D03*
%TO.N,D7*%
X97370000Y-80540000D03*
%TO.N,Net-(U1-~{CE})*%
X99910000Y-80540000D03*
%TO.N,A10*%
X102450000Y-80540000D03*
%TO.N,Net-(J1-~{MREQ})*%
X104990000Y-80540000D03*
%TO.N,A11*%
X107530000Y-80540000D03*
%TO.N,A9*%
X110070000Y-80540000D03*
%TO.N,A8*%
X112610000Y-80540000D03*
%TO.N,A13*%
X115150000Y-80540000D03*
%TO.N,Net-(U1-A14)*%
X117690000Y-80540000D03*
%TO.N,+5V*%
X120230000Y-80540000D03*
%TD*%
D10*
%TO.N,+5V*%
%TO.C,C1*%
X87000000Y-51875000D03*
%TO.N,GND*%
X87000000Y-54375000D03*
%TD*%
D12*
%TO.N,GND*%
%TO.C,SW1*%
X116735000Y-56750000D03*
D11*
X119275000Y-56750000D03*
%TO.N,Net-(U1-A15)*%
X119275000Y-49130000D03*
%TO.N,Net-(U1-A14)*%
X116735000Y-49130000D03*
%TD*%
D10*
%TO.N,+5V*%
%TO.C,R1*%
X106830000Y-61000000D03*
D11*
%TO.N,Net-(U1-A15)*%
X96670000Y-61000000D03*
%TD*%
D12*
%TO.N,Net-(J1-A15)*%
%TO.C,U2*%
X90610000Y-56770000D03*
D11*
%TO.N,Net-(J1-A14)*%
X93150000Y-56770000D03*
%TO.N,Net-(U2-Pad3)*%
X95690000Y-56770000D03*
X98230000Y-56770000D03*
%TO.N,Net-(J1-~{MREQ})*%
X100770000Y-56770000D03*
%TO.N,Net-(U1-~{CE})*%
X103310000Y-56770000D03*
%TO.N,GND*%
X105850000Y-56770000D03*
%TO.N,unconnected-(U2-Pad8)*%
X105850000Y-49150000D03*
%TO.N,GND*%
X103310000Y-49150000D03*
X100770000Y-49150000D03*
%TO.N,unconnected-(U2-Pad11)*%
X98230000Y-49150000D03*
%TO.N,GND*%
X95690000Y-49150000D03*
X93150000Y-49150000D03*
%TO.N,+5V*%
X90610000Y-49150000D03*
%TD*%
D13*
%TO.N,A2*%
X101786900Y-88269000D03*
%TO.N,A1*%
X99720000Y-91720500D03*
%TO.N,A0*%
X97180000Y-91720500D03*
%TO.N,A5*%
X109900700Y-92148200D03*
%TO.N,A4*%
X104800000Y-91720500D03*
%TO.N,A3*%
X104800000Y-89554700D03*
%TD*%
D14*
%TO.N,+5V*%
X89508300Y-49150000D02*
X89508300Y-49366700D01*
X89508300Y-49366700D02*
X87000000Y-51875000D01*
X87000000Y-51875000D02*
X85832400Y-53042600D01*
X90610000Y-49150000D02*
X89508300Y-49150000D01*
X85832400Y-53042600D02*
X85832400Y-60307400D01*
X85832400Y-60307400D02*
X86525000Y-61000000D01*
%TO.N,Net-(U1-A14)*%
X111340000Y-73088300D02*
X111340000Y-63026700D01*
X110440000Y-56526700D02*
X110440000Y-61025000D01*
X116735000Y-49130000D02*
X116735000Y-50231700D01*
X117690000Y-79438300D02*
X111340000Y-73088300D01*
X116735000Y-50231700D02*
X110440000Y-56526700D01*
X117690000Y-80540000D02*
X117690000Y-79438300D01*
X111340000Y-63026700D02*
X110440000Y-62126700D01*
X110440000Y-61025000D02*
X110440000Y-62126700D01*
%TO.N,A2*%
X101331700Y-87813800D02*
X101786900Y-88269000D01*
X102450000Y-65300000D02*
X102450000Y-77432800D01*
X101331700Y-78551100D02*
X101331700Y-87813800D01*
X102450000Y-77432800D02*
X101331700Y-78551100D01*
%TO.N,Net-(U1-A15)*%
X118170600Y-51336100D02*
X118170600Y-62138900D01*
X120230000Y-65300000D02*
X120230000Y-64198300D01*
X118170600Y-62138900D02*
X120230000Y-64198300D01*
X119275000Y-50231700D02*
X118170600Y-51336100D01*
X119275000Y-49130000D02*
X119275000Y-50231700D01*
%TO.N,A1*%
X98802900Y-67508800D02*
X98802900Y-90803400D01*
X99910000Y-66401700D02*
X98802900Y-67508800D01*
X98802900Y-90803400D02*
X99720000Y-91720500D01*
X99910000Y-65300000D02*
X99910000Y-66401700D01*
%TO.N,A0*%
X97370000Y-65300000D02*
X97370000Y-66401700D01*
X96235000Y-67536700D02*
X96235000Y-90775500D01*
X97370000Y-66401700D02*
X96235000Y-67536700D01*
X96235000Y-90775500D02*
X97180000Y-91720500D01*
%TO.N,A5*%
X108958700Y-67513000D02*
X108958700Y-91206200D01*
X108958700Y-91206200D02*
X109900700Y-92148200D01*
X110070000Y-66401700D02*
X108958700Y-67513000D01*
X110070000Y-65300000D02*
X110070000Y-66401700D01*
%TO.N,Net-(J1-~{MREQ})*%
X103883100Y-78331400D02*
X103883100Y-64036700D01*
X104990000Y-79438300D02*
X103883100Y-78331400D01*
X103883100Y-64036700D02*
X104416700Y-63503100D01*
X100770000Y-56770000D02*
X101871700Y-56770000D01*
X103773400Y-55616800D02*
X102796600Y-55616800D01*
X102796600Y-55616800D02*
X101871700Y-56541700D01*
X104990000Y-80540000D02*
X104990000Y-79438300D01*
X104416700Y-56260100D02*
X103773400Y-55616800D01*
X101871700Y-56541700D02*
X101871700Y-56770000D01*
X104416700Y-63503100D02*
X104416700Y-56260100D01*
%TO.N,Net-(U1-~{CE})*%
X103310000Y-57871700D02*
X101011700Y-60170000D01*
X99910000Y-80540000D02*
X99910000Y-79438300D01*
X103310000Y-56770000D02*
X103310000Y-57871700D01*
X99910000Y-79375500D02*
X99910000Y-79438300D01*
X101011700Y-78273800D02*
X99910000Y-79375500D01*
X101011700Y-60170000D02*
X101011700Y-78273800D01*
%TD*%
M02*
