M48
; DRILL file {KiCad 8.0.2} date 2024-05-18T22:44:18+0200
; FORMAT={-:-/ absolute / inch / decimal}
; #@! TF.CreationDate,2024-05-18T22:44:18+02:00
; #@! TF.GenerationSoftware,Kicad,Pcbnew,8.0.2
; #@! TF.FileFunction,Plated,1,2,PTH
FMAT,2
INCH
; #@! TA.AperFunction,Plated,PTH,ViaDrill
T1C0.0118
; #@! TA.AperFunction,Plated,PTH,ComponentDrill
T2C0.0315
%
G90
G05
T1
X3.4495Y-3.3053
X3.5518Y-3.0729
X3.5534Y-3.1048
X3.7424Y-3.0188
X3.7661Y-2.9864
X3.7826Y-2.9326
X3.974Y-2.8134
X4.0117Y-2.6453
X4.0958Y-2.6806
X4.2952Y-3.1141
X4.3011Y-3.3705
X4.792Y-3.3937
T2
X3.4065Y-2.4016
X3.4252Y-2.0423
X3.4252Y-2.1407
X3.4299Y-2.5778
X3.4299Y-3.1778
X3.5049Y-2.4016
X3.5299Y-2.5778
X3.5299Y-3.1778
X3.5673Y-1.935
X3.5673Y-2.235
X3.6299Y-2.5778
X3.6299Y-3.1778
X3.6673Y-1.935
X3.6673Y-2.235
X3.7299Y-2.5778
X3.7299Y-3.1778
X3.7673Y-1.935
X3.7673Y-2.235
X3.8059Y-2.4016
X3.8299Y-2.5778
X3.8299Y-3.1778
X3.8673Y-1.935
X3.8673Y-2.235
X3.9299Y-2.5778
X3.9299Y-3.1778
X3.9673Y-1.935
X3.9673Y-2.235
X4.0299Y-2.5778
X4.0299Y-3.1778
X4.0673Y-1.935
X4.0673Y-2.235
X4.1299Y-2.5778
X4.1299Y-3.1778
X4.1673Y-1.935
X4.1673Y-2.235
X4.2059Y-2.4016
X4.2299Y-2.5778
X4.2299Y-3.1778
X4.3299Y-2.5778
X4.3299Y-3.1778
X4.348Y-2.4026
X4.4299Y-2.5778
X4.4299Y-3.1778
X4.5299Y-2.5778
X4.5299Y-3.1778
X4.5965Y-1.9177
X4.5965Y-2.2177
X4.6299Y-2.5778
X4.6299Y-3.1778
X4.6965Y-1.9177
X4.6965Y-2.2177
X4.7299Y-2.5778
X4.7299Y-3.1778
X4.748Y-2.4026
M30
